<?xml version="1.0" encoding="UTF-8"?>
<svg version="1.1" xmlns="http://www.w3.org/2000/svg" width="512" height="512">
<path d="M0 0 C1.93324596 1.60524022 3.85181575 3.22844825 5.75 4.875 C6.54148437 5.50664063 7.33296875 6.13828125 8.1484375 6.7890625 C14.62315729 12.12786654 19.58787987 18.59006762 24.56640625 25.29150391 C25.52171439 26.56958324 26.5064539 27.82563292 27.5 29.07421875 C44.27801961 51.55129393 46.38667685 83.58533812 42.67285156 110.31176758 C40.03489173 126.96090342 35.84533739 143.40233015 30.13256836 159.26098633 C29.90256889 159.90085732 29.67256943 160.5407283 29.43560028 161.19998932 C28.87507327 162.75880862 28.31272758 164.31697375 27.75 165.875 C28.83470581 165.86611755 29.91941162 165.85723511 31.0369873 165.8480835 C41.27687306 165.76687295 51.51669316 165.70697474 61.75682831 165.66775131 C67.02096516 165.64690795 72.2848413 165.6186496 77.54882812 165.57324219 C82.63223318 165.52966865 87.715388 165.50583844 92.79896545 165.49549103 C94.7349898 165.48812031 96.67100099 165.47372702 98.60691833 165.45207977 C101.32613341 165.42289272 104.04432448 165.41905036 106.76367188 165.42089844 C107.55777466 165.40651733 108.35187744 165.39213623 109.17004395 165.37731934 C115.94058378 165.42686253 121.26933206 167.4084501 126.109375 172.22094727 C127.96965722 175.23034132 128.98924697 177.94528816 130 181.33984375 C130.20270508 182.01683823 130.40541016 182.6938327 130.61425781 183.39134216 C134.02977846 194.98693786 137.07738352 206.69209469 140.19712067 218.3699379 C141.89301347 224.71194323 143.59958659 231.0510906 145.3046875 237.390625 C145.4937051 238.09377649 145.6827227 238.79692799 145.87746811 239.5213871 C149.48191145 252.92717621 153.15883921 266.3122347 156.875 279.6875 C157.93120194 283.49082649 158.98724313 287.29419752 160.04296875 291.09765625 C160.40652214 292.40728081 160.40652214 292.40728081 160.77742004 293.74336243 C162.87328548 301.30185245 164.91879578 308.87320809 166.94213867 316.45141602 C169.22409433 324.9744411 171.55858402 333.48268253 173.90037537 341.98944092 C175.45192623 347.62563743 176.99918033 353.26292376 178.53540039 358.90332031 C182.36050732 372.93234244 182.36050732 372.93234244 186.43359375 386.890625 C191.27323738 403.15599503 192.8256299 417.90900687 191.75 434.875 C191.09 434.875 190.43 434.875 189.75 434.875 C189.75 435.535 189.75 436.195 189.75 436.875 C184.11774376 440.78628906 179.40256085 441.0219144 172.69290638 441.00642776 C171.87043776 441.0084804 171.04796914 441.01053303 170.20057723 441.01264787 C167.42673815 441.01833143 164.65294851 441.01685894 161.87910461 441.01544189 C159.87741307 441.01802475 157.87572204 441.02103769 155.87403172 441.0244453 C150.3592772 441.03252787 144.84453568 441.03430557 139.32977593 441.03504276 C133.3875564 441.03689113 127.44534366 441.04443738 121.50312805 441.05117798 C107.82509542 441.06547977 94.14706374 441.07128903 80.46902534 441.07586992 C73.71024077 441.07820559 66.95145704 441.08180821 60.19267313 441.0855653 C37.05784638 441.09840107 13.92302012 441.10912023 -9.21181011 441.1125679 C-10.66418842 441.11278953 -12.11656673 441.11301132 -13.56894504 441.11323325 C-15.02483715 441.11345389 -16.48072926 441.11367438 -17.93662137 441.1138947 C-20.85740578 441.11433725 -23.7781902 441.11478437 -26.69897461 441.11523438 C-27.42315978 441.11534377 -28.14734495 441.11545316 -28.89347513 441.11556586 C-52.37572853 441.11919657 -75.85795107 441.13511702 -99.34019264 441.15842474 C-124.16541969 441.18302042 -148.99062909 441.19674062 -173.81586868 441.19793582 C-176.54104698 441.19810727 -179.26622528 441.1983227 -181.99140358 441.19857025 C-182.99793107 441.1986539 -182.99793107 441.1986539 -184.02479244 441.19873925 C-194.82375094 441.19988993 -205.62267775 441.21091335 -216.42162555 441.22545731 C-227.27611526 441.23982327 -238.13056242 441.24280621 -248.98505893 441.23501733 C-254.86559034 441.23110532 -260.74601515 441.23206735 -266.62653351 441.24607468 C-272.00978757 441.25878039 -277.39285457 441.2576453 -282.77610824 441.24548396 C-284.72364779 441.2435212 -286.67120044 441.24663207 -288.61872157 441.25532833 C-291.26727464 441.26640617 -293.91516584 441.25894241 -296.56370068 441.2469368 C-297.31862605 441.25453199 -298.07355142 441.26212718 -298.85135332 441.26995254 C-304.7588848 441.21220019 -311.04780615 440.27337367 -315.88943092 436.64710183 C-319.59606212 432.75378927 -320.16064868 428.68320091 -320.09765625 423.546875 C-320.09032974 422.69486511 -320.08300323 421.84285522 -320.07545471 420.96502686 C-319.50581778 407.42669742 -315.05362286 394.246962 -311.31390381 381.30554199 C-310.2777686 377.69870517 -309.27230771 374.08335259 -308.26367188 370.46875 C-305.1104404 359.20363291 -301.87189363 347.96405378 -298.56881714 336.74194336 C-294.04200385 321.3584269 -289.8566365 305.88612211 -285.67831802 290.40528488 C-284.63074634 286.52627877 -283.58032939 282.64804346 -282.5300293 278.76977539 C-281.27034929 274.11791867 -280.01076692 269.46603595 -278.75227356 264.81385803 C-274.89768028 250.56525805 -271.0324013 236.31954417 -267.12988281 222.08398438 C-266.67508683 220.42449105 -266.22033306 218.76498616 -265.765625 217.10546875 C-265.55045227 216.32041962 -265.33527954 215.53537048 -265.11358643 214.72653198 C-263.88157711 210.22055114 -262.67226683 205.70928959 -261.48506165 201.19129944 C-260.93769043 199.11089138 -260.385153 197.03192929 -259.83081055 194.95336914 C-259.18335251 192.51923116 -258.5456701 190.08245591 -257.92114258 187.64233398 C-255.86952747 179.98730738 -253.52405563 173.5351702 -247.25 168.4375 C-241.91993304 165.66142346 -236.78872338 165.73412678 -230.87963867 165.76147461 C-230.04985504 165.76132858 -229.22007141 165.76118256 -228.36514282 165.7610321 C-225.63272453 165.76172667 -222.90037508 165.76949771 -220.16796875 165.77734375 C-218.2693943 165.77920955 -216.37081937 165.78063269 -214.47224426 165.78163147 C-209.48278466 165.7854439 -204.49335432 165.7952633 -199.50390625 165.80633545 C-194.40950923 165.81657697 -189.31510748 165.82113496 -184.22070312 165.82617188 C-174.23045592 165.83688672 -164.2402304 165.85394784 -154.25 165.875 C-154.47466949 165.1883728 -154.69933899 164.50174561 -154.93081665 163.79431152 C-163.20925704 138.42024189 -163.20925704 138.42024189 -165.625 127.375 C-165.86557129 126.29589355 -166.10614258 125.21678711 -166.35400391 124.10498047 C-173.32020782 91.96250272 -172.1603617 59.07620669 -154.55859375 30.3828125 C-151.20057264 25.17048791 -147.439957 20.44340473 -143.25 15.875 C-141.92742187 14.41320313 -141.92742187 14.41320313 -140.578125 12.921875 C-104.90053017 -25.26468411 -41.99503214 -32.57746835 0 0 Z " fill="#FBB202" transform="translate(319.25,46.125)"/>
<path d="M0 0 C1.93324596 1.60524022 3.85181575 3.22844825 5.75 4.875 C6.54148437 5.50664063 7.33296875 6.13828125 8.1484375 6.7890625 C14.62315729 12.12786654 19.58787987 18.59006762 24.56640625 25.29150391 C25.52171439 26.56958324 26.5064539 27.82563292 27.5 29.07421875 C44.27801961 51.55129393 46.38667685 83.58533812 42.67285156 110.31176758 C39.75082887 128.75372869 35.66434193 148.8310052 27.75 165.875 C27.09 166.205 26.43 166.535 25.75 166.875 C25.42 167.865 25.09 168.855 24.75 169.875 C24.09 169.875 23.43 169.875 22.75 169.875 C22.75 171.195 22.75 172.515 22.75 173.875 C22.09 173.875 21.43 173.875 20.75 173.875 C20.75 175.195 20.75 176.515 20.75 177.875 C20.09 177.875 19.43 177.875 18.75 177.875 C18.75 179.855 18.75 181.835 18.75 183.875 C18.09 183.875 17.43 183.875 16.75 183.875 C16.75 185.195 16.75 186.515 16.75 187.875 C16.09 187.875 15.43 187.875 14.75 187.875 C14.75 189.195 14.75 190.515 14.75 191.875 C14.09 191.875 13.43 191.875 12.75 191.875 C12.75 193.195 12.75 194.515 12.75 195.875 C12.09 195.875 11.43 195.875 10.75 195.875 C10.75 197.855 10.75 199.835 10.75 201.875 C10.09 201.875 9.43 201.875 8.75 201.875 C8.75 203.195 8.75 204.515 8.75 205.875 C8.09 205.875 7.43 205.875 6.75 205.875 C6.75 206.535 6.75 207.195 6.75 207.875 C6.09 207.875 5.43 207.875 4.75 207.875 C4.75 209.195 4.75 210.515 4.75 211.875 C4.09 211.875 3.43 211.875 2.75 211.875 C2.75 213.195 2.75 214.515 2.75 215.875 C2.09 215.875 1.43 215.875 0.75 215.875 C0.75 217.195 0.75 218.515 0.75 219.875 C0.09 219.875 -0.57 219.875 -1.25 219.875 C-1.25 221.195 -1.25 222.515 -1.25 223.875 C-1.91 223.875 -2.57 223.875 -3.25 223.875 C-3.25 225.195 -3.25 226.515 -3.25 227.875 C-3.91 227.875 -4.57 227.875 -5.25 227.875 C-5.25 228.535 -5.25 229.195 -5.25 229.875 C-5.91 229.875 -6.57 229.875 -7.25 229.875 C-7.25 231.195 -7.25 232.515 -7.25 233.875 C-7.91 233.875 -8.57 233.875 -9.25 233.875 C-9.25 234.535 -9.25 235.195 -9.25 235.875 C-9.91 235.875 -10.57 235.875 -11.25 235.875 C-11.25 237.195 -11.25 238.515 -11.25 239.875 C-11.91 239.875 -12.57 239.875 -13.25 239.875 C-13.25 241.195 -13.25 242.515 -13.25 243.875 C-13.91 243.875 -14.57 243.875 -15.25 243.875 C-15.25 244.535 -15.25 245.195 -15.25 245.875 C-15.91 245.875 -16.57 245.875 -17.25 245.875 C-17.25 247.195 -17.25 248.515 -17.25 249.875 C-17.91 249.875 -18.57 249.875 -19.25 249.875 C-19.25 251.195 -19.25 252.515 -19.25 253.875 C-19.91 253.875 -20.57 253.875 -21.25 253.875 C-21.25 254.535 -21.25 255.195 -21.25 255.875 C-21.91 255.875 -22.57 255.875 -23.25 255.875 C-23.25 256.535 -23.25 257.195 -23.25 257.875 C-23.91 257.875 -24.57 257.875 -25.25 257.875 C-25.25 259.195 -25.25 260.515 -25.25 261.875 C-25.91 261.875 -26.57 261.875 -27.25 261.875 C-27.25 262.535 -27.25 263.195 -27.25 263.875 C-27.91 263.875 -28.57 263.875 -29.25 263.875 C-29.25 265.195 -29.25 266.515 -29.25 267.875 C-29.91 267.875 -30.57 267.875 -31.25 267.875 C-31.25 268.535 -31.25 269.195 -31.25 269.875 C-31.91 269.875 -32.57 269.875 -33.25 269.875 C-33.25 271.195 -33.25 272.515 -33.25 273.875 C-33.91 273.875 -34.57 273.875 -35.25 273.875 C-35.25 274.535 -35.25 275.195 -35.25 275.875 C-35.91 275.875 -36.57 275.875 -37.25 275.875 C-37.25 276.535 -37.25 277.195 -37.25 277.875 C-37.91 277.875 -38.57 277.875 -39.25 277.875 C-39.25 278.535 -39.25 279.195 -39.25 279.875 C-39.91 279.875 -40.57 279.875 -41.25 279.875 C-41.25 281.195 -41.25 282.515 -41.25 283.875 C-41.91 283.875 -42.57 283.875 -43.25 283.875 C-43.25 284.535 -43.25 285.195 -43.25 285.875 C-43.91 285.875 -44.57 285.875 -45.25 285.875 C-45.25 286.535 -45.25 287.195 -45.25 287.875 C-45.91 287.875 -46.57 287.875 -47.25 287.875 C-47.25 289.195 -47.25 290.515 -47.25 291.875 C-47.91 291.875 -48.57 291.875 -49.25 291.875 C-49.25 292.535 -49.25 293.195 -49.25 293.875 C-49.91 293.875 -50.57 293.875 -51.25 293.875 C-51.25 294.535 -51.25 295.195 -51.25 295.875 C-51.91 295.875 -52.57 295.875 -53.25 295.875 C-53.25 296.535 -53.25 297.195 -53.25 297.875 C-53.91 297.875 -54.57 297.875 -55.25 297.875 C-55.25 298.535 -55.25 299.195 -55.25 299.875 C-60.53 299.875 -65.81 299.875 -71.25 299.875 C-71.25 299.215 -71.25 298.555 -71.25 297.875 C-71.91 297.875 -72.57 297.875 -73.25 297.875 C-73.25 297.215 -73.25 296.555 -73.25 295.875 C-73.91 295.875 -74.57 295.875 -75.25 295.875 C-75.25 295.215 -75.25 294.555 -75.25 293.875 C-75.91 293.875 -76.57 293.875 -77.25 293.875 C-77.25 293.215 -77.25 292.555 -77.25 291.875 C-77.91 291.875 -78.57 291.875 -79.25 291.875 C-79.25 290.555 -79.25 289.235 -79.25 287.875 C-79.91 287.875 -80.57 287.875 -81.25 287.875 C-81.25 287.215 -81.25 286.555 -81.25 285.875 C-81.91 285.875 -82.57 285.875 -83.25 285.875 C-83.25 285.215 -83.25 284.555 -83.25 283.875 C-83.91 283.875 -84.57 283.875 -85.25 283.875 C-85.25 282.555 -85.25 281.235 -85.25 279.875 C-85.91 279.875 -86.57 279.875 -87.25 279.875 C-87.25 279.215 -87.25 278.555 -87.25 277.875 C-87.91 277.875 -88.57 277.875 -89.25 277.875 C-89.25 277.215 -89.25 276.555 -89.25 275.875 C-89.91 275.875 -90.57 275.875 -91.25 275.875 C-91.25 275.215 -91.25 274.555 -91.25 273.875 C-91.91 273.875 -92.57 273.875 -93.25 273.875 C-93.25 272.555 -93.25 271.235 -93.25 269.875 C-93.91 269.875 -94.57 269.875 -95.25 269.875 C-95.25 269.215 -95.25 268.555 -95.25 267.875 C-95.91 267.875 -96.57 267.875 -97.25 267.875 C-97.25 266.555 -97.25 265.235 -97.25 263.875 C-97.91 263.875 -98.57 263.875 -99.25 263.875 C-99.25 263.215 -99.25 262.555 -99.25 261.875 C-99.91 261.875 -100.57 261.875 -101.25 261.875 C-101.25 260.555 -101.25 259.235 -101.25 257.875 C-101.91 257.875 -102.57 257.875 -103.25 257.875 C-103.25 257.215 -103.25 256.555 -103.25 255.875 C-103.91 255.875 -104.57 255.875 -105.25 255.875 C-105.25 255.215 -105.25 254.555 -105.25 253.875 C-105.91 253.875 -106.57 253.875 -107.25 253.875 C-107.25 252.555 -107.25 251.235 -107.25 249.875 C-107.91 249.875 -108.57 249.875 -109.25 249.875 C-109.25 248.555 -109.25 247.235 -109.25 245.875 C-109.91 245.875 -110.57 245.875 -111.25 245.875 C-111.25 244.555 -111.25 243.235 -111.25 241.875 C-111.91 241.875 -112.57 241.875 -113.25 241.875 C-113.25 241.215 -113.25 240.555 -113.25 239.875 C-113.91 239.875 -114.57 239.875 -115.25 239.875 C-115.25 238.555 -115.25 237.235 -115.25 235.875 C-115.91 235.875 -116.57 235.875 -117.25 235.875 C-117.25 235.215 -117.25 234.555 -117.25 233.875 C-117.91 233.875 -118.57 233.875 -119.25 233.875 C-119.25 232.555 -119.25 231.235 -119.25 229.875 C-119.91 229.875 -120.57 229.875 -121.25 229.875 C-121.25 228.555 -121.25 227.235 -121.25 225.875 C-121.91 225.875 -122.57 225.875 -123.25 225.875 C-123.25 225.215 -123.25 224.555 -123.25 223.875 C-123.91 223.875 -124.57 223.875 -125.25 223.875 C-125.25 222.555 -125.25 221.235 -125.25 219.875 C-125.91 219.875 -126.57 219.875 -127.25 219.875 C-127.25 218.555 -127.25 217.235 -127.25 215.875 C-127.91 215.875 -128.57 215.875 -129.25 215.875 C-129.25 214.555 -129.25 213.235 -129.25 211.875 C-129.91 211.875 -130.57 211.875 -131.25 211.875 C-131.25 211.215 -131.25 210.555 -131.25 209.875 C-131.91 209.875 -132.57 209.875 -133.25 209.875 C-133.25 208.555 -133.25 207.235 -133.25 205.875 C-133.91 205.875 -134.57 205.875 -135.25 205.875 C-135.25 203.895 -135.25 201.915 -135.25 199.875 C-135.91 199.875 -136.57 199.875 -137.25 199.875 C-137.25 198.555 -137.25 197.235 -137.25 195.875 C-137.91 195.875 -138.57 195.875 -139.25 195.875 C-139.25 194.555 -139.25 193.235 -139.25 191.875 C-139.91 191.875 -140.57 191.875 -141.25 191.875 C-141.25 190.555 -141.25 189.235 -141.25 187.875 C-141.91 187.875 -142.57 187.875 -143.25 187.875 C-143.25 185.895 -143.25 183.915 -143.25 181.875 C-143.91 181.875 -144.57 181.875 -145.25 181.875 C-145.25 180.555 -145.25 179.235 -145.25 177.875 C-145.91 177.875 -146.57 177.875 -147.25 177.875 C-147.25 176.555 -147.25 175.235 -147.25 173.875 C-147.91 173.875 -148.57 173.875 -149.25 173.875 C-149.25 171.895 -149.25 169.915 -149.25 167.875 C-150.24 167.545 -151.23 167.215 -152.25 166.875 C-152.25 166.215 -152.25 165.555 -152.25 164.875 C-152.91 164.875 -153.57 164.875 -154.25 164.875 C-168.64412323 124.55166166 -178.76273593 81.26923561 -160.18896484 40.54882812 C-155.68507085 31.44767416 -150.12130705 23.36694123 -143.25 15.875 C-142.36828125 14.90046875 -141.4865625 13.9259375 -140.578125 12.921875 C-104.90053017 -25.26468411 -41.99503214 -32.57746835 0 0 Z " fill="#F23F30" transform="translate(319.25,46.125)"/>
<path d="M0 0 C1.93151159 2.63387944 1.58705536 4.69416956 1.375 7.875 C2.035 7.875 2.695 7.875 3.375 7.875 C3.375 9.195 3.375 10.515 3.375 11.875 C4.035 11.875 4.695 11.875 5.375 11.875 C5.375 13.195 5.375 14.515 5.375 15.875 C6.035 15.875 6.695 15.875 7.375 15.875 C7.375 17.855 7.375 19.835 7.375 21.875 C8.035 21.875 8.695 21.875 9.375 21.875 C9.375 23.195 9.375 24.515 9.375 25.875 C10.035 25.875 10.695 25.875 11.375 25.875 C11.375 27.195 11.375 28.515 11.375 29.875 C12.035 29.875 12.695 29.875 13.375 29.875 C13.375 31.195 13.375 32.515 13.375 33.875 C14.035 33.875 14.695 33.875 15.375 33.875 C15.375 35.855 15.375 37.835 15.375 39.875 C16.035 39.875 16.695 39.875 17.375 39.875 C17.375 41.195 17.375 42.515 17.375 43.875 C18.035 43.875 18.695 43.875 19.375 43.875 C19.375 44.535 19.375 45.195 19.375 45.875 C20.035 45.875 20.695 45.875 21.375 45.875 C21.375 47.195 21.375 48.515 21.375 49.875 C22.035 49.875 22.695 49.875 23.375 49.875 C23.375 51.195 23.375 52.515 23.375 53.875 C24.035 53.875 24.695 53.875 25.375 53.875 C25.375 55.195 25.375 56.515 25.375 57.875 C26.035 57.875 26.695 57.875 27.375 57.875 C27.375 58.535 27.375 59.195 27.375 59.875 C28.035 59.875 28.695 59.875 29.375 59.875 C29.375 61.195 29.375 62.515 29.375 63.875 C30.035 63.875 30.695 63.875 31.375 63.875 C31.375 65.195 31.375 66.515 31.375 67.875 C32.035 67.875 32.695 67.875 33.375 67.875 C33.375 68.535 33.375 69.195 33.375 69.875 C34.035 69.875 34.695 69.875 35.375 69.875 C35.375 71.195 35.375 72.515 35.375 73.875 C36.035 73.875 36.695 73.875 37.375 73.875 C37.375 74.535 37.375 75.195 37.375 75.875 C38.035 75.875 38.695 75.875 39.375 75.875 C39.375 77.195 39.375 78.515 39.375 79.875 C40.035 79.875 40.695 79.875 41.375 79.875 C41.375 81.195 41.375 82.515 41.375 83.875 C42.035 83.875 42.695 83.875 43.375 83.875 C43.375 85.195 43.375 86.515 43.375 87.875 C44.035 87.875 44.695 87.875 45.375 87.875 C45.375 88.535 45.375 89.195 45.375 89.875 C46.035 89.875 46.695 89.875 47.375 89.875 C47.375 90.535 47.375 91.195 47.375 91.875 C48.035 91.875 48.695 91.875 49.375 91.875 C49.375 93.195 49.375 94.515 49.375 95.875 C50.035 95.875 50.695 95.875 51.375 95.875 C51.375 96.535 51.375 97.195 51.375 97.875 C52.035 97.875 52.695 97.875 53.375 97.875 C53.375 99.195 53.375 100.515 53.375 101.875 C54.035 101.875 54.695 101.875 55.375 101.875 C55.375 102.535 55.375 103.195 55.375 103.875 C56.035 103.875 56.695 103.875 57.375 103.875 C57.375 105.195 57.375 106.515 57.375 107.875 C58.035 107.875 58.695 107.875 59.375 107.875 C59.375 108.535 59.375 109.195 59.375 109.875 C60.035 109.875 60.695 109.875 61.375 109.875 C61.375 110.535 61.375 111.195 61.375 111.875 C62.035 111.875 62.695 111.875 63.375 111.875 C63.375 112.535 63.375 113.195 63.375 113.875 C64.035 113.875 64.695 113.875 65.375 113.875 C65.375 115.195 65.375 116.515 65.375 117.875 C66.035 117.875 66.695 117.875 67.375 117.875 C67.375 118.535 67.375 119.195 67.375 119.875 C68.035 119.875 68.695 119.875 69.375 119.875 C69.375 120.535 69.375 121.195 69.375 121.875 C70.035 121.875 70.695 121.875 71.375 121.875 C71.375 123.195 71.375 124.515 71.375 125.875 C72.035 125.875 72.695 125.875 73.375 125.875 C73.375 126.535 73.375 127.195 73.375 127.875 C74.035 127.875 74.695 127.875 75.375 127.875 C75.375 128.535 75.375 129.195 75.375 129.875 C76.035 129.875 76.695 129.875 77.375 129.875 C77.375 130.535 77.375 131.195 77.375 131.875 C78.035 131.875 78.695 131.875 79.375 131.875 C79.375 132.535 79.375 133.195 79.375 133.875 C84.655 133.875 89.935 133.875 95.375 133.875 C95.375 133.215 95.375 132.555 95.375 131.875 C96.035 131.875 96.695 131.875 97.375 131.875 C97.375 131.215 97.375 130.555 97.375 129.875 C98.035 129.875 98.695 129.875 99.375 129.875 C99.375 129.215 99.375 128.555 99.375 127.875 C100.035 127.875 100.695 127.875 101.375 127.875 C101.375 127.215 101.375 126.555 101.375 125.875 C102.035 125.875 102.695 125.875 103.375 125.875 C103.375 124.555 103.375 123.235 103.375 121.875 C104.035 121.875 104.695 121.875 105.375 121.875 C105.375 121.215 105.375 120.555 105.375 119.875 C106.035 119.875 106.695 119.875 107.375 119.875 C107.375 119.215 107.375 118.555 107.375 117.875 C108.035 117.875 108.695 117.875 109.375 117.875 C109.375 116.555 109.375 115.235 109.375 113.875 C110.035 113.875 110.695 113.875 111.375 113.875 C111.375 113.215 111.375 112.555 111.375 111.875 C112.035 111.875 112.695 111.875 113.375 111.875 C113.375 111.215 113.375 110.555 113.375 109.875 C114.035 109.875 114.695 109.875 115.375 109.875 C115.375 109.215 115.375 108.555 115.375 107.875 C116.035 107.875 116.695 107.875 117.375 107.875 C117.375 106.555 117.375 105.235 117.375 103.875 C118.035 103.875 118.695 103.875 119.375 103.875 C119.375 103.215 119.375 102.555 119.375 101.875 C120.035 101.875 120.695 101.875 121.375 101.875 C121.375 100.555 121.375 99.235 121.375 97.875 C122.035 97.875 122.695 97.875 123.375 97.875 C123.375 97.215 123.375 96.555 123.375 95.875 C124.035 95.875 124.695 95.875 125.375 95.875 C125.375 94.555 125.375 93.235 125.375 91.875 C126.035 91.875 126.695 91.875 127.375 91.875 C127.375 91.215 127.375 90.555 127.375 89.875 C128.035 89.875 128.695 89.875 129.375 89.875 C129.375 89.215 129.375 88.555 129.375 87.875 C130.035 87.875 130.695 87.875 131.375 87.875 C131.375 86.555 131.375 85.235 131.375 83.875 C132.035 83.875 132.695 83.875 133.375 83.875 C133.375 82.555 133.375 81.235 133.375 79.875 C134.035 79.875 134.695 79.875 135.375 79.875 C135.375 79.215 135.375 78.555 135.375 77.875 C136.035 77.875 136.695 77.875 137.375 77.875 C137.375 76.555 137.375 75.235 137.375 73.875 C138.035 73.875 138.695 73.875 139.375 73.875 C139.375 72.555 139.375 71.235 139.375 69.875 C140.035 69.875 140.695 69.875 141.375 69.875 C141.375 69.215 141.375 68.555 141.375 67.875 C142.035 67.875 142.695 67.875 143.375 67.875 C143.375 66.555 143.375 65.235 143.375 63.875 C144.035 63.875 144.695 63.875 145.375 63.875 C145.375 63.215 145.375 62.555 145.375 61.875 C146.035 61.875 146.695 61.875 147.375 61.875 C147.375 60.555 147.375 59.235 147.375 57.875 C148.035 57.875 148.695 57.875 149.375 57.875 C149.375 56.555 149.375 55.235 149.375 53.875 C150.035 53.875 150.695 53.875 151.375 53.875 C151.375 52.555 151.375 51.235 151.375 49.875 C152.035 49.875 152.695 49.875 153.375 49.875 C153.375 48.555 153.375 47.235 153.375 45.875 C154.035 45.875 154.695 45.875 155.375 45.875 C155.375 44.555 155.375 43.235 155.375 41.875 C156.035 41.875 156.695 41.875 157.375 41.875 C157.375 41.215 157.375 40.555 157.375 39.875 C158.035 39.875 158.695 39.875 159.375 39.875 C159.375 38.555 159.375 37.235 159.375 35.875 C160.035 35.875 160.695 35.875 161.375 35.875 C161.375 33.895 161.375 31.915 161.375 29.875 C162.035 29.875 162.695 29.875 163.375 29.875 C163.375 28.555 163.375 27.235 163.375 25.875 C164.035 25.875 164.695 25.875 165.375 25.875 C165.375 24.555 165.375 23.235 165.375 21.875 C166.035 21.875 166.695 21.875 167.375 21.875 C167.375 20.555 167.375 19.235 167.375 17.875 C168.035 17.875 168.695 17.875 169.375 17.875 C169.375 15.895 169.375 13.915 169.375 11.875 C170.035 11.875 170.695 11.875 171.375 11.875 C171.375 10.555 171.375 9.235 171.375 7.875 C172.035 7.875 172.695 7.875 173.375 7.875 C173.375 6.555 173.375 5.235 173.375 3.875 C174.035 3.875 174.695 3.875 175.375 3.875 C175.705 2.555 176.035 1.235 176.375 -0.125 C201.455 -0.125 226.535 -0.125 252.375 -0.125 C253.375 3.875 253.375 3.875 251.9609375 6.2578125 C250.86652344 7.61519531 250.86652344 7.61519531 249.75 9 C248.90682575 10.07132332 248.06581083 11.14434844 247.2265625 12.21875 C246.76668945 12.80269531 246.30681641 13.38664063 245.83300781 13.98828125 C243.17523026 17.42754865 240.65821346 20.96856576 238.125 24.5 C237.00401941 26.05607111 235.88292421 27.61205966 234.76171875 29.16796875 C233.63271614 30.73690983 232.50380895 32.30591958 231.375 33.875 C224.10731344 43.97470612 216.79621736 54.03849193 209.39916992 64.04394531 C205.56327238 69.23996473 201.79094533 74.47604799 198.05737305 79.74584961 C194.94687647 84.11778661 191.73562926 88.4076166 188.5 92.6875 C183.87776732 98.80568211 179.41723663 105.01960648 175.02050781 111.30126953 C170.60037692 117.59873701 166.04323387 123.78939862 161.46557617 129.97290039 C152.8123033 140.92465809 152.8123033 140.92465809 145.46952707 152.67591959 C144.29117824 154.80336031 143.21640004 156.27382862 141.375 157.875 C137.58316784 158.93109895 133.86944719 158.81377592 129.95402527 158.75474548 C128.20189845 158.76984227 128.20189845 158.76984227 126.41437513 158.78524405 C123.17558443 158.80612056 119.93863591 158.7956671 116.69991982 158.77200234 C113.20636311 158.75410191 109.71303878 158.77656848 106.21951294 158.79412842 C100.16804 158.8190227 94.11700307 158.81835065 88.0655117 158.80030632 C79.31616984 158.77425452 70.56721747 158.78677165 61.81787983 158.80869765 C47.62276031 158.84322367 33.42781154 158.84656454 19.23266602 158.83032227 C5.44356037 158.81461131 -8.34541771 158.8135698 -22.13452148 158.83227539 C-22.98450161 158.83342332 -23.83448173 158.83457125 -24.71021882 158.83575397 C-28.97432632 158.84160337 -33.23843335 158.84774137 -37.50254023 158.85402286 C-72.87673623 158.9057595 -108.25078431 158.90689771 -143.625 158.875 C-143.30959639 157.11188613 -142.9927617 155.34902822 -142.67532158 153.58627987 C-142.49903752 152.60456119 -142.32275347 151.62284252 -142.14112747 150.6113748 C-141.56833111 147.57455613 -140.85215695 144.61122541 -140.02783203 141.63305664 C-139.72592453 140.533013 -139.42401703 139.43296936 -139.11296082 138.29959106 C-138.6277874 136.55994583 -138.6277874 136.55994583 -138.1328125 134.78515625 C-137.60852154 132.8820462 -137.084231 130.97893604 -136.55995846 129.07582092 C-136.00646002 127.07021139 -135.45061312 125.06526703 -134.89401245 123.06051636 C-133.73594865 118.88936715 -132.58431635 114.71645972 -131.43383789 110.54321289 C-130.27021767 106.32330987 -129.10626794 102.10350016 -127.9400177 97.88432312 C-124.86722951 86.76709441 -121.82441814 75.64187729 -118.7975769 64.51205444 C-118.06961235 61.83861996 -117.33910075 59.16589518 -116.60766602 56.4934082 C-114.66360384 49.38709864 -112.72336531 42.28063976 -110.85099792 35.15504456 C-110.30519969 33.08085713 -109.75422871 31.00811874 -109.20141602 28.93579102 C-108.55551568 26.50818244 -107.91950216 24.07790622 -107.29663086 21.64428711 C-105.24491412 13.98856646 -102.89965149 7.53565434 -96.625 2.4375 C-91.32690675 -0.32192357 -86.16321182 -0.28660487 -80.28637695 -0.33032227 C-79.04652039 -0.34517166 -79.04652039 -0.34517166 -77.78161621 -0.36032104 C-75.05886666 -0.39181918 -72.33609976 -0.41665084 -69.61328125 -0.44140625 C-67.71949321 -0.46198955 -65.82570961 -0.48298638 -63.93193054 -0.50437927 C-58.9531519 -0.55949776 -53.9743324 -0.6089444 -48.9954834 -0.65722656 C-43.92077967 -0.70746514 -38.84613623 -0.7631692 -33.77148438 -0.81835938 C-26.37283037 -0.89810894 -18.97415938 -0.97567839 -11.57543945 -1.04907227 C-10.79567245 -1.05685196 -10.01590546 -1.06463165 -9.21250916 -1.07264709 C-1.65639955 -1.14673815 -1.65639955 -1.14673815 0 0 Z " fill="#78B730" transform="translate(168.625,212.125)"/>
<path d="M0 0 C0.99 0 1.98 0 3 0 C6.28884275 10.379208 9.20681444 20.84119633 12.0703125 31.34375 C12.55614126 33.11987713 13.04213758 34.89595844 13.52828979 36.67199707 C14.5464731 40.3932968 15.56333351 44.11495435 16.57910156 47.83691406 C17.84785624 52.48584875 19.11878903 57.13418385 20.39061546 61.78227901 C25.57806422 80.74153018 30.7377872 99.70799719 35.85662842 118.68588448 C39.56414247 132.4274232 43.33622276 146.15030446 47.13769531 159.86618042 C48.1644238 163.58010539 49.18459388 167.2957819 50.203125 171.01196289 C54.37896944 186.26043584 54.37896944 186.26043584 58.8046875 201.4375 C63.59429925 217.54831234 65.06552632 232.19337147 64 249 C63.34 249 62.68 249 62 249 C62 249.66 62 250.32 62 251 C57.67675763 254.00225164 54.04620692 255.1258242 48.83772659 255.12304783 C48.01116444 255.12503888 47.18460228 255.12702993 46.33299279 255.12908131 C45.43027131 255.12616847 44.52754982 255.12325563 43.59747314 255.12025452 C42.63442064 255.12110894 41.67136814 255.12196337 40.67913222 255.12284368 C37.44394698 255.12449412 34.2088133 255.11898419 30.97363281 255.11352539 C28.65780132 255.1132434 26.34196974 255.11340149 24.02613831 255.1139679 C17.73111359 255.1142554 11.43610783 255.10836617 5.14108753 255.10139394 C-1.43460685 255.09515267 -8.01030165 255.09455599 -14.58599854 255.09336853 C-25.62553233 255.0907778 -36.66505945 255.08436034 -47.70458984 255.07543945 C-59.07535772 255.06626045 -70.4461237 255.059182 -81.81689453 255.05493164 C-82.5177876 255.05466892 -83.21868066 255.05440619 -83.94081292 255.05413551 C-87.45698711 255.05283047 -90.97316132 255.05156676 -94.48933554 255.05032361 C-123.65956156 255.03995688 -152.82978069 255.02226935 -182 255 C-182.09774507 251.21983085 -182.03620193 249.42524339 -179.61328125 246.4609375 C-179.09354736 245.80770508 -178.57381348 245.15447266 -178.03833008 244.48144531 C-177.18404419 243.43875488 -177.18404419 243.43875488 -176.3125 242.375 C-171.37991508 236.15911331 -166.73605277 229.83800249 -162.3125 223.25 C-157.9374968 216.76247856 -153.4089612 210.5119416 -148.58203125 204.3515625 C-143.75863959 198.15247857 -139.25046856 191.71197403 -134.67333984 185.33056641 C-131.95723958 181.54768151 -129.22817491 177.77418103 -126.5 174 C-123.25857842 169.51397374 -120.0185803 165.02695148 -116.78515625 160.53515625 C-111.17096822 152.74084153 -105.52114617 144.975464 -99.8125 137.25 C-94.99713071 130.73277127 -90.24135527 124.17886685 -85.546875 117.57421875 C-80.96009787 111.12474489 -76.30666647 104.72292607 -71.66894531 98.31005859 C-70.03481701 96.04819171 -68.4036287 93.78423692 -66.7734375 91.51953125 C-60.64502803 83.01007941 -54.46380502 74.54260315 -48.23291016 66.10791016 C-42.09080366 57.78497251 -36.04209317 49.39567785 -30 41 C-21.08090963 28.60664436 -12.09986511 16.26149694 -3 4 C-2.50709473 3.25927246 -2.01418945 2.51854492 -1.50634766 1.75537109 C-1.00925293 1.17609863 -0.5121582 0.59682617 0 0 Z " fill="#117FE0" transform="translate(447,232)"/>
<path d="M0 0 C15.76679904 -0.7971977 15.76679904 -0.7971977 22 4 C26.09787993 7.87637291 27.6117622 12.64687091 29 18 C29 18.66 29 19.32 29 20 C28.3920459 20.26304932 27.7840918 20.52609863 27.15771484 20.79711914 C24.84912732 22.08410836 23.9405314 23.08077741 22.4765625 25.24609375 C21.79219116 26.23984009 21.79219116 26.23984009 21.09399414 27.25366211 C20.60922607 27.97432861 20.12445801 28.69499512 19.625 29.4375 C18.55525882 30.99087513 17.48356928 32.54290992 16.41015625 34.09375 C15.85215332 34.90199219 15.29415039 35.71023437 14.71923828 36.54296875 C11.90698676 40.56206834 8.98581016 44.49881837 6.0625 48.4375 C-0.15355644 56.83434414 -6.28758488 65.28723786 -12.39111328 73.76611328 C-15.09012128 77.51359784 -17.79538884 81.25655845 -20.5 85 C-21.58336304 86.49997854 -22.66669638 87.99997854 -23.75 89.5 C-25.91666667 92.5 -28.08333333 95.5 -30.25 98.5 C-30.78616943 99.24241943 -31.32233887 99.98483887 -31.87475586 100.74975586 C-32.95878416 102.2506555 -34.04293142 103.75146922 -35.12719727 105.25219727 C-37.82587655 108.98773967 -40.52251312 112.72472254 -43.21484375 116.46484375 C-49.34756679 124.97920681 -55.53232789 133.45216202 -61.76708984 141.89208984 C-67.90919634 150.21502749 -73.95790683 158.60432215 -80 167 C-87.269725 177.10151075 -94.58287967 187.16700898 -101.98022461 197.17553711 C-105.76377931 202.30172861 -109.49181415 207.46273479 -113.17700195 212.65991211 C-116.68249688 217.58918166 -120.27580075 222.45138935 -123.875 227.3125 C-128.87374363 234.06546112 -133.77150277 240.87801994 -138.5769043 247.76977539 C-141.10886534 251.38339223 -143.69329676 254.94007067 -146.37890625 258.44140625 C-146.93239746 259.16432861 -147.48588867 259.88725098 -148.05615234 260.63208008 C-149.11489029 262.00660143 -150.18121421 263.37532524 -151.25634766 264.73706055 C-151.73249512 265.35492432 -152.20864258 265.97278809 -152.69921875 266.609375 C-153.12033936 267.14530273 -153.54145996 267.68123047 -153.9753418 268.23339844 C-155.35963432 270.4013639 -155.35963432 270.4013639 -156 275 C-168.21 275 -180.42 275 -193 275 C-193.33 274.01 -193.66 273.02 -194 272 C-192.6875 269.5 -192.6875 269.5 -191 267 C-190.34 266.01 -189.68 265.02 -189 264 C-188.34 264 -187.68 264 -187 264 C-186.9175 263.443125 -186.835 262.88625 -186.75 262.3125 C-185.77538491 259.30743682 -183.99175531 257.42745178 -182 255 C-181.67 254.01 -181.34 253.02 -181 252 C-179.33333333 250.33333333 -177.66666667 248.66666667 -176 247 C-175.67 246.01 -175.34 245.02 -175 244 C-174.01 243.34 -173.02 242.68 -172 242 C-170.98133771 240.34467377 -169.98189187 238.67739862 -169 237 C-168.52691406 236.54496094 -168.05382812 236.08992187 -167.56640625 235.62109375 C-165.74131913 233.73228787 -164.66892706 231.81616375 -163.4375 229.5 C-162.04288632 226.89324546 -160.64408005 224.46612008 -159 222 C-158.34 222 -157.68 222 -157 222 C-156.73703125 221.26394531 -156.4740625 220.52789062 -156.203125 219.76953125 C-154.99463519 216.98765049 -153.65448579 215.03379218 -151.75 212.6875 C-151.13125 211.91277344 -150.5125 211.13804687 -149.875 210.33984375 C-148.946875 209.18162109 -148.946875 209.18162109 -148 208 C-144.73963039 203.7811421 -141.7265684 199.58559232 -139 195 C-137.67618483 193.32576317 -136.34423339 191.65788785 -135 190 C-134.67 189.34 -134.34 188.68 -134 188 C-223.1 188 -312.2 188 -404 188 C-403.16163356 181.29306848 -401.91831303 175.48441416 -400.0625 169.0625 C-399.79759766 168.10537109 -399.53269531 167.14824219 -399.25976562 166.16210938 C-399.00001953 165.25396484 -398.74027344 164.34582031 -398.47265625 163.41015625 C-398.23812744 162.58652588 -398.00359863 161.76289551 -397.76196289 160.91430664 C-397 159 -397 159 -395 158 C-393.45087579 157.91380729 -391.89799873 157.89150949 -390.34650421 157.90044117 C-389.35940476 157.90360051 -388.37230531 157.90675985 -387.35529375 157.91001493 C-386.26291131 157.9185865 -385.17052888 157.92715807 -384.04504395 157.93598938 C-382.31347085 157.9433993 -382.31347085 157.9433993 -380.54691648 157.95095891 C-377.33266422 157.96541665 -374.11846929 157.98424994 -370.90425014 158.00461805 C-367.44123012 158.02534552 -363.97818598 158.0400998 -360.51513672 158.05499268 C-359.06931779 158.06126274 -357.62349889 158.06753907 -356.17768002 158.07382143 C-355.44860561 158.07698045 -354.71953121 158.08013947 -353.96836364 158.08339421 C-351.69780433 158.0934793 -349.42724897 158.10422985 -347.15669346 158.11513484 C-336.10768635 158.16749172 -325.05876003 158.19726205 -314.00964355 158.21342468 C-313.21096408 158.21462288 -312.41228461 158.21582109 -311.58940274 158.2170556 C-304.17025285 158.22803333 -296.75110134 158.23751356 -289.33194828 158.24606192 C-284.24147987 158.25200704 -279.15101312 158.25878372 -274.06054688 158.26635742 C-273.21496639 158.26760465 -272.3693859 158.26885189 -271.49818176 158.27013692 C-257.80867786 158.29173467 -244.11976467 158.3598096 -230.43052107 158.44419823 C-216.37520482 158.52969871 -202.32047313 158.5618794 -188.26490355 158.54560155 C-179.59616401 158.53730336 -170.929663 158.57085954 -162.26135248 158.6583816 C-156.31509263 158.71450197 -150.37017847 158.71901003 -144.42376667 158.6833363 C-140.99427538 158.66429748 -137.56876919 158.667716 -134.13975525 158.73279381 C-121.05619732 159.53714618 -121.05619732 159.53714618 -108.96864891 155.65838599 C-105.72721109 152.50031054 -103.72391454 148.95586151 -101.90162659 144.85049474 C-100.33964871 141.6446977 -98.18697225 138.91874954 -96.0625 136.0625 C-95.60174072 135.41611572 -95.14098145 134.76973145 -94.66625977 134.10375977 C-91.1871362 129.24070958 -87.65017884 124.4212463 -84.10571289 119.60571289 C-81.03525432 115.42835427 -78.00443752 111.22504614 -75 107 C-69.74284062 99.61040599 -64.37595847 92.30340384 -59 85 C-50.93901161 74.04360042 -42.95327226 63.03481561 -35 52 C-27.87413203 42.11317147 -20.7295756 32.24179732 -13.51171875 22.421875 C-10.54373979 18.38278843 -7.59840799 14.32746526 -4.65625 10.26953125 C-3.57898776 8.7933771 -2.45507797 7.34980895 -1.28125 5.94921875 C0.36618542 3.83167477 0.36618542 3.83167477 0 0 Z " fill="#F1F2E5" transform="translate(421,212)"/>
<path d="M0 0 C25.08 0 50.16 0 76 0 C77 4 77 4 75.5859375 6.3828125 C74.85632813 7.28773438 74.12671875 8.19265625 73.375 9.125 C72.53182575 10.19632332 71.69081083 11.26934844 70.8515625 12.34375 C70.39168945 12.92769531 69.93181641 13.51164063 69.45800781 14.11328125 C66.80023026 17.55254865 64.28321346 21.09356576 61.75 24.625 C60.62901941 26.18107111 59.50792421 27.73705966 58.38671875 29.29296875 C57.25771614 30.86190983 56.12880895 32.43091958 55 34 C47.73231344 44.09970612 40.42121736 54.16349193 33.02416992 64.16894531 C29.18827238 69.36496473 25.41594533 74.60104799 21.68237305 79.87084961 C18.57187647 84.24278661 15.36062926 88.5326166 12.125 92.8125 C7.50276732 98.93068211 3.04223663 105.14460648 -1.35449219 111.42626953 C-5.20021208 116.90535975 -9.14251116 122.30715542 -13.125 127.6875 C-23.26988359 140.32439933 -23.26988359 140.32439933 -31.35400391 154.1496582 C-34.44947042 157.48418225 -35.13571648 157.45475805 -39.50292969 157.68115234 C-41.80946297 157.68020281 -44.11613218 157.64632553 -46.421875 157.5859375 C-47.63699768 157.57744781 -48.85212036 157.56895813 -50.10406494 157.56021118 C-53.98694333 157.52661169 -57.86774879 157.45131079 -61.75 157.375 C-64.38148044 157.3449093 -67.01299341 157.31753195 -69.64453125 157.29296875 C-76.09715345 157.22679732 -82.54822524 157.12322195 -89 157 C-89 150.07 -89 143.14 -89 136 C-87.68 136 -86.36 136 -85 136 C-85 135.34 -85 134.68 -85 134 C-83.68 134 -82.36 134 -81 134 C-81 133.34 -81 132.68 -81 132 C-80.34 132 -79.68 132 -79 132 C-79 131.34 -79 130.68 -79 130 C-78.34 130 -77.68 130 -77 130 C-77 129.34 -77 128.68 -77 128 C-76.34 128 -75.68 128 -75 128 C-75 127.34 -75 126.68 -75 126 C-74.34 126 -73.68 126 -73 126 C-73 124.68 -73 123.36 -73 122 C-72.34 122 -71.68 122 -71 122 C-71 121.34 -71 120.68 -71 120 C-70.34 120 -69.68 120 -69 120 C-69 119.34 -69 118.68 -69 118 C-68.34 118 -67.68 118 -67 118 C-67 116.68 -67 115.36 -67 114 C-66.34 114 -65.68 114 -65 114 C-65 113.34 -65 112.68 -65 112 C-64.34 112 -63.68 112 -63 112 C-63 111.34 -63 110.68 -63 110 C-62.34 110 -61.68 110 -61 110 C-61 109.34 -61 108.68 -61 108 C-60.34 108 -59.68 108 -59 108 C-59 106.68 -59 105.36 -59 104 C-58.34 104 -57.68 104 -57 104 C-57 103.34 -57 102.68 -57 102 C-56.34 102 -55.68 102 -55 102 C-55 100.68 -55 99.36 -55 98 C-54.34 98 -53.68 98 -53 98 C-53 97.34 -53 96.68 -53 96 C-52.34 96 -51.68 96 -51 96 C-51 94.68 -51 93.36 -51 92 C-50.34 92 -49.68 92 -49 92 C-49 91.34 -49 90.68 -49 90 C-48.34 90 -47.68 90 -47 90 C-47 89.34 -47 88.68 -47 88 C-46.34 88 -45.68 88 -45 88 C-45 86.68 -45 85.36 -45 84 C-44.34 84 -43.68 84 -43 84 C-43 82.68 -43 81.36 -43 80 C-42.34 80 -41.68 80 -41 80 C-41 79.34 -41 78.68 -41 78 C-40.34 78 -39.68 78 -39 78 C-39 76.68 -39 75.36 -39 74 C-38.34 74 -37.68 74 -37 74 C-37 72.68 -37 71.36 -37 70 C-36.34 70 -35.68 70 -35 70 C-35 69.34 -35 68.68 -35 68 C-34.34 68 -33.68 68 -33 68 C-33 66.68 -33 65.36 -33 64 C-32.34 64 -31.68 64 -31 64 C-31 63.34 -31 62.68 -31 62 C-30.34 62 -29.68 62 -29 62 C-29 60.68 -29 59.36 -29 58 C-28.34 58 -27.68 58 -27 58 C-27 56.68 -27 55.36 -27 54 C-26.34 54 -25.68 54 -25 54 C-25 52.68 -25 51.36 -25 50 C-24.34 50 -23.68 50 -23 50 C-23 48.68 -23 47.36 -23 46 C-22.34 46 -21.68 46 -21 46 C-21 44.68 -21 43.36 -21 42 C-20.34 42 -19.68 42 -19 42 C-19 41.34 -19 40.68 -19 40 C-18.34 40 -17.68 40 -17 40 C-17 38.68 -17 37.36 -17 36 C-16.34 36 -15.68 36 -15 36 C-15 34.02 -15 32.04 -15 30 C-14.34 30 -13.68 30 -13 30 C-13 28.68 -13 27.36 -13 26 C-12.34 26 -11.68 26 -11 26 C-11 24.68 -11 23.36 -11 22 C-10.34 22 -9.68 22 -9 22 C-9 20.68 -9 19.36 -9 18 C-8.34 18 -7.68 18 -7 18 C-7 16.02 -7 14.04 -7 12 C-6.34 12 -5.68 12 -5 12 C-5 10.68 -5 9.36 -5 8 C-4.34 8 -3.68 8 -3 8 C-3 6.68 -3 5.36 -3 4 C-2.34 4 -1.68 4 -1 4 C-0.67 2.68 -0.34 1.36 0 0 Z " fill="#51AF3E" transform="translate(345,212)"/>
<path d="M0 0 C0.94092589 0.00322913 1.88185179 0.00645826 2.85129058 0.00978523 C6.02361178 0.02190834 9.19584842 0.04127114 12.36813354 0.06056213 C14.63440769 0.07069984 16.90068386 0.08039406 19.16696167 0.0896759 C25.33609571 0.11620781 31.505183 0.14897686 37.67428064 0.1828258 C44.11517358 0.21711855 50.55609162 0.24573056 56.99700928 0.27493286 C67.81311817 0.32474231 78.62920366 0.3780771 89.44528198 0.43409729 C100.58719844 0.49179549 111.72912212 0.54738046 122.87106323 0.60011292 C123.55754677 0.60336263 124.2440303 0.60661235 124.95131637 0.60996055 C128.39511133 0.62624993 131.83890648 0.64249766 135.28270173 0.65872467 C163.86443478 0.79345445 192.44612665 0.93577003 221.02780151 1.08229065 C221.02780151 9.99229065 221.02780151 18.90229065 221.02780151 28.08229065 C231.58780151 28.08229065 242.14780151 28.08229065 253.02780151 28.08229065 C253.02780151 28.41229065 253.02780151 28.74229065 253.02780151 29.08229065 C218.79284757 29.15089837 184.55790926 29.20378969 150.32290146 29.23548664 C146.28475606 29.23923893 142.24661078 29.24312188 138.20846558 29.24708557 C137.40451482 29.2478725 136.60056407 29.24865943 135.77225117 29.24947021 C122.74029722 29.26253814 109.70838282 29.28619958 96.67645235 29.31374904 C83.31291852 29.34176471 69.94940544 29.35845876 56.58584344 29.36455613 C48.3341672 29.36868057 40.08260271 29.38172544 31.83096085 29.40604005 C26.17900486 29.42184993 20.52710696 29.42670184 14.87513043 29.42279478 C11.61006519 29.42086577 8.34523817 29.42552318 5.08019829 29.43990707 C1.54683655 29.45471663 -1.9860374 29.45128646 -5.51940918 29.4430542 C-7.08066829 29.45616199 -7.08066829 29.45616199 -8.67346799 29.46953458 C-10.08499125 29.46057486 -10.08499125 29.46057486 -11.52503014 29.45143414 C-12.34142885 29.4525733 -13.15782756 29.45371246 -13.99896562 29.45488614 C-14.65013247 29.33192963 -15.30129931 29.20897312 -15.97219849 29.08229065 C-17.97219849 26.08229065 -17.97219849 26.08229065 -17.58840942 23.46266174 C-17.29740356 22.43737366 -17.00639771 21.41208557 -16.70657349 20.35572815 C-16.23671021 18.68510315 -16.23671021 18.68510315 -15.75735474 16.98072815 C-15.24495239 15.23662659 -15.24495239 15.23662659 -14.72219849 13.45729065 C-14.39606567 12.2868219 -14.06993286 11.11635315 -13.73391724 9.91041565 C-11.90241119 3.51868198 -11.90241119 3.51868198 -10.97219849 1.08229065 C-7.58273474 -0.61244122 -3.72689724 -0.02852012 0 0 Z " fill="#FEFEEF" transform="translate(34.972198486328125,369.91770935058594)"/>
<path d="M0 0 C0.77472656 0.44988281 1.54945313 0.89976563 2.34765625 1.36328125 C2.96769531 1.72035156 3.58773437 2.07742187 4.2265625 2.4453125 C5.65128518 3.34156662 7.00504935 4.34813945 8.34765625 5.36328125 C9.58515625 6.22953125 9.58515625 6.22953125 10.84765625 7.11328125 C18.66043288 14.14478022 24.91795667 25.15754987 25.55078125 35.76953125 C25.79583313 48.39900871 24.25547698 58.1181736 16.34765625 68.36328125 C15.90679687 68.97945313 15.4659375 69.595625 15.01171875 70.23046875 C8.38421989 78.85004819 -1.92373387 84.22214422 -12.5625 85.79296875 C-27.66013915 87.35808431 -27.66013915 87.35808431 -33.65234375 83.36328125 C-34.64234375 83.15703125 -35.63234375 82.95078125 -36.65234375 82.73828125 C-45.91023639 80.20805212 -53.79980386 72.3845562 -58.65234375 64.36328125 C-60.22402819 61.09635227 -61.50010262 57.79816119 -62.65234375 54.36328125 C-63.00941406 53.42097656 -63.36648437 52.47867188 -63.734375 51.5078125 C-66.65936784 41.48815618 -65.00028968 30.69726757 -60.65234375 21.36328125 C-58.58984375 18.42578125 -58.58984375 18.42578125 -56.65234375 16.36328125 C-56.21921875 15.57953125 -55.78609375 14.79578125 -55.33984375 13.98828125 C-44.03303103 -3.6000941 -18.35442045 -9.16430275 0 0 Z " fill="#F3F1E5" transform="translate(275.65234375,91.63671875)"/>
<path d="M0 0 C0 28.71 0 57.42 0 87 C-12.70760462 87 -18.37185969 86.06063623 -28 79 C-29.485 77.9171875 -29.485 77.9171875 -31 76.8125 C-38.01694151 70.7691132 -41.24542713 62.61686897 -44 54 C-44.495 52.515 -44.495 52.515 -45 51 C-45.80692959 40.32471838 -45.2976676 30.12092053 -38.9375 21.0625 C-37.9784375 20.0415625 -37.9784375 20.0415625 -37 19 C-36.566875 18.21625 -36.13375 17.4325 -35.6875 16.625 C-30.83445617 9.07582071 -24.61432867 4.40324509 -15.90234375 2.47265625 C-13.86239809 2.02901642 -13.86239809 2.02901642 -11.5625 0.875 C-9 0 -9 0 0 0 Z " fill="#FEFDF0" transform="translate(256,89)"/>
<path d="M0 0 C0.33 0.66 0.66 1.32 1 2 C77.56 2 154.12 2 233 2 C233 2.66 233 3.32 233 4 C230.24076602 4.7781325 227.7950629 5.12461437 224.93143082 5.12304783 C224.12576904 5.12503888 223.32010725 5.12702993 222.49003148 5.12908131 C221.61065569 5.12616847 220.73127989 5.12325563 219.82525635 5.12025452 C218.88670516 5.12110894 217.94815397 5.12196337 216.98116183 5.12284368 C213.8288933 5.12449387 210.67667771 5.11898461 207.52441406 5.11352539 C205.26769512 5.11324339 203.01097609 5.1134015 200.7542572 5.1139679 C194.62038416 5.11425538 188.48653059 5.1083665 182.35266209 5.10139394 C175.94513103 5.09515231 169.53759955 5.09455596 163.13006592 5.09336853 C152.3730021 5.09061129 141.61594681 5.08436059 130.85888672 5.07543945 C119.77913448 5.06626026 108.69938418 5.0591819 97.61962891 5.05493164 C96.59517227 5.05453756 96.59517227 5.05453756 95.55001953 5.05413551 C92.12374977 5.05283047 88.69747998 5.05156676 85.27121019 5.05032361 C56.84746854 5.03995712 28.42373465 5.02226979 0 5 C0 3.35 0 1.7 0 0 Z " fill="#2990EF" transform="translate(265,482)"/>
<path d="M0 0 C9.9 0 19.8 0 30 0 C28.91396592 4.34413633 28.06939476 5.02088156 25 8 C23.99608326 9.66431035 22.99692264 11.33149078 22 13 C20.39320838 15.34071027 18.72807148 17.63836789 17.0625 19.9375 C16.19826949 21.13342918 15.33497828 22.33003774 14.47265625 23.52734375 C14.0564502 24.10339355 13.64024414 24.67944336 13.21142578 25.27294922 C12.02379789 26.9660729 10.91542307 28.69477934 9.80859375 30.44140625 C8.91333984 31.70791016 8.91333984 31.70791016 8 33 C7.34 33 6.68 33 6 33 C5.7525 33.7425 5.505 34.485 5.25 35.25 C4 38 4 38 0 42 C0 28.14 0 14.28 0 0 Z " fill="#F69C06" transform="translate(256,401)"/>
<path d="M0 0 C70.29 0 140.58 0 213 0 C213.33 0.99 213.66 1.98 214 3 C143.38 3 72.76 3 0 3 C0 2.01 0 1.02 0 0 Z " fill="#FDCC18" transform="translate(14,484)"/>
<path d="M0 0 C0 11.55 0 23.1 0 35 C-2.64 35 -5.28 35 -8 35 C-8 35.66 -8 36.32 -8 37 C-6.68 37.33 -5.36 37.66 -4 38 C-11.92 38 -19.84 38 -28 38 C-28.495 36.515 -28.495 36.515 -29 35 C-27.6875 32.5 -27.6875 32.5 -26 30 C-25.34 29.01 -24.68 28.02 -24 27 C-23.34 27 -22.68 27 -22 27 C-21.9175 26.443125 -21.835 25.88625 -21.75 25.3125 C-20.77538491 22.30743682 -18.99175531 20.42745178 -17 18 C-16.67 17.01 -16.34 16.02 -16 15 C-13.5 12.5 -13.5 12.5 -11 10 C-10.67 9.01 -10.34 8.02 -10 7 C-7.67098097 4.33826397 -3.82918582 0 0 0 Z " fill="#FDFDEC" transform="translate(256,449)"/>
<path d="M0 0 C0.33 0.66 0.66 1.32 1 2 C0.34 3.32 -0.32 4.64 -1 6 C-94.39 5.67 -187.78 5.34 -284 5 C-284 4.67 -284 4.34 -284 4 C-283.404056 3.99902319 -282.80811199 3.99804638 -282.19410908 3.99703997 C-246.90493526 3.93881851 -211.61582742 3.86506023 -176.32673044 3.77101372 C-172.09330887 3.75974501 -167.85988697 3.74860665 -163.62646484 3.73754883 C-162.7836361 3.73534514 -161.94080735 3.73314146 -161.07243834 3.730871 C-147.4100287 3.69546 -133.74761911 3.67061737 -120.08518054 3.64965298 C-106.07524029 3.62792115 -92.0653598 3.59489581 -78.05547035 3.55129844 C-69.40460786 3.52473644 -60.75381988 3.50707463 -52.10291861 3.50065396 C-46.17760489 3.49541393 -40.25238509 3.47924391 -34.32712163 3.45433434 C-30.9041276 3.4402715 -27.48130187 3.43116619 -24.05827713 3.43499184 C-20.35409139 3.43662934 -16.65043333 3.42007592 -12.94631958 3.39872742 C-11.30918698 3.40599878 -11.30918698 3.40599878 -9.63898098 3.41341704 C-8.65268134 3.4039605 -7.66638169 3.39450396 -6.65019417 3.38476086 C-5.79430454 3.38286225 -4.93841492 3.38096365 -4.05658925 3.37900752 C-3.37791479 3.25393504 -2.69924034 3.12886256 -2 3 C-1.34 2.01 -0.68 1.02 0 0 Z " fill="#E7F7D0" transform="translate(312,366)"/>
<path d="M0 0 C0.66 0 1.32 0 2 0 C2 0.66 2 1.32 2 2 C95.06 2 188.12 2 284 2 C284 2.33 284 2.66 284 3 C189.95 3.33 95.9 3.66 -1 4 C-0.67 2.68 -0.34 1.36 0 0 Z " fill="#AAD77D" transform="translate(26,367)"/>
<path d="M0 0 C0.495 1.485 0.495 1.485 1 3 C-28.37 3 -57.74 3 -88 3 C-87.67 2.34 -87.34 1.68 -87 1 C-75.95191927 0.86947822 -64.90383707 0.73908229 -53.85575294 0.60884857 C-48.72610018 0.54837675 -43.59644795 0.487861 -38.46679688 0.42724609 C-33.51960748 0.36878886 -28.57241675 0.3104454 -23.62522507 0.25218201 C-21.73452074 0.22989484 -19.8438169 0.20756614 -17.95311356 0.18519592 C-15.31200536 0.15395412 -12.67089549 0.12285782 -10.02978516 0.09179688 C-8.84835182 0.07777077 -8.84835182 0.07777077 -7.64305115 0.0634613 C-2.22810432 0 -2.22810432 0 0 0 Z " fill="#3C5820" transform="translate(167,211)"/>
<path d="M0 0 C0.99 0 1.98 0 3 0 C5.45600648 7.60646666 7.64741104 15.11583017 9 23 C7.68 22.67 6.36 22.34 5 22 C3.4087311 17.126739 2.78807779 13.19209404 3 8 C2.34 8 1.68 8 1 8 C1 7.34 1 6.68 1 6 C-3.14670039 8.37629089 -3.14670039 8.37629089 -6 12 C-6.66 11.67 -7.32 11.34 -8 11 C-6.74131097 9.15830774 -5.46766474 7.32682969 -4.1875 5.5 C-3.47980469 4.4790625 -2.77210938 3.458125 -2.04296875 2.40625 C-1.36878906 1.6121875 -0.69460938 0.818125 0 0 Z " fill="#2F8BE2" transform="translate(447,232)"/>
<path d="M0 0 C1.32 0.33 2.64 0.66 4 1 C3.360625 1.721875 2.72125 2.44375 2.0625 3.1875 C-0.0237323 6.03236223 -0.45817933 7.60649159 -1 11 C-3.08326131 11.02709444 -5.16662441 11.04643873 -7.25 11.0625 C-8.99023438 11.07990234 -8.99023438 11.07990234 -10.765625 11.09765625 C-13.40977128 11.01782092 -15.49826091 10.78643778 -18 10 C-18 9.34 -18 8.68 -18 8 C-14.7 8 -11.4 8 -8 8 C-8 6.68 -8 5.36 -8 4 C-6.68 4 -5.36 4 -4 4 C-4 4.66 -4 5.32 -4 6 C-4.66 6 -5.32 6 -6 6 C-6 6.66 -6 7.32 -6 8 C-4.68 8 -3.36 8 -2 8 C-2 6.68 -2 5.36 -2 4 C-1.34 4 -0.68 4 0 4 C0 2.68 0 1.36 0 0 Z " fill="#EBF4EE" transform="translate(266,476)"/>
<path d="M0 0 C0.99 0.33 1.98 0.66 3 1 C3 3.31 3 5.62 3 8 C2.34 8 1.68 8 1 8 C1 8.66 1 9.32 1 10 C-0.98 10 -2.96 10 -5 10 C-5 10.66 -5 11.32 -5 12 C-6.32 12 -7.64 12 -9 12 C-7.34406255 8.41213553 -5.37162309 5.16216412 -3 2 C-2.01 2 -1.02 2 0 2 C0 1.34 0 0.68 0 0 Z " fill="#137EDC" transform="translate(441,242)"/>
<path d="M0 0 C0.99 0 1.98 0 3 0 C3 7.92 3 15.84 3 24 C2.67 23.01 2.34 22.02 2 21 C1.34 21 0.68 21 0 21 C0 14.07 0 7.14 0 0 Z " fill="#ED514A" transform="translate(360,122)"/>
<path d="M0 0 C0.99 0 1.98 0 3 0 C2.34 1.65 1.68 3.3 1 5 C-17.15 5 -35.3 5 -54 5 C-54 4.67 -54 4.34 -54 4 C-36.18 4 -18.36 4 0 4 C0 2.68 0 1.36 0 0 Z " fill="#63A852" transform="translate(310,364)"/>
<path d="M0 0 C-7.11389522 11.70615034 -7.11389522 11.70615034 -12 16 C-12 14.68 -12 13.36 -12 12 C-11.34 12 -10.68 12 -10 12 C-10.04125 11.278125 -10.0825 10.55625 -10.125 9.8125 C-9.98786552 6.72697424 -9.40704175 4.74002866 -8 2 C-4.77208445 -0.1519437 -3.71599191 -0.20086443 0 0 Z " fill="#E2EEEA" transform="translate(360,352)"/>
<path d="M0 0 C0.33 0.99 0.66 1.98 1 3 C0.67 3.66 0.34 4.32 0 5 C0.85464844 5.12117188 1.70929688 5.24234375 2.58984375 5.3671875 C3.69457031 5.53476562 4.79929688 5.70234375 5.9375 5.875 C7.59072266 6.11863281 7.59072266 6.11863281 9.27734375 6.3671875 C10.17582031 6.57601563 11.07429687 6.78484375 12 7 C12.33 7.66 12.66 8.32 13 9 C7.72 9 2.44 9 -3 9 C-3.33 8.01 -3.66 7.02 -4 6 C-2.84338843 3.79192337 -1.77322566 1.77322566 0 0 Z " fill="#FFF5DD" transform="translate(231,478)"/>
<path d="M0 0 C0.99 0 1.98 0 3 0 C3 0.99 3 1.98 3 3 C3.66 3 4.32 3 5 3 C5 3.66 5 4.32 5 5 C4.34 5 3.68 5 3 5 C2.67 7.31 2.34 9.62 2 12 C0.68 12 -0.64 12 -2 12 C-3.40907283 9.18185434 -2.50872691 7.82722796 -1.5625 4.875 C-1.27503906 3.96492188 -0.98757812 3.05484375 -0.69140625 2.1171875 C-0.46324219 1.41851562 -0.23507812 0.71984375 0 0 Z " fill="#FABB11" transform="translate(7,433)"/>
<path d="M0 0 C0.66 0.99 1.32 1.98 2 3 C1.01 3.495 1.01 3.495 0 4 C-0.25719817 6.02543556 -0.50842122 8.05350224 -0.65625 10.08984375 C-1 12 -1 12 -3 14 C-3.46659731 16.72469786 -3.83599254 19.38179802 -4.125 22.125 C-4.21136719 22.87910156 -4.29773438 23.63320312 -4.38671875 24.41015625 C-4.59889261 26.27257127 -4.80045763 28.13618931 -5 30 C-5.33 30 -5.66 30 -6 30 C-6.53299877 19.16235833 -6.24233096 9.36349645 0 0 Z " fill="#FBD1C2" transform="translate(217,110)"/>
<path d="M0 0 C0.66 0 1.32 0 2 0 C1.54020956 5.14965289 0.63444414 9.38182595 -1.30078125 14.16796875 C-2.15507789 16.40632139 -2.63066957 18.63628522 -3 21 C-5.71493207 16.66831063 -4.69715843 13.50303821 -3.71484375 8.70703125 C-2.85575361 5.45375547 -1.71414951 2.88288782 0 0 Z " fill="#85C33B" transform="translate(57,255)"/>
<path d="M0 0 C3.24961394 5.84930509 3.12793379 11.4753767 3 18 C2.01 17.67 1.02 17.34 0 17 C-1.11582647 11.69982429 -1.34568689 6.39881588 -1 1 C-0.67 0.67 -0.34 0.34 0 0 Z " fill="#EF4C41" transform="translate(151,143)"/>
<path d="M0 0 C0.66 0 1.32 0 2 0 C1.66666667 2.33333333 1.33333333 4.66666667 1 7 C0.7834375 8.794375 0.7834375 8.794375 0.5625 10.625 C0.04994182 13.70034908 -0.71561609 16.1743554 -2 19 C-4.20842803 15.68735796 -4.19725756 15.16548604 -3.6875 11.4375 C-3.53861328 10.25994141 -3.53861328 10.25994141 -3.38671875 9.05859375 C-3 7 -3 7 -2 5 C-1.34 5 -0.68 5 0 5 C0 3.35 0 1.7 0 0 Z " fill="#EFBB19" transform="translate(14,411)"/>
<path d="M0 0 C0.66 0 1.32 0 2 0 C2.47746705 6.52538298 -0.054576 11.33572308 -3 17 C-4.68758226 11.17017038 -3.08976104 6.49338175 -1 1 C-0.67 0.67 -0.34 0.34 0 0 Z " fill="#80C13D" transform="translate(46,295)"/>
<path d="M0 0 C0.66 0 1.32 0 2 0 C0.68 5.28 -0.64 10.56 -2 16 C-2.99 15.67 -3.98 15.34 -5 15 C-4.35814255 12.68632778 -3.71172608 10.3741043 -3.0625 8.0625 C-2.78889648 7.0734668 -2.78889648 7.0734668 -2.50976562 6.06445312 C-1.11328125 1.11328125 -1.11328125 1.11328125 0 0 Z " fill="#8EC83E" transform="translate(31,350)"/>
<path d="M0 0 C0.66 0.99 1.32 1.98 2 3 C1.34 3 0.68 3 0 3 C0 3.66 0 4.32 0 5 C-0.66 5 -1.32 5 -2 5 C-2 6.32 -2 7.64 -2 9 C-5.13349732 10.04449911 -5.98968256 9.93423645 -9 9 C-7.48328036 4.44984107 -3.83108947 2.49942736 0 0 Z " fill="#ED4838" transform="translate(198,43)"/>
<path d="M0 0 C0.66 0 1.32 0 2 0 C2 0.66 2 1.32 2 2 C2.66 2 3.32 2 4 2 C4 3.32 4 4.64 4 6 C2.33720673 7.0064275 0.67016516 8.00585407 -1 9 C-2.34689915 11.57099402 -2.34689915 11.57099402 -3 14 C-3.99 14 -4.98 14 -6 14 C-6 13.34 -6 12.68 -6 12 C-5.34 12 -4.68 12 -4 12 C-4 10.68 -4 9.36 -4 8 C-3.34 8 -2.68 8 -2 8 C-2 6.68 -2 5.36 -2 4 C-1.34 4 -0.68 4 0 4 C0 2.68 0 1.36 0 0 Z " fill="#70993B" transform="translate(336,230)"/>
<path d="M0 0 C1.08912285 4.35649141 0.95514137 4.4347422 -1 8 C-1 8.99 -1 9.98 -1 11 C-2.96466413 12.06775224 -4.96855359 13.06553465 -7 14 C-7.66 13.67 -8.32 13.34 -9 13 C-6.03 8.71 -3.06 4.42 0 0 Z " fill="#F4EFD6" transform="translate(277,414)"/>
<path d="M0 0 C0.99 0.33 1.98 0.66 3 1 C3.984375 3.1796875 3.984375 3.1796875 4.75 5.875 C5.01296875 6.75929688 5.2759375 7.64359375 5.546875 8.5546875 C6 11 6 11 5 14 C4.34 14 3.68 14 3 14 C-0.44419134 4.58997722 -0.44419134 4.58997722 0 0 Z " fill="#218BE4" transform="translate(476,337)"/>
<path d="M0 0 C0.33 1.32 0.66 2.64 1 4 C1.66 4 2.32 4 3 4 C3 3.34 3 2.68 3 2 C3.99 2.33 4.98 2.66 6 3 C5.21654285 4.17219543 4.42297164 5.33763668 3.625 6.5 C3.18414062 7.1496875 2.74328125 7.799375 2.2890625 8.46875 C1.65097656 9.22671875 1.65097656 9.22671875 1 10 C0.34 10 -0.32 10 -1 10 C-1.33 8.68 -1.66 7.36 -2 6 C-2.99 6.495 -2.99 6.495 -4 7 C-2.92598892 4.08482708 -2.22189824 2.22189824 0 0 Z " fill="#2285DB" transform="translate(415,276)"/>
<path d="M0 0 C1.9375 0.375 1.9375 0.375 4 1 C4.33 1.66 4.66 2.32 5 3 C0.34507678 6.56877447 -4.34849564 6.68175995 -10 7 C-8.68 6.67 -7.36 6.34 -6 6 C-6 5.34 -6 4.68 -6 4 C-4.02 3.34 -2.04 2.68 0 2 C0 1.34 0 0.68 0 0 Z " fill="#1979CF" transform="translate(504,480)"/>
<path d="M0 0 C0.99 0 1.98 0 3 0 C3 4.95 3 9.9 3 15 C2.67 14.01 2.34 13.02 2 12 C1.34 12 0.68 12 0 12 C0 8.04 0 4.08 0 0 Z " fill="#F86858" transform="translate(149,127)"/>
<path d="M0 0 C1 3 1 3 -0.4375 6.1875 C-1.2109375 7.5796875 -1.2109375 7.5796875 -2 9 C-2.66 9 -3.32 9 -4 9 C-4.28875 9.78375 -4.5775 10.5675 -4.875 11.375 C-6 14 -6 14 -8 16 C-8.99 15.67 -9.98 15.34 -11 15 C-10.278125 14.360625 -9.55625 13.72125 -8.8125 13.0625 C-5.79233726 10.07675507 -3.97155444 6.62917367 -2.015625 2.890625 C-1 1 -1 1 0 0 Z " fill="#F5E4B8" transform="translate(261,436)"/>
<path d="M0 0 C4.75 0.875 4.75 0.875 7 2 C9.54197964 2.3912935 12.07391589 2.74479119 14.625 3.0625 C15.33140625 3.15337891 16.0378125 3.24425781 16.765625 3.33789062 C18.5100041 3.56183119 20.25495134 3.78133818 22 4 C22 4.33 22 4.66 22 5 C19.60385874 5.05425226 17.20896147 5.09379027 14.8125 5.125 C13.80219727 5.15013672 13.80219727 5.15013672 12.77148438 5.17578125 C8.71192193 5.21538674 5.65001185 4.80020002 2 3 C2 2.34 2 1.68 2 1 C1.34 0.67 0.68 0.34 0 0 Z " fill="#E86D62" transform="translate(238,174)"/>
<path d="M0 0 C0.99 0 1.98 0 3 0 C2.690625 1.216875 2.38125 2.43375 2.0625 3.6875 C0.70131794 9.73076221 0.36241197 15.82945928 0 22 C-0.33 22 -0.66 22 -1 22 C-1.02887814 18.52085059 -1.04675687 15.04173169 -1.0625 11.5625 C-1.07087891 10.56927734 -1.07925781 9.57605469 -1.08789062 8.55273438 C-1.09111328 7.60849609 -1.09433594 6.66425781 -1.09765625 5.69140625 C-1.10289307 4.81685791 -1.10812988 3.94230957 -1.11352539 3.04125977 C-1 1 -1 1 0 0 Z " fill="#E84F43" transform="translate(211,116)"/>
<path d="M0 0 C0.66 0 1.32 0 2 0 C2 0.66 2 1.32 2 2 C2.66 2 3.32 2 4 2 C5.01866229 3.65532623 6.01810813 5.32260138 7 7 C7.66 7.33 8.32 7.66 9 8 C9 8.66 9 9.32 9 10 C5.49849196 9.70820766 4.21713533 9.21713533 1.6875 6.6875 C0 4 0 4 0 0 Z " fill="#F3BF17" transform="translate(0,474)"/>
<path d="M0 0 C1.9781542 2.79268829 2.0867488 4.77777121 1.6875 8.0625 C1 12 1 12 0 15 C-0.99 14.67 -1.98 14.34 -3 14 C-2.48594831 9.03083364 -1.76615118 4.70973649 0 0 Z " fill="#ED543E" transform="translate(354,176)"/>
<path d="M0 0 C0.33 0.66 0.66 1.32 1 2 C0.36328125 3.875 0.36328125 3.875 -0.6875 6 C-1.18830078 7.051875 -1.18830078 7.051875 -1.69921875 8.125 C-3.21910635 10.31582897 -4.55687434 11.01246289 -7 12 C-7 12.66 -7 13.32 -7 14 C-7.66 14 -8.32 14 -9 14 C-7.65070536 10.16336928 -5.92248975 7.34827431 -3.375 4.1875 C-2.42753906 3.00220703 -2.42753906 3.00220703 -1.4609375 1.79296875 C-0.97882813 1.20128906 -0.49671875 0.60960937 0 0 Z " fill="#D6EEC7" transform="translate(405,238)"/>
<path d="M0 0 C0.33 0.99 0.66 1.98 1 3 C-7.25 3 -15.5 3 -24 3 C-24 2.67 -24 2.34 -24 2 C-22.83082031 1.93941406 -21.66164062 1.87882813 -20.45703125 1.81640625 C-18.90884386 1.73195966 -17.36066732 1.64731375 -15.8125 1.5625 C-15.04357422 1.52318359 -14.27464844 1.48386719 -13.48242188 1.44335938 C-8.97558369 1.19190488 -4.45443506 0 0 0 Z " fill="#8DB043" transform="translate(167,211)"/>
<path d="M0 0 C0.33 1.32 0.66 2.64 1 4 C2.32 4.33 3.64 4.66 5 5 C-2.28571429 9.42857143 -2.28571429 9.42857143 -7 10 C-7 9.34 -7 8.68 -7 8 C-5.125 6.9375 -5.125 6.9375 -3 6 C-2.34 6.33 -1.68 6.66 -1 7 C-1.309375 5.824375 -1.309375 5.824375 -1.625 4.625 C-1.74875 3.75875 -1.8725 2.8925 -2 2 C-1.34 1.34 -0.68 0.68 0 0 Z " fill="#F8E7DA" transform="translate(275,166)"/>
<path d="M0 0 C2.0625 0.4375 2.0625 0.4375 4 1 C-1.0940919 7.86214442 -1.0940919 7.86214442 -4.875 8.4375 C-5.57625 8.293125 -6.2775 8.14875 -7 8 C-6.02133662 6.85373678 -5.04205413 5.70800212 -4.0625 4.5625 C-3.51722656 3.92441406 -2.97195312 3.28632812 -2.41015625 2.62890625 C-1.63204305 1.73008851 -0.84063472 0.84063472 0 0 Z " fill="#F54C42" transform="translate(182,56)"/>
<path d="M0 0 C2.12046792 3.53411321 2.53199289 6.94393835 3 11 C2.01 10.67 1.02 10.34 0 10 C0 9.34 0 8.68 0 8 C-0.66 8 -1.32 8 -2 8 C-2.33 8.66 -2.66 9.32 -3 10 C-2.835 9.401875 -2.67 8.80375 -2.5 8.1875 C-1.8885876 5.88655664 -1.8885876 5.88655664 -2 3 C-2 2.34 -2 1.68 -2 1 C-1.34 0.67 -0.68 0.34 0 0 Z " fill="#1C95E5" transform="translate(463,281)"/>
<path d="M0 0 C2 3 2 3 2 5 C1.34 5 0.68 5 0 5 C0 6.32 0 7.64 0 9 C-1.98 9.33 -3.96 9.66 -6 10 C-4.34832443 6.4213696 -2.21713508 3.25179812 0 0 Z " fill="#2E89D7" transform="translate(356,357)"/>
<path d="M0 0 C0.33 0.66 0.66 1.32 1 2 C0.525625 2.556875 0.05125 3.11375 -0.4375 3.6875 C-2.18456899 5.89477083 -2.18456899 5.89477083 -2.3125 8.5625 C-3 11 -3 11 -6.0625 12.8125 C-7.031875 13.204375 -8.00125 13.59625 -9 14 C-7.65070536 10.16336928 -5.92248975 7.34827431 -3.375 4.1875 C-2.42753906 3.00220703 -2.42753906 3.00220703 -1.4609375 1.79296875 C-0.97882813 1.20128906 -0.49671875 0.60960937 0 0 Z " fill="#D0E8C0" transform="translate(333,337)"/>
<path d="M0 0 C0.66 0 1.32 0 2 0 C2 1.32 2 2.64 2 4 C2.66 4.33 3.32 4.66 4 5 C3.030625 5.2475 2.06125 5.495 1.0625 5.75 C-0.4534375 6.36875 -0.4534375 6.36875 -2 7 C-2.73323796 9.01508358 -2.73323796 9.01508358 -3 11 C-3.99 11.33 -4.98 11.66 -6 12 C-6 11.34 -6 10.68 -6 10 C-5.34 10 -4.68 10 -4 10 C-4 8.68 -4 7.36 -4 6 C-3.34 6 -2.68 6 -2 6 C-2 5.34 -2 4.68 -2 4 C-1.34 4 -0.68 4 0 4 C0 2.68 0 1.36 0 0 Z " fill="#6D9B3B" transform="translate(306,286)"/>
<path d="M0 0 C2.09749995 2.35968744 2.96905704 3.54616994 3.1875 6.75 C3.125625 7.4925 3.06375 8.235 3 9 C1.68 9 0.36 9 -1 9 C-1.625 6.1875 -1.625 6.1875 -2 3 C-1.34 2.01 -0.68 1.02 0 0 Z " fill="#2283D9" transform="translate(331,391)"/>
<path d="M0 0 C0.99 0 1.98 0 3 0 C4.31626692 3.61973402 5 6.09567131 5 10 C4.01 10 3.02 10 2 10 C1.34 6.7 0.68 3.4 0 0 Z " fill="#138CD9" transform="translate(473,326)"/>
<path d="M0 0 C1.98 0 3.96 0 6 0 C4.66666667 2.66666667 3.33333333 5.33333333 2 8 C1.34 8 0.68 8 0 8 C0 5.36 0 2.72 0 0 Z " fill="#F4B613" transform="translate(226,476)"/>
<path d="M0 0 C0.66 0.33 1.32 0.66 2 1 C-0.475 4.465 -0.475 4.465 -3 8 C-3.33 7.34 -3.66 6.68 -4 6 C-4.66 6 -5.32 6 -6 6 C-6 4.68 -6 3.36 -6 2 C-4.02 2 -2.04 2 0 2 C0 1.34 0 0.68 0 0 Z " fill="#E1F0EE" transform="translate(288,448)"/>
<path d="M0 0 C3.3 0 6.6 0 10 0 C5.91748364 3.06188727 5.43502071 3.37243503 0.75 3.1875 C-0.14203125 3.16042969 -1.0340625 3.13335938 -1.953125 3.10546875 C-2.62859375 3.07066406 -3.3040625 3.03585938 -4 3 C-2.68 2.67 -1.36 2.34 0 2 C0 1.34 0 0.68 0 0 Z " fill="#F04A3E" transform="translate(240,27)"/>
<path d="M0 0 C0.66 0 1.32 0 2 0 C2 0.66 2 1.32 2 2 C2.66 2 3.32 2 4 2 C4 2.66 4 3.32 4 4 C4.66 4.33 5.32 4.66 6 5 C4.68 6.32 3.36 7.64 2 9 C2 8.01 2 7.02 2 6 C1.34 6 0.68 6 0 6 C0 4.02 0 2.04 0 0 Z " fill="#E6F2EC" transform="translate(386,304)"/>
<path d="M0 0 C0.66 0 1.32 0 2 0 C4.125 6.75 4.125 6.75 3 9 C1.68 8.67 0.36 8.34 -1 8 C-0.67 5.36 -0.34 2.72 0 0 Z " fill="#1A89ED" transform="translate(459,272)"/>
<path d="M0 0 C2.475 0.495 2.475 0.495 5 1 C5 1.99 5 2.98 5 4 C4.01 4.495 4.01 4.495 3 5 C2.67 5.99 2.34 6.98 2 8 C1.34 8 0.68 8 0 8 C0 5.36 0 2.72 0 0 Z " fill="#DC5542" transform="translate(342,208)"/>
<path d="M0 0 C0.99 0.33 1.98 0.66 3 1 C3 1.66 3 2.32 3 3 C3.66 3 4.32 3 5 3 C4.814375 3.598125 4.62875 4.19625 4.4375 4.8125 C3.77906313 7.16408762 3.77906313 7.16408762 5 10 C4.01 10 3.02 10 2 10 C1.34 6.7 0.68 3.4 0 0 Z " fill="#F64A34" transform="translate(153,169)"/>
<path d="M0 0 C0.66 0 1.32 0 2 0 C3.31223496 3.93670488 2.24296256 6.12488144 1 10 C0.34 10 -0.32 10 -1 10 C-2.15837626 5.94568308 -1.83691257 3.78187881 0 0 Z " fill="#F74638" transform="translate(155,98)"/>
<path d="M0 0 C0.99 0 1.98 0 3 0 C3.33 1.32 3.66 2.64 4 4 C1.36 4.99 -1.28 5.98 -4 7 C-2.92598892 4.08482708 -2.22189824 2.22189824 0 0 Z " fill="#429FDE" transform="translate(447,232)"/>
<path d="M0 0 C0.309375 0.639375 0.61875 1.27875 0.9375 1.9375 C1.8345163 3.93610821 1.8345163 3.93610821 3 5 C3.04063832 6.66617115 3.042721 8.33388095 3 10 C2.01 9.67 1.02 9.34 0 9 C-1.1875 5.4375 -1.1875 5.4375 -2 2 C-1.34 1.34 -0.68 0.68 0 0 Z " fill="#F2533E" transform="translate(165,202)"/>
<path d="M0 0 C3.25543229 0.34879632 4.01873107 1.02133261 6.25 3.5625 C6.8275 4.366875 7.405 5.17125 8 6 C6.68 6.33 5.36 6.66 4 7 C4 6.01 4 5.02 4 4 C2.68 3.67 1.36 3.34 0 3 C0 2.01 0 1.02 0 0 Z " fill="#EF473B" transform="translate(322,51)"/>
<path d="M0 0 C1.53445094 3.06890187 0.54984289 5.70094266 0 9 C-1.98 9.33 -3.96 9.66 -6 10 C-4.34832443 6.4213696 -2.21713508 3.25179812 0 0 Z " fill="#3D8FD8" transform="translate(292,445)"/>
<path d="M0 0 C0.66 0.66 1.32 1.32 2 2 C0.35 4.31 -1.3 6.62 -3 9 C-3.66 8.67 -4.32 8.34 -5 8 C-5 6.02 -5 4.04 -5 2 C-4.34 2 -3.68 2 -3 2 C-3 2.66 -3 3.32 -3 4 C-2.34 4 -1.68 4 -1 4 C-0.67 2.68 -0.34 1.36 0 0 Z " fill="#E0EDEC" transform="translate(321,402)"/>
<path d="M0 0 C0.33 0.66 0.66 1.32 1 2 C0.07421875 3.9453125 0.07421875 3.9453125 -1.3125 6.125 C-1.98732422 7.21167969 -1.98732422 7.21167969 -2.67578125 8.3203125 C-3.11277344 8.87460937 -3.54976563 9.42890625 -4 10 C-4.66 10 -5.32 10 -6 10 C-6 10.66 -6 11.32 -6 12 C-6.66 11.67 -7.32 11.34 -8 11 C-5.36 7.37 -2.72 3.74 0 0 Z " fill="#D0EBC1" transform="translate(389,260)"/>
<path d="M0 0 C0.66 0.33 1.32 0.66 2 1 C1.67 2.32 1.34 3.64 1 5 C0.34 5 -0.32 5 -1 5 C-1 5.66 -1 6.32 -1 7 C-3.5 8.625 -3.5 8.625 -6 10 C-4.34832443 6.4213696 -2.21713508 3.25179812 0 0 Z " fill="#318CDA" transform="translate(438,244)"/>
<path d="M0 0 C0.99 0 1.98 0 3 0 C3.33 2.31 3.66 4.62 4 7 C2.68 6.67 1.36 6.34 0 6 C0 4.02 0 2.04 0 0 Z " fill="#2197E2" transform="translate(484,366)"/>
<path d="M0 0 C0.66 0 1.32 0 2 0 C1.25 6.75 1.25 6.75 -1 9 C-1.99 9 -2.98 9 -4 9 C-4 8.01 -4 7.02 -4 6 C-3.34 6 -2.68 6 -2 6 C-2 5.34 -2 4.68 -2 4 C-1.34 4 -0.68 4 0 4 C0 2.68 0 1.36 0 0 Z " fill="#72983B" transform="translate(290,310)"/>
<path d="M0 0 C0.33 0.66 0.66 1.32 1 2 C1.66 2 2.32 2 3 2 C3.66 4.64 4.32 7.28 5 10 C3.68 9.67 2.36 9.34 1 9 C1.020625 8.2575 1.04125 7.515 1.0625 6.75 C1.00671312 4.29537721 0.6930096 2.33890739 0 0 Z " fill="#F34739" transform="translate(355,98)"/>
<path d="M0 0 C2.5654594 2.5654594 2.54046087 4.47686668 3 8 C1.68 8 0.36 8 -1 8 C-1.125 2.25 -1.125 2.25 0 0 Z " fill="#248AE1" transform="translate(503,430)"/>
<path d="M0 0 C0.99 0.33 1.98 0.66 3 1 C1.02 3.97 -0.96 6.94 -3 10 C-3.33 8.68 -3.66 7.36 -4 6 C-3.34 6 -2.68 6 -2 6 C-2 4.68 -2 3.36 -2 2 C-1.34 2 -0.68 2 0 2 C0 1.34 0 0.68 0 0 Z " fill="#5FAE51" transform="translate(380,268)"/>
<path d="M0 0 C2 2 2 2 2 6 C-0.31 6 -2.62 6 -5 6 C-3.35 4.02 -1.7 2.04 0 0 Z " fill="#FB4A2E" transform="translate(188,50)"/>
<path d="M0 0 C1.32 0.33 2.64 0.66 4 1 C3.360625 1.721875 2.72125 2.44375 2.0625 3.1875 C0.01326465 5.98191184 -0.61332946 7.61663274 -1 11 C-1.66 10.67 -2.32 10.34 -3 10 C-2.67 8.02 -2.34 6.04 -2 4 C-1.34 4 -0.68 4 0 4 C0 2.68 0 1.36 0 0 Z " fill="#CFE8EE" transform="translate(266,476)"/>
<path d="M0 0 C1.32 0 2.64 0 4 0 C4 2.64 4 5.28 4 8 C3.34 8 2.68 8 2 8 C2 6.68 2 5.36 2 4 C1.34 4 0.68 4 0 4 C0 2.68 0 1.36 0 0 Z " fill="#D26231" transform="translate(184,248)"/>
<path d="M0 0 C0.66 0 1.32 0 2 0 C2 0.66 2 1.32 2 2 C2.66 2 3.32 2 4 2 C2.68775452 5.93673644 1.08089673 8.22719294 -2 11 C-1.67 9.35 -1.34 7.7 -1 6 C-0.34 6 0.32 6 1 6 C0.67 4.02 0.34 2.04 0 0 Z " fill="#60B051" transform="translate(402,234)"/>
<path d="M0 0 C0.99 0.33 1.98 0.66 3 1 C3.6875 3.0625 3.6875 3.0625 4 5 C0.25 6.125 0.25 6.125 -2 5 C-1.125 1.125 -1.125 1.125 0 0 Z " fill="#E6F6F5" transform="translate(446,227)"/>
<path d="M0 0 C0.66 0 1.32 0 2 0 C2 1.98 2 3.96 2 6 C2.66 6 3.32 6 4 6 C3.67 7.32 3.34 8.64 3 10 C2.01 9.67 1.02 9.34 0 9 C0 6.03 0 3.06 0 0 Z " fill="#949D31" transform="translate(168,214)"/>
<path d="M0 0 C0.66 1.32 1.32 2.64 2 4 C1.34 4 0.68 4 0 4 C-0.66 5.32 -1.32 6.64 -2 8 C-2.99 7.67 -3.98 7.34 -5 7 C-3.35 4.69 -1.7 2.38 0 0 Z " fill="#E4564D" transform="translate(294,156)"/>
<path d="M0 0 C5.57142857 5.14285714 5.57142857 5.14285714 6 9 C4.125 8.75 4.125 8.75 2 8 C-0.02755186 5.06004981 0 3.72295997 0 0 Z " fill="#F6D5C8" transform="translate(290,104)"/>
<path d="M0 0 C0.33 0 0.66 0 1 0 C1.36458333 4.49652778 1.36458333 4.49652778 -0.3125 6.8125 C-2 8 -2 8 -5 8 C-3.6299034 5.0490227 -2.06764583 2.51713405 0 0 Z " fill="#398DDA" transform="translate(301,433)"/>
<path d="M0 0 C0.33 0 0.66 0 1 0 C1.36923077 4.55384615 1.36923077 4.55384615 -0.5 6.8125 C-0.995 7.204375 -1.49 7.59625 -2 8 C-2.99 7.67 -3.98 7.34 -5 7 C-4.19152271 5.83054208 -3.37810888 4.66449539 -2.5625 3.5 C-2.11003906 2.8503125 -1.65757812 2.200625 -1.19140625 1.53125 C-0.79824219 1.0259375 -0.40507812 0.520625 0 0 Z " fill="#CBE9BD" transform="translate(345,320)"/>
<path d="M0 0 C0.66 0.33 1.32 0.66 2 1 C1.8125 2.8125 1.8125 2.8125 1 5 C-1.5625 6.75 -1.5625 6.75 -4 8 C-4.33 7.34 -4.66 6.68 -5 6 C-4.34 5.34 -3.68 4.68 -3 4 C-2.34 4.33 -1.68 4.66 -1 5 C-0.67 3.35 -0.34 1.7 0 0 Z " fill="#6FB136" transform="translate(50,288)"/>
<path d="M0 0 C0.66 0 1.32 0 2 0 C2 1.32 2 2.64 2 4 C1.34 4 0.68 4 0 4 C0 5.32 0 6.64 0 8 C-0.66 8 -1.32 8 -2 8 C-2.125 5.125 -2.125 5.125 -2 2 C-1.34 1.34 -0.68 0.68 0 0 Z " fill="#E4432E" transform="translate(322,254)"/>
<path d="M0 0 C0.99 0 1.98 0 3 0 C2.25 5.75 2.25 5.75 0 8 C-1.125 2.25 -1.125 2.25 0 0 Z " fill="#91CB39" transform="translate(65,223)"/>
<path d="M0 0 C4.62 0 9.24 0 14 0 C14 0.33 14 0.66 14 1 C10.37 1 6.74 1 3 1 C3 1.99 3 2.98 3 4 C2.34 4 1.68 4 1 4 C0.67 2.68 0.34 1.36 0 0 Z " fill="#D9E7CD" transform="translate(421,212)"/>
<path d="M0 0 C4.875 4.75 4.875 4.75 6 7 C4.35 7 2.7 7 1 7 C0 2.25 0 2.25 0 0 Z " fill="#EE524A" transform="translate(218,158)"/>
<path d="M0 0 C0.66 0.66 1.32 1.32 2 2 C1.60761402 5.66226912 -0.31566883 8.77780124 -2 12 C-2.66 12 -3.32 12 -4 12 C-3.71125 11.319375 -3.4225 10.63875 -3.125 9.9375 C-1.87402645 6.67106907 -0.92552045 3.37153877 0 0 Z " fill="#DE5D4C" transform="translate(299,144)"/>
<path d="M0 0 C1.32 1.32 2.64 2.64 4 4 C3.01 4.33 2.02 4.66 1 5 C0.67 5.99 0.34 6.98 0 8 C-1 7 -1 7 -1.125 4 C-1 1 -1 1 0 0 Z " fill="#DD3E33" transform="translate(347,78)"/>
<path d="M0 0 C0.33 1.32 0.66 2.64 1 4 C0.34 4 -0.32 4 -1 4 C-1 5.32 -1 6.64 -1 8 C-2.32 8 -3.64 8 -5 8 C-5 7.34 -5 6.68 -5 6 C-4.34 6 -3.68 6 -3 6 C-2.690625 5.195625 -2.38125 4.39125 -2.0625 3.5625 C-1 1 -1 1 0 0 Z " fill="#F5E5B7" transform="translate(267,428)"/>
<path d="M0 0 C0.99 0.33 1.98 0.66 3 1 C0.525 4.465 0.525 4.465 -2 8 C-2.33 6.68 -2.66 5.36 -3 4 C-2.34 4 -1.68 4 -1 4 C-0.67 2.68 -0.34 1.36 0 0 Z " fill="#DCEEF1" transform="translate(313,412)"/>
<path d="M0 0 C0.66 0.33 1.32 0.66 2 1 C-0.475 4.465 -0.475 4.465 -3 8 C-3.66 6.68 -4.32 5.36 -5 4 C-4.34 3.34 -3.68 2.68 -3 2 C-2.01 2 -1.02 2 0 2 C0 1.34 0 0.68 0 0 Z " fill="#D6EBEE" transform="translate(368,338)"/>
<path d="M0 0 C0.66 0.33 1.32 0.66 2 1 C1.19152271 2.16945792 0.37810888 3.33550461 -0.4375 4.5 C-0.88996094 5.1496875 -1.34242188 5.799375 -1.80859375 6.46875 C-2.20175781 6.9740625 -2.59492188 7.479375 -3 8 C-3.33 8 -3.66 8 -4 8 C-4 6.35 -4 4.7 -4 3 C-2.68 2.67 -1.36 2.34 0 2 C0 1.34 0 0.68 0 0 Z " fill="#DDEDEB" transform="translate(436,244)"/>
<path d="M0 0 C0.99 0.33 1.98 0.66 3 1 C3.33 2.65 3.66 4.3 4 6 C3.01 6.33 2.02 6.66 1 7 C0 6 0 6 -0.0625 2.9375 C-0.041875 1.968125 -0.02125 0.99875 0 0 Z " fill="#E23F37" transform="translate(358,110)"/>
<path d="M0 0 C0.33 0.99 0.66 1.98 1 3 C0.67 3.66 0.34 4.32 0 5 C-0.66 5 -1.32 5 -2 5 C-1.67 6.32 -1.34 7.64 -1 9 C-1.99 8.67 -2.98 8.34 -4 8 C-2.25 2.25 -2.25 2.25 0 0 Z " fill="#FBEEAB" transform="translate(231,478)"/>
<path d="M0 0 C0.99 0.33 1.98 0.66 3 1 C3.33 1.99 3.66 2.98 4 4 C3.34 4 2.68 4 2 4 C2 5.32 2 6.64 2 8 C1.34 8 0.68 8 0 8 C0 5.36 0 2.72 0 0 Z " fill="#DB4A2E" transform="translate(284,312)"/>
<path d="M0 0 C0.33 0 0.66 0 1 0 C1.25 2.3125 1.25 2.3125 1 5 C-1 6.8125 -1 6.8125 -3 8 C-3.66 7.67 -4.32 7.34 -5 7 C-4.19152271 5.83054208 -3.37810888 4.66449539 -2.5625 3.5 C-2.11003906 2.8503125 -1.65757812 2.200625 -1.19140625 1.53125 C-0.79824219 1.0259375 -0.40507812 0.520625 0 0 Z " fill="#3D8CD6" transform="translate(395,303)"/>
<path d="M0 0 C0.33 0.66 0.66 1.32 1 2 C0.06421005 4.35981813 -0.93347808 6.69631264 -2 9 C-2.99 8.34 -3.98 7.68 -5 7 C-3.35 4.69 -1.7 2.38 0 0 Z " fill="#3D8FD5" transform="translate(409,284)"/>
<path d="M0 0 C0.33 0.66 0.66 1.32 1 2 C-0.61000397 5.13950774 -2.38499232 7.63404067 -5 10 C-5.66 9.67 -6.32 9.34 -7 9 C-4.69 6.03 -2.38 3.06 0 0 Z " fill="#D0EAC4" transform="translate(373,282)"/>
<path d="M0 0 C0.66 0 1.32 0 2 0 C2.93065133 2.60582371 3.14917407 3.64198224 2.0625 6.25 C1.5365625 7.11625 1.5365625 7.11625 1 8 C0.34 7.67 -0.32 7.34 -1 7 C-0.67 4.69 -0.34 2.38 0 0 Z " fill="#6FA636" transform="translate(63,228)"/>
<path d="M0 0 C0.33 0 0.66 0 1 0 C1 1.65 1 3.3 1 5 C-0.98 5.99 -2.96 6.98 -5 8 C-3.6299034 5.0490227 -2.06764583 2.51713405 0 0 Z " fill="#D2ECC5" transform="translate(421,216)"/>
<path d="M0 0 C0.33 1.32 0.66 2.64 1 4 C-0.32 4.99 -1.64 5.98 -3 7 C-3.66 6.34 -4.32 5.68 -5 5 C-3.35 3.35 -1.7 1.7 0 0 Z " fill="#F9E4D3" transform="translate(229,96)"/>
<path d="M0 0 C0.66 0 1.32 0 2 0 C2 2.31 2 4.62 2 7 C1.01 6.67 0.02 6.34 -1 6 C-1.042721 4.33388095 -1.04063832 2.66617115 -1 1 C-0.67 0.67 -0.34 0.34 0 0 Z " fill="#F8B71B" transform="translate(2,454)"/>
<path d="M0 0 C0.66 0.33 1.32 0.66 2 1 C2.625 4.0625 2.625 4.0625 3 7 C2.01 7 1.02 7 0 7 C-0.38133299 5.0085944 -0.71325582 3.00720923 -1 1 C-0.67 0.67 -0.34 0.34 0 0 Z " fill="#1B97E1" transform="translate(499,416)"/>
<path d="M0 0 C0.33 1.32 0.66 2.64 1 4 C-0.4375 6.25 -0.4375 6.25 -2 8 C-2.99 7.67 -3.98 7.34 -5 7 C-3.35 4.69 -1.7 2.38 0 0 Z " fill="#F7E2B2" transform="translate(277,414)"/>
<path d="M0 0 C0.66 0.33 1.32 0.66 2 1 C1.67 2.98 1.34 4.96 1 7 C0.01 7 -0.98 7 -2 7 C-1.34 4.69 -0.68 2.38 0 0 Z " fill="#87CB3E" transform="translate(38,323)"/>
<path d="M0 0 C0.99 0.33 1.98 0.66 3 1 C0.525 4.465 0.525 4.465 -2 8 C-2.33 6.68 -2.66 5.36 -3 4 C-2.34 4 -1.68 4 -1 4 C-0.67 2.68 -0.34 1.36 0 0 Z " fill="#5FAE4F" transform="translate(357,300)"/>
<path d="M0 0 C1.485 0.99 1.485 0.99 3 2 C3.66 2 4.32 2 5 2 C5 2.66 5 3.32 5 4 C4.34 4 3.68 4 3 4 C3 4.66 3 5.32 3 6 C2.34 6 1.68 6 1 6 C1 5.34 1 4.68 1 4 C0.34 4 -0.32 4 -1 4 C-0.67 2.68 -0.34 1.36 0 0 Z " fill="#D44E2F" transform="translate(295,296)"/>
<path d="M0 0 C0.66 0.33 1.32 0.66 2 1 C1.01 3.31 0.02 5.62 -1 8 C-1.99 8 -2.98 8 -4 8 C-4 7.34 -4 6.68 -4 6 C-3.34 6 -2.68 6 -2 6 C-2 4.68 -2 3.36 -2 2 C-1.34 2 -0.68 2 0 2 C0 1.34 0 0.68 0 0 Z " fill="#7A913A" transform="translate(326,252)"/>
<path d="M0 0 C0.66 0.99 1.32 1.98 2 3 C0.71034824 4.37562854 -0.62689293 5.70766393 -2 7 C-2.66 7 -3.32 7 -4 7 C-2.92598892 4.08482708 -2.22189824 2.22189824 0 0 Z " fill="#388AD6" transform="translate(431,254)"/>
<path d="M0 0 C0.33 0.99 0.66 1.98 1 3 C-0.8125 5.6875 -0.8125 5.6875 -3 8 C-3.66 8 -4.32 8 -5 8 C-3.62845496 5.04590299 -2.01136276 2.55991624 0 0 Z " fill="#D3EBC1" transform="translate(395,252)"/>
<path d="M0 0 C0.33 0 0.66 0 1 0 C1.33 2.31 1.66 4.62 2 7 C1.01 7.33 0.02 7.66 -1 8 C-1.625 5.6875 -1.625 5.6875 -2 3 C-1.34 2.01 -0.68 1.02 0 0 Z " fill="#F2584F" transform="translate(159,182)"/>
<path d="M0 0 C0.33 0.66 0.66 1.32 1 2 C1.66 2 2.32 2 3 2 C3 3.98 3 5.96 3 8 C2.01 7.67 1.02 7.34 0 7 C0 4.69 0 2.38 0 0 Z " fill="#E95B40" transform="translate(358,154)"/>
<path d="M0 0 C2.475 0.99 2.475 0.99 5 2 C4.01 2.495 4.01 2.495 3 3 C3 3.99 3 4.98 3 6 C2.34 6 1.68 6 1 6 C1 5.34 1 4.68 1 4 C-0.32 3.67 -1.64 3.34 -3 3 C-2.01 2.67 -1.02 2.34 0 2 C0 1.34 0 0.68 0 0 Z " fill="#E23D28" transform="translate(297,34)"/>
<path d="M0 0 C0.66 0.99 1.32 1.98 2 3 C1.01 3.33 0.02 3.66 -1 4 C-1.73323796 6.01508358 -1.73323796 6.01508358 -2 8 C-2.99 7.67 -3.98 7.34 -5 7 C-3.35 4.69 -1.7 2.38 0 0 Z " fill="#3B8FD6" transform="translate(281,460)"/>
<path d="M0 0 C0.33 0.66 0.66 1.32 1 2 C-0.32 3.65 -1.64 5.3 -3 7 C-3.99 6.67 -4.98 6.34 -6 6 C-4.02 4.02 -2.04 2.04 0 0 Z " fill="#FAF1C7" transform="translate(256,445)"/>
<path d="M0 0 C0.66 0.33 1.32 0.66 2 1 C2 3.31 2 5.62 2 8 C1.34 7.67 0.68 7.34 0 7 C-0.6875 4 -0.6875 4 -1 1 C-0.67 0.67 -0.34 0.34 0 0 Z " fill="#F8BB1C" transform="translate(4,446)"/>
<path d="M0 0 C0.33 0 0.66 0 1 0 C1.25 2.3125 1.25 2.3125 1 5 C-1 6.8125 -1 6.8125 -3 8 C-3.66 7.67 -4.32 7.34 -5 7 C-4.19152271 5.83054208 -3.37810888 4.66449539 -2.5625 3.5 C-2.11003906 2.8503125 -1.65757812 2.200625 -1.19140625 1.53125 C-0.79824219 1.0259375 -0.40507812 0.520625 0 0 Z " fill="#4291D2" transform="translate(315,413)"/>
<path d="M0 0 C0.75 1.75 0.75 1.75 1 4 C-0.9375 6.25 -0.9375 6.25 -3 8 C-3.66 7.67 -4.32 7.34 -5 7 C-1.125 1.125 -1.125 1.125 0 0 Z " fill="#F3DFAA" transform="translate(283,406)"/>
<path d="M0 0 C1.98 0.99 1.98 0.99 4 2 C4 2.99 4 3.98 4 5 C2.68 5 1.36 5 0 5 C0 3.35 0 1.7 0 0 Z " fill="#2C83E0" transform="translate(492,396)"/>
<path d="M0 0 C0.33 0.66 0.66 1.32 1 2 C-0.2739589 4.03833424 -1.61061923 6.03852126 -3 8 C-3.66 8 -4.32 8 -5 8 C-3.62845496 5.04590299 -2.01136276 2.55991624 0 0 Z " fill="#4093D9" transform="translate(341,378)"/>
<path d="M0 0 C0.33 0 0.66 0 1 0 C1 1.65 1 3.3 1 5 C-0.65 5.66 -2.3 6.32 -4 7 C-2.79618552 4.50638429 -1.54571278 2.31856917 0 0 Z " fill="#D5F0C7" transform="translate(323,351)"/>
<path d="M0 0 C0.66 1.32 1.32 2.64 2 4 C0.68 4.99 -0.64 5.98 -2 7 C-2 5.02 -2 3.04 -2 1 C-1.34 0.67 -0.68 0.34 0 0 Z " fill="#219EE2" transform="translate(458,263)"/>
</svg>
