<?xml version="1.0" encoding="UTF-8"?>
<svg version="1.1" xmlns="http://www.w3.org/2000/svg" width="820" height="1079">
<path d="M0 0 C1.97900391 2.01293945 1.97900391 2.01293945 3.8515625 4.80078125 C4.88265137 6.31212646 4.88265137 6.31212646 5.93457031 7.85400391 C6.95695801 9.41127197 6.95695801 9.41127197 8 11 C8.62229492 11.92603027 9.24458984 12.85206055 9.88574219 13.80615234 C11.7391157 16.58522098 13.56132064 19.38238413 15.375 22.1875 C16.02855469 23.19433838 16.68210937 24.20117676 17.35546875 25.23852539 C22.17553019 32.68193141 26.91266365 40.17243875 31.58056641 47.71191406 C34.60434876 52.58616384 37.6478031 57.44816624 40.6875 62.3125 C41.30560547 63.30306396 41.92371094 64.29362793 42.56054688 65.31420898 C45.53976529 70.08454306 48.53294773 74.84489555 51.55859375 79.5859375 C54.88152498 84.79731052 58.1346969 90.04948628 61.375 95.3125 C65.72192426 102.35580601 70.13343817 109.34613255 74.6328125 116.29296875 C77.61129645 120.92602249 80.48626716 125.62319515 83.375 130.3125 C87.89702891 137.65246136 92.48985822 144.9374138 97.22216797 152.14379883 C100.07462602 156.50318413 102.77210925 160.93868005 105.43969727 165.41333008 C108.05008576 169.7408322 110.7764863 173.99312199 113.5 178.25 C114.10384521 179.19673584 114.70769043 180.14347168 115.32983398 181.11889648 C117.81823113 185.02021075 120.30962063 188.91960962 122.80126953 192.81884766 C129.80700729 203.78578264 136.75089204 214.78574785 143.58691406 225.859375 C150.1645057 236.60297154 150.1645057 236.60297154 157.16015625 247.07421875 C158.25650391 248.64623047 158.25650391 248.64623047 159.375 250.25 C160.04273438 251.18328125 160.71046875 252.1165625 161.3984375 253.078125 C163.68204543 257.24431704 164.45355042 260.91992393 163.43359375 265.59765625 C163.10488281 266.41105469 162.77617187 267.22445313 162.4375 268.0625 C162.06496094 269.00738281 161.69242188 269.95226562 161.30859375 270.92578125 C160.4018997 273.05583564 159.47606522 275.17780537 158.53515625 277.29296875 C147.09505638 303.05502572 145.14110042 331.00342288 155.24462891 357.58398438 C160.10478145 369.59654052 166.32525989 381.24787234 173.61572266 391.95141602 C175.49890562 394.73832752 177.22116612 397.60785457 178.9375 400.5 C179.71603005 401.80605861 180.49468555 403.11204244 181.2734375 404.41796875 C181.70237305 405.13903809 182.13130859 405.86010742 182.57324219 406.60302734 C185.39530012 411.3441233 188.22763385 416.07905377 191.0625 420.8125 C191.69824951 421.8742041 192.33399902 422.9359082 192.98901367 424.02978516 C197.68245426 431.84927493 202.45225719 439.61917299 207.25 447.375 C212.3697973 455.6529982 217.35977681 463.98538006 222.19580078 472.43188477 C228.72825522 483.80736577 235.83969353 494.82373562 242.9921875 505.81640625 C244.70418534 508.53095535 246.31357401 511.27961763 247.89208984 514.07299805 C260.00729133 535.14511911 273.69137867 555.58688729 288.0625 575.1875 C290 578 290 578 290 580 C290.66 580 291.32 580 292 580 C293.60096878 582.07308812 295.09101215 584.15004051 296.5625 586.3125 C300.50727722 591.97856905 304.61520248 597.37704799 309.05078125 602.671875 C310.17658811 604.01652608 311.28754695 605.37455683 312.35546875 606.765625 C315.4387053 610.76436182 319.15091929 613.54650598 323.20703125 616.484375 C323.79871094 616.98453125 324.39039063 617.4846875 325 618 C325 618.66 325 619.32 325 620 C325.804375 620.20625 326.60875 620.4125 327.4375 620.625 C330.54921906 621.82601438 332.47089861 622.96056621 335.125 624.875 C339.67614015 628.05147837 344.30287924 629.65502826 349.59375 631.23828125 C352 632 352 632 353 633 C356.36027912 633.83274391 359.78018016 634.39331082 363.1875 635 C364.21166016 635.18296631 365.23582031 635.36593262 366.29101562 635.55444336 C374.44040531 636.92244792 382.46762328 637.51891848 390.72729492 637.58398438 C396.25218631 637.67998778 400.18303812 638.18365517 405 641 C407.44140625 643.75 407.44140625 643.75 409.5625 647 C410.26503906 648.051875 410.96757812 649.10375 411.69140625 650.1875 C413.53268522 653.13816373 415.19191337 656.16811486 416.83984375 659.23046875 C419.9961501 665.07673532 423.45309105 670.69679485 427 676.3125 C427.64791504 677.34358887 428.29583008 678.37467773 428.96337891 679.43701172 C437.09234627 692.35700278 445.2737537 705.24438414 453.5625 718.0625 C457.94502734 724.85418402 462.18077944 731.73494841 466.39672852 738.63110352 C468.7419811 742.44777399 471.09991328 746.21229753 473.73046875 749.83984375 C475.5654993 752.39498955 477.11246974 754.84619636 478.5625 757.625 C479.90729272 760.11411944 481.14189679 762.173938 482.9375 764.375 C484.86444139 766.82747086 486.18001873 769.12265473 487.625 771.875 C490.07102193 776.4666552 492.76875085 780.7660196 495.6875 785.0625 C499.40214512 790.53900439 502.94742315 796.08929557 506.375 801.75 C511.70831649 810.55610738 517.18283601 819.26712577 522.703125 827.95703125 C523.81535495 829.70912844 524.92369165 831.463696 526.03125 833.21875 C529.62641632 838.90564946 533.3291127 844.50973034 537.10546875 850.078125 C538.80440463 852.69833951 540.36168179 855.36556701 541.89477539 858.08496094 C544.03215427 861.788429 546.33699921 865.38837764 548.625 869 C549.40580933 870.23435791 549.40580933 870.23435791 550.20239258 871.49365234 C553.6406302 876.9089158 557.1308611 882.28676424 560.6875 887.625 C561.10918457 888.25792969 561.53086914 888.89085937 561.96533203 889.54296875 C563.80880116 892.4089307 563.80880116 892.4089307 566 895 C566.36971437 898.32742935 566.50983208 900.2685018 564.5625 903.0625 C557.72630721 908.23132869 550.5388322 911.05631141 542.3125 913.25 C540.94641602 913.63285156 540.94641602 913.63285156 539.55273438 914.0234375 C510.21158332 922.12048717 476.42192015 918.84803791 447.09472656 912.43310547 C444.30782876 911.85688674 441.50521108 911.45697955 438.6875 911.0625 C428.38018094 909.40518777 418.73280565 905.34286849 409.16308594 901.31811523 C405.11873236 899.6327598 401.0469424 898.02205047 396.97192383 896.41259766 C379.41010239 889.4653986 362.65675249 882.04410928 346.15625 872.83203125 C341.18012949 870.06382681 336.11452803 867.50164146 331 865 C331 864.34 331 863.68 331 863 C330.30390625 862.74992188 329.6078125 862.49984375 328.890625 862.2421875 C316.76690889 857.03226625 305.65852786 847.69427461 295 840 C294.43506836 839.59249512 293.87013672 839.18499023 293.28808594 838.76513672 C285.18972006 832.89068742 277.56450566 826.53525324 270 820 C269.28199219 819.38382813 268.56398438 818.76765625 267.82421875 818.1328125 C263.27308494 814.19415011 258.84674625 810.12116997 254.41943359 806.04467773 C251.66526136 803.51242004 248.89253097 801.00960923 246.0625 798.5625 C241.85730419 794.92034296 237.79418627 791.12865193 233.72045898 787.34106445 C230.91059952 784.73581239 228.08335354 782.18746962 225.125 779.75 C222.09249792 777.1908641 219.56641806 774.3332457 216.99609375 771.31640625 C214.65445486 768.59900535 212.24054116 765.95236357 209.8125 763.3125 C209.11519775 762.55247681 209.11519775 762.55247681 208.40380859 761.77709961 C205.92805436 759.08250113 203.44121873 756.39885807 200.94140625 753.7265625 C195.39802617 747.7874785 190.10336662 741.75934455 185.015625 735.41796875 C183.24308739 733.29161065 181.42598288 731.3588044 179.4375 729.4375 C176.00427427 726.11451546 173.10221688 722.47876402 170.15625 718.72265625 C167.88379554 715.85327082 165.54423721 713.05048995 163.1875 710.25 C159.05374762 705.3122866 155.05620804 700.28508664 151.10180664 695.203125 C148.19199579 691.47660578 145.19525747 687.84687121 142.125 684.25 C136.82363074 677.94204164 132.0724224 671.27890188 127.2890625 664.57421875 C124.26652513 660.34568365 121.14630904 656.19925588 118 652.0625 C111.34010722 643.26516403 105.15736399 634.15306837 99 625 C98.27039063 623.91976562 97.54078125 622.83953125 96.7890625 621.7265625 C88.66545031 609.62403821 80.83592162 597.32335431 72.97265625 585.05078125 C69.36683194 579.22659373 69.36683194 579.22659373 65 574 C64.71898437 573.27425781 64.43796875 572.54851563 64.1484375 571.80078125 C62.71689178 568.30956261 60.70921534 565.31106892 58.625 562.1875 C50 549.02003445 50 549.02003445 50 545 C49.34 545 48.68 545 48 545 C47.69819824 544.41621582 47.39639648 543.83243164 47.08544922 543.23095703 C45.68528144 540.52723999 44.28016613 537.82612246 42.875 535.125 C42.400625 534.2071875 41.92625 533.289375 41.4375 532.34375 C38.5767789 526.85425815 35.54830658 521.52080413 32.33056641 516.23339844 C30.64958117 513.41181075 29.18072246 510.51807141 27.75 507.5625 C24.90641318 501.78075029 21.95295291 496.06892095 18.9375 490.375 C15.69061904 484.23493674 12.48616468 478.08157977 9.4140625 471.8515625 C8.42581451 469.85868673 7.41904722 467.87493535 6.3984375 465.8984375 C2.74173237 458.76869736 -0.58120124 451.54564565 -3.75 444.1875 C-4.12680908 443.31617432 -4.50361816 442.44484863 -4.8918457 441.54711914 C-6.97049176 436.66381054 -8.78916807 431.79865767 -10.29785156 426.70825195 C-10.86635795 424.79296589 -10.86635795 424.79296589 -13 424 C-13.89013672 422.14990234 -13.89013672 422.14990234 -14.8046875 419.7109375 C-16.29968944 415.81675424 -17.83636464 411.95024603 -19.4453125 408.1015625 C-25.64744174 393.14770695 -31.32601426 378.08178038 -36.65820312 362.79589844 C-38.08040564 358.74729852 -39.56409399 354.72202588 -41.046875 350.6953125 C-47.3664836 333.45781248 -52.67196341 316.35219227 -56.49615479 298.36273193 C-57.06791327 295.68152749 -57.64780548 293.00213937 -58.22802734 290.32275391 C-59.6058345 283.94776857 -60.96257152 277.56844053 -62.3125 271.1875 C-62.5318219 270.15606873 -62.7511438 269.12463745 -62.97711182 268.06195068 C-67.27269957 247.77285009 -69.36512805 228.42414761 -69.6875 207.6875 C-69.70712799 206.5687146 -69.72675598 205.4499292 -69.74697876 204.29724121 C-70.0815918 184.83735312 -70.0093341 165.43824617 -69 146 C-68.94473145 144.90429688 -68.88946289 143.80859375 -68.83251953 142.6796875 C-68.07605696 128.99907261 -65.80501389 115.99239712 -62.62158203 102.67773438 C-62.03277265 100.14118242 -61.50190003 97.60111953 -60.99609375 95.046875 C-59.33444658 86.74470042 -57.18992412 79.28276035 -53.625 71.546875 C-52.15561866 68.33966765 -50.8336243 65.11632395 -49.54052734 61.83666992 C-40.93772379 40.16223385 -28.9833242 22.98391839 -12.5625 6.4375 C-12.04204102 5.9122876 -11.52158203 5.3870752 -10.98535156 4.84594727 C-7.33593177 1.21276582 -5.29044354 -0.73327503 0 0 Z " fill="#892683" transform="translate(80,139)"/>
<path d="M0 0 C0.65613281 0.10183594 1.31226563 0.20367188 1.98828125 0.30859375 C7.58763501 1.36322931 11.92763177 4.01427791 16 8 C16 8.66 16 9.32 16 10 C16.58136719 10.22429688 17.16273438 10.44859375 17.76171875 10.6796875 C20.6802656 12.4012736 21.91169589 14.3131596 23.8125 17.125 C24.3691333 17.94653564 24.3691333 17.94653564 24.93701172 18.78466797 C30.27710523 26.76833018 35.29238895 34.96983095 40.3515625 43.1328125 C43.85637186 48.78406112 47.41854106 54.39709781 51 60 C58.90055597 72.37602919 66.75528399 84.77816965 74.52661133 97.23583984 C78.39677119 103.43877471 82.28074429 109.63254711 86.1875 115.8125 C86.67033447 116.57643066 87.15316895 117.34036133 87.65063477 118.12744141 C90.10510202 122.00882846 92.56314031 125.88793116 95.0234375 129.765625 C99.86962342 137.41118955 104.67688018 145.07492636 109.375 152.8125 C115.20518645 162.41151228 121.24271252 171.87609697 127.29760742 181.33447266 C128.49674265 183.21202298 129.69184974 185.09214897 130.8840332 186.97412109 C131.50109131 187.94816895 132.11814941 188.9222168 132.75390625 189.92578125 C133.31150635 190.80790283 133.86910645 191.69002441 134.44360352 192.59887695 C135.804018 194.69764973 137.21335333 196.73043306 138.6875 198.75 C142.6292499 204.28975661 145.6373888 210.18923871 148.6875 216.25 C148.9973584 216.86496338 149.3072168 217.47992676 149.62646484 218.11352539 C153.99415447 226.88142743 153.53949011 233.74059552 151.04296875 243.03515625 C148.49177929 250.28741393 143.69291553 255.95400669 138 261 C137.34 261 136.68 261 136 261 C136 261.66 136 262.32 136 263 C135.43796875 263.29390625 134.8759375 263.5878125 134.296875 263.890625 C121.51002062 270.71551047 109.12196267 278.31701782 96.875 286.0625 C95.77929688 286.75472656 94.68359375 287.44695312 93.5546875 288.16015625 C90.80342643 289.91459919 90.80342643 289.91459919 89 293 C87.3716001 293.70479841 85.73973035 294.40272564 84.09082031 295.05810547 C79.92997976 296.9325243 76.18898474 299.57447089 72.375 302.0625 C70.71869113 303.14063913 69.05990835 304.21498912 67.3984375 305.28515625 C66.67317871 305.75832275 65.94791992 306.23148926 65.20068359 306.71899414 C62.869159 308.07616183 60.52456157 309.05792913 58 310 C58 310.66 58 311.32 58 312 C56.2675 312.8353125 56.2675 312.8353125 54.5 313.6875 C50.82980834 315.49994033 47.49261927 317.58836756 44.15234375 319.94921875 C41.18009395 321.40028081 38.26471523 321.64335044 35 322 C29.28027563 313.26153221 23.76987929 304.40428249 18.3125 295.5 C11.55948132 284.48906022 4.68250534 273.56371912 -2.28222656 262.68554688 C-5.19667905 258.12912599 -8.09751501 253.56404956 -11 249 C-12.16271831 247.17315028 -13.32547873 245.34632737 -14.48828125 243.51953125 C-16.86244984 239.78888432 -19.23462001 236.05697628 -21.60546875 232.32421875 C-22.7993573 230.44523506 -23.99336687 228.56632826 -25.1875 226.6875 C-25.77200928 225.76783447 -26.35651855 224.84816895 -26.95874023 223.90063477 C-30.46362986 218.39323263 -34.0008637 212.90831931 -37.5625 207.4375 C-43.35004877 198.53719429 -48.91060111 189.4989087 -54.48046875 180.46142578 C-63.3668534 166.06673907 -72.40935178 151.76634575 -81.5 137.5 C-84.65508898 132.54751314 -87.79831018 127.58757495 -90.9375 122.625 C-91.41574219 121.87025391 -91.89398437 121.11550781 -92.38671875 120.33789062 C-94.55792233 116.90306991 -96.71805824 113.46447663 -98.82666016 109.99072266 C-102.31848895 104.24065306 -105.89652139 98.60439335 -109.71875 93.0703125 C-110.11183853 92.49797882 -110.50492706 91.92564514 -110.90992737 91.33596802 C-112.51423572 89.00092335 -114.11888427 86.66672666 -115.74902344 84.34960938 C-116.9623866 82.6205907 -118.15443056 80.8784255 -119.34375 79.1328125 C-120.39852539 77.61518311 -120.39852539 77.61518311 -121.47460938 76.06689453 C-123.28799888 72.42096001 -123.42701445 70.02346522 -123 66 C-121.125 63.75 -121.125 63.75 -119 62 C-118.34 61.01 -117.68 60.02 -117 59 C-115.68 59 -114.36 59 -113 59 C-111.97702078 58.02351983 -110.98095748 57.01868662 -110 56 C-108 55 -106 54 -104 53 C-99.47898481 50.22102736 -95.03575941 47.31880375 -90.58203125 44.43359375 C-89.87433594 43.98113281 -89.16664063 43.52867187 -88.4375 43.0625 C-87.81746094 42.66160156 -87.19742188 42.26070312 -86.55859375 41.84765625 C-85 41 -85 41 -83 41 C-83 40.34 -83 39.68 -83 39 C-81.19921875 37.703125 -81.19921875 37.703125 -78.6875 36.25 C-77.77355469 35.71761719 -76.85960937 35.18523438 -75.91796875 34.63671875 C-73.13091894 33.07343379 -70.32094954 31.5635188 -67.5 30.0625 C-60.98269718 26.54537199 -54.91941871 22.45496574 -49.25 17.6875 C-46.6183828 15.7137871 -44.1068455 15.03561517 -41 14 C-40.278125 13.4225 -39.55625 12.845 -38.8125 12.25 C-34.56758569 8.85406855 -29.79531696 6.52947626 -25 4 C-24.01 3.4225 -23.02 2.845 -22 2.25 C-14.75122761 -0.77032183 -7.65839845 -1.50657019 0 0 Z " fill="#892782" transform="translate(659,686)"/>
<path d="M0 0 C4.0610728 2.14261146 7.76045715 4.24331418 10.65625 7.89453125 C10.65625 8.55453125 10.65625 9.21453125 10.65625 9.89453125 C11.64625 10.22453125 12.63625 10.55453125 13.65625 10.89453125 C18.55980317 16.15520594 22.05613806 22.71749709 25.65625 28.89453125 C32.22922891 40.00059907 39.07901123 50.93774074 46.09375 61.76953125 C50.07805637 67.92450553 53.90232815 74.17165818 57.71289062 80.43530273 C60.66123821 85.27805668 63.65366826 90.08689176 66.71484375 94.859375 C69.87655801 99.80233673 73.00044233 104.76920281 76.13061523 109.73217773 C78.76914456 113.913408 81.4161166 118.0889931 84.07421875 122.2578125 C87.73848511 128.01220939 91.35755442 133.79422463 94.96875 139.58203125 C96.28904706 141.69662423 97.60935958 143.81120754 98.9296875 145.92578125 C99.56616211 146.94542969 100.20263672 147.96507812 100.85839844 149.015625 C102.4275346 151.52828845 103.99826028 154.03994166 105.5703125 156.55078125 C105.99795898 157.23398438 106.42560547 157.9171875 106.86621094 158.62109375 C107.67651464 159.91551684 108.48705666 161.20979078 109.29785156 162.50390625 C111.80412098 166.51057038 114.26603487 170.54226516 116.71875 174.58203125 C119.2887366 178.78001733 121.98805734 182.82367719 124.84375 186.83203125 C129.03464063 192.81797119 132.84603973 198.99750475 136.59375 205.26953125 C137.16182373 206.20917725 137.72989746 207.14882324 138.31518555 208.11694336 C144.02875999 217.78494224 146.14997743 226.28363197 144.19140625 237.57421875 C140.17783975 252.82102167 128.67785888 260.63803164 115.78125 268.33203125 C114.73710937 268.96818359 113.69296875 269.60433594 112.6171875 270.25976562 C104.93074483 274.89453125 104.93074483 274.89453125 102.65625 274.89453125 C102.65625 275.55453125 102.65625 276.21453125 102.65625 276.89453125 C100.67625 277.55453125 98.69625 278.21453125 96.65625 278.89453125 C96.65625 279.55453125 96.65625 280.21453125 96.65625 280.89453125 C94.94888672 281.71244141 94.94888672 281.71244141 93.20703125 282.546875 C88.5439399 284.87996168 84.20373315 287.605533 79.84375 290.45703125 C79.09416016 290.93849609 78.34457031 291.41996094 77.57226562 291.91601562 C73.61804418 294.43462074 73.61804418 294.43462074 70.07470703 297.47607422 C68.0932008 299.45758045 65.89031923 300.30263248 63.34375 301.45703125 C54.93907967 305.5422104 47.46477172 311.0201491 40.203125 316.87109375 C39.52765625 317.41507812 38.8521875 317.9590625 38.15625 318.51953125 C37.6096875 318.98617188 37.063125 319.4528125 36.5 319.93359375 C33.6231834 321.43295155 31.84284807 321.46763116 28.65625 320.89453125 C26.79927349 318.71877378 25.53403443 316.90875056 24.15625 314.45703125 C23.38090263 313.16234437 22.60486082 311.86807312 21.828125 310.57421875 C21.2722168 309.62434082 21.2722168 309.62434082 20.70507812 308.65527344 C19.36179893 306.40021535 17.8972166 304.24162721 16.40625 302.08203125 C14.59229449 299.38822908 12.9564634 296.67180283 11.42578125 293.80859375 C8.43238125 288.37478911 5.02423416 283.24694068 1.59375 278.08203125 C-3.32721422 270.61416241 -8.10436732 263.09305256 -12.65625 255.39453125 C-16.47027456 248.94512167 -20.43154802 242.65488623 -24.63720703 236.45483398 C-28.22402603 231.14152907 -31.5674334 225.69792887 -34.88916016 220.21606445 C-44.67441298 204.07871289 -54.79459231 188.14376329 -64.88769531 172.19775391 C-66.38361175 169.83147696 -67.8758596 167.4629212 -69.3671875 165.09375 C-74.10987361 157.562727 -78.87276243 150.0470879 -83.71875 142.58203125 C-94.13940661 126.52941231 -104.46783209 110.41296232 -114.28125 93.98046875 C-115.06991455 92.66103271 -115.06991455 92.66103271 -115.87451172 91.31494141 C-116.9046039 89.58949756 -117.93243444 87.86270059 -118.95751953 86.13427734 C-121.87018379 81.24924238 -124.90820604 76.49813128 -128.15234375 71.82568359 C-129.34375 69.89453125 -129.34375 69.89453125 -130.21875 66.76953125 C-128.78963057 62.07385312 -125.3168217 59.59308712 -121.34375 56.89453125 C-117.84375 55.45703125 -117.84375 55.45703125 -115.34375 54.89453125 C-115.34375 54.23453125 -115.34375 53.57453125 -115.34375 52.89453125 C-113.89742187 52.08048828 -113.89742187 52.08048828 -112.421875 51.25 C-111.14575123 50.52748875 -109.86971412 49.80482442 -108.59375 49.08203125 C-107.95953125 48.72560547 -107.3253125 48.36917969 -106.671875 48.00195312 C-104.00459586 46.48771653 -101.50419639 45.01929215 -99.078125 43.1328125 C-97.34375 41.89453125 -97.34375 41.89453125 -94.34375 41.89453125 C-94.34375 41.23453125 -94.34375 40.57453125 -94.34375 39.89453125 C-93.44914062 39.39824219 -92.55453125 38.90195313 -91.6328125 38.390625 C-85.23193158 34.80691423 -79.07470772 31.12350072 -73.12109375 26.82421875 C-63.57349742 20.19058642 -53.46703031 14.27078976 -43.40625 8.45703125 C-40.23205695 6.6122011 -37.1403329 4.75761589 -34.09375 2.70703125 C-32.7325 1.80984375 -32.7325 1.80984375 -31.34375 0.89453125 C-30.79074219 0.52199219 -30.23773438 0.14945313 -29.66796875 -0.234375 C-20.8707412 -5.46171311 -9.01296742 -4.2511163 0 0 Z " fill="#8A2782" transform="translate(259.34375,42.10546875)"/>
<path d="M0 0 C0 0.66 0 1.32 0 2 C0.99 2.33 1.98 2.66 3 3 C2.319375 3.66 1.63875 4.32 0.9375 5 C-1.99593529 7.90843442 -4.62104329 11.05035945 -7.25390625 14.23046875 C-9.07847735 16.07953074 -10.62820202 16.98282648 -13 18 C-16.14525812 19.30628723 -16.14525812 19.30628723 -18 22 C-17.01 22.33 -16.02 22.66 -15 23 C-15.99 23.33 -16.98 23.66 -18 24 C-18.66 23.67 -19.32 23.34 -20 23 C-20.99 25.475 -20.99 25.475 -22 28 C-22.66 27.67 -23.32 27.34 -24 27 C-6.7826087 0 -6.7826087 0 0 0 Z " fill="#8F468A" transform="translate(67,148)"/>
<path d="M0 0 C0.495 1.485 0.495 1.485 1 3 C-8.41883609 3.69129072 -17.80405476 4.10514689 -27.25 4.125 C-28.58840942 4.13176758 -28.58840942 4.13176758 -29.95385742 4.13867188 C-34.09702658 4.12919546 -37.96097744 4.05148108 -42 3 C-42 2.34 -42 1.68 -42 1 C-36.82220789 0.85671231 -31.64439214 0.71432229 -26.46655273 0.57275391 C-24.70612933 0.52449651 -22.94571256 0.47599641 -21.18530273 0.42724609 C-18.65089609 0.35710437 -16.11646666 0.28784346 -13.58203125 0.21875 C-12.79850784 0.19687622 -12.01498444 0.17500244 -11.2077179 0.15246582 C-7.47071228 0.05141415 -3.73844255 -0.02602919 0 0 Z " fill="#B070AB" transform="translate(605,1053)"/>
<path d="M0 0 C0.66 0 1.32 0 2 0 C6.2257365 9.86005183 5.53020292 17.92697738 2 28 C-1.18998789 34.33164263 -5.45318655 38.67348551 -11 43 C-11 39 -11 39 -9.609375 37.54296875 C-8.3803125 36.64699251 -7.15114761 35.7511567 -5.921875 34.85546875 C-0.41770612 29.54148456 0.73898624 23.81994013 1.375 16.5 C1.46910156 15.68402344 1.56320312 14.86804688 1.66015625 14.02734375 C2.17097962 8.81024604 1.76599348 4.93947047 0 0 Z " fill="#A654A1" transform="translate(807,904)"/>
<path d="M0 0 C0.33 0.99 0.66 1.98 1 3 C1.66 2.67 2.32 2.34 3 2 C5.14404169 1.90293287 7.29126751 1.87021464 9.4375 1.875 C10.59121094 1.87242188 11.74492188 1.86984375 12.93359375 1.8671875 C16 2 16 2 19 3 C18.67 3.99 18.34 4.98 18 6 C8.02951308 5.55447747 -1.27391571 4.16589272 -11 2 C-7.20960634 -0.12999997 -4.34263862 -0.16702456 0 0 Z " fill="#8A3089" transform="translate(541,1050)"/>
<path d="M0 0 C0.33 0 0.66 0 1 0 C1 1.65 1 3.3 1 5 C1.66 5 2.32 5 3 5 C4.125 10.625 4.125 10.625 3 14 C3.66 14 4.32 14 5 14 C4.95875 14.721875 4.9175 15.44375 4.875 16.1875 C4.83016425 18.97309349 4.83016425 18.97309349 5.96875 21.21875 C7.23491099 24.63354782 7.42141939 27.68197914 7.625 31.3125 C7.69976562 32.56675781 7.77453125 33.82101562 7.8515625 35.11328125 C7.92503906 36.54220703 7.92503906 36.54220703 8 38 C7.34 38 6.68 38 6 38 C4.97494656 33.07237011 3.95998285 28.14281074 2.9543457 23.21118164 C2.61076507 21.5335279 2.26442586 19.85643667 1.9152832 18.17993164 C1.41413025 15.77111822 0.92290764 13.3604612 0.43359375 10.94921875 C0.27531601 10.19912033 0.11703827 9.44902191 -0.04603577 8.67619324 C-0.72090747 5.30474294 -1.10668062 3.32004187 0 0 Z " fill="#9C4798" transform="translate(14,383)"/>
<path d="M0 0 C0.66 0 1.32 0 2 0 C2.33 4.95 2.66 9.9 3 15 C2.01 15.33 1.02 15.66 0 16 C-0.66 15.67 -1.32 15.34 -2 15 C-2 16.65 -2 18.3 -2 20 C-2.66 20.33 -3.32 20.66 -4 21 C-5.79399364 12.72002936 -3.66696829 7.4988867 0 0 Z " fill="#8E2F87" transform="translate(27,209)"/>
<path d="M0 0 C0.99 0.33 1.98 0.66 3 1 C0.58545187 4.27688675 -1.20984327 6.46024883 -5 8 C-8.14525812 9.30628723 -8.14525812 9.30628723 -10 12 C-9.01 12.33 -8.02 12.66 -7 13 C-7.99 13.33 -8.98 13.66 -10 14 C-10.66 13.67 -11.32 13.34 -12 13 C-12.66 14.65 -13.32 16.3 -14 18 C-14.66 17.67 -15.32 17.34 -16 17 C-12.43120211 11.59161557 -8.79801861 6.25020219 -5 1 C-3.35 1.33 -1.7 1.66 0 2 C0 1.34 0 0.68 0 0 Z " fill="#963C91" transform="translate(59,158)"/>
<path d="M0 0 C0.66 0 1.32 0 2 0 C2 0.99 2 1.98 2 3 C3.32 2.67 4.64 2.34 6 2 C5.67 3.98 5.34 5.96 5 8 C6.32 8 7.64 8 9 8 C9.66 10.64 10.32 13.28 11 16 C10.01 16.66 9.02 17.32 8 18 C6.66356841 15.18896187 5.33137766 12.37593488 4 9.5625 C3.6184375 8.76005859 3.236875 7.95761719 2.84375 7.13085938 C2.4828125 6.36708984 2.121875 5.60332031 1.75 4.81640625 C1.41484375 4.10943604 1.0796875 3.40246582 0.734375 2.67407227 C0 1 0 1 0 0 Z " fill="#8F3F88" transform="translate(91,612)"/>
<path d="M0 0 C0.33 0.66 0.66 1.32 1 2 C3.32156597 2.40729228 5.6568787 2.74438677 8 3 C8.144375 3.928125 8.28875 4.85625 8.4375 5.8125 C8.92100111 9.00725111 8.92100111 9.00725111 10 12 C8.68 12.33 7.36 12.66 6 13 C4.80286983 11.21475351 3.61752721 9.4215972 2.4375 7.625 C1.44556641 6.12839844 1.44556641 6.12839844 0.43359375 4.6015625 C-0.03949219 3.74304688 -0.51257813 2.88453125 -1 2 C-0.67 1.34 -0.34 0.68 0 0 Z " fill="#83337E" transform="translate(178,185)"/>
<path d="M0 0 C3.47897286 6.95794571 2.70753292 14.4055066 0.5 21.75 C0.01688253 23.17251255 -0.47660196 24.59181005 -1 26 C-2.4606285 23.35261084 -3 22.10551666 -3 19 C-2.01 19 -1.02 19 0 19 C0 12.73 0 6.46 0 0 Z " fill="#9F3998" transform="translate(402,261)"/>
<path d="M0 0 C2.82613703 3.44024219 5.39131533 6.95122977 7.8125 10.6875 C8.43769531 11.64011719 9.06289063 12.59273437 9.70703125 13.57421875 C10.13371094 14.37472656 10.56039063 15.17523437 11 16 C10.67 16.66 10.34 17.32 10 18 C9.34 16.68 8.68 15.36 8 14 C6.68 14.33 5.36 14.66 4 15 C4 13.35 4 11.7 4 10 C3.34 10 2.68 10 2 10 C1.34 6.7 0.68 3.4 0 0 Z " fill="#913E8B" transform="translate(286,586)"/>
<path d="M0 0 C0.99 0.33 1.98 0.66 3 1 C3 1.99 3 2.98 3 4 C0.8828125 5.82421875 0.8828125 5.82421875 -1.875 7.6875 C-2.77992188 8.31011719 -3.68484375 8.93273437 -4.6171875 9.57421875 C-7 11 -7 11 -9 11 C-8.6875 8.625 -8.6875 8.625 -8 6 C-5 4 -5 4 -2 3 C-1.34 2.67 -0.68 2.34 0 2 C0 1.34 0 0.68 0 0 Z " fill="#843680" transform="translate(306,348)"/>
<path d="M0 0 C2.64 0 5.28 0 8 0 C3.98745115 3.51098025 -0.20983041 5.76537994 -5 8 C-5.33 6.68 -5.66 5.36 -6 4 C-5.34 4 -4.68 4 -4 4 C-4 3.34 -4 2.68 -4 2 C-2.68 2 -1.36 2 0 2 C0 1.34 0 0.68 0 0 Z " fill="#924187" transform="translate(729,984)"/>
<path d="M0 0 C3.6575515 1.21918383 4.42328869 2.84071298 6.21484375 6.14453125 C7.217815 8.51473693 7.30800164 10.45898646 7 13 C6.34 13 5.68 13 5 13 C4.896875 12.360625 4.79375 11.72125 4.6875 11.0625 C4.460625 10.381875 4.23375 9.70125 4 9 C3.01 8.67 2.02 8.34 1 8 C1.04125 7.21625 1.0825 6.4325 1.125 5.625 C1.28728734 2.83883881 1.28728734 2.83883881 -1 1 C-0.67 0.67 -0.34 0.34 0 0 Z " fill="#812F79" transform="translate(267,557)"/>
<path d="M0 0 C0.66 0 1.32 0 2 0 C1.67 3.96 1.34 7.92 1 12 C0.34 12 -0.32 12 -1 12 C-1.33 16.29 -1.66 20.58 -2 25 C-2.33 25 -2.66 25 -3 25 C-4.48332052 19.30927347 -3.36171897 14.70869836 -2.0625 9.125 C-1.86720703 8.24585938 -1.67191406 7.36671875 -1.47070312 6.4609375 C-0.9902767 4.30487742 -0.49983765 2.15162745 0 0 Z " fill="#A24B9E" transform="translate(17,243)"/>
<path d="M0 0 C3.12557301 2.73117894 5.07807514 6.16670588 7.1875 9.6875 C7.55552734 10.29400391 7.92355469 10.90050781 8.30273438 11.52539062 C9.20564926 13.01461388 10.10334696 14.50699815 11 16 C10.34 16.66 9.68 17.32 9 18 C8.34 17.67 7.68 17.34 7 17 C7 15.35 7 13.7 7 12 C6.01 11.67 5.02 11.34 4 11 C3.67 10.01 3.34 9.02 3 8 C2.01 7.67 1.02 7.34 0 7 C0 4.69 0 2.38 0 0 Z " fill="#92448A" transform="translate(607,975)"/>
<path d="M0 0 C0.99 0 1.98 0 3 0 C3.33 1.32 3.66 2.64 4 4 C4.66 4 5.32 4 6 4 C6.99 6.31 7.98 8.62 9 11 C5.95867738 10.37791128 3.6908868 9.84577588 1.67578125 7.37890625 C0.5625 5.5 0.5625 5.5 -1 2 C-0.67 1.34 -0.34 0.68 0 0 Z " fill="#8A2981" transform="translate(171,748)"/>
<path d="M0 0 C0.66 0 1.32 0 2 0 C2.36220266 1.79005941 2.71452469 3.58212057 3.0625 5.375 C3.25972656 6.37273437 3.45695313 7.37046875 3.66015625 8.3984375 C4 11 4 11 3 13 C2.34 13 1.68 13 1 13 C-0.99544337 8.88439805 -1.26247139 5.54950416 -1 1 C-0.67 0.67 -0.34 0.34 0 0 Z " fill="#7B2B77" transform="translate(227,475)"/>
<path d="M0 0 C0.66 0 1.32 0 2 0 C2 0.66 2 1.32 2 2 C2.66 2 3.32 2 4 2 C4 2.66 4 3.32 4 4 C5.32 4.66 6.64 5.32 8 6 C8 7.65 8 9.3 8 11 C7.34 10.67 6.68 10.34 6 10 C6.33 9.34 6.66 8.68 7 8 C6.236875 7.896875 5.47375 7.79375 4.6875 7.6875 C1.80299352 6.94960299 0.64504011 6.46756016 -1 4 C-0.6875 1.8125 -0.6875 1.8125 0 0 Z " fill="#802B76" transform="translate(639,916)"/>
<path d="M0 0 C2.95164119 2.74807973 5.2946915 5.32012377 7 9 C6.6875 11.8125 6.6875 11.8125 6 14 C3.01380463 11.44040397 1.51448438 8.6059152 0 5 C-0.1875 2.125 -0.1875 2.125 0 0 Z " fill="#8C3A85" transform="translate(765,835)"/>
<path d="M0 0 C0 0.66 0 1.32 0 2 C-0.66 2 -1.32 2 -2 2 C-1.67 3.98 -1.34 5.96 -1 8 C-2.98 8.33 -4.96 8.66 -7 9 C-7 7.02 -7 5.04 -7 3 C-6.01 3 -5.02 3 -4 3 C-4 2.34 -4 1.68 -4 1 C-2 0 -2 0 0 0 Z " fill="#7F2A79" transform="translate(543,750)"/>
<path d="M0 0 C0.33 0 0.66 0 1 0 C1 1.65 1 3.3 1 5 C1.66 5 2.32 5 3 5 C4.125 10.625 4.125 10.625 3 14 C3.66 14 4.32 14 5 14 C4.67 15.32 4.34 16.64 4 18 C3.34 18 2.68 18 2 18 C1.46969932 15.56421213 0.95047688 13.12694025 0.4375 10.6875 C0.21030273 9.65206055 0.21030273 9.65206055 -0.02148438 8.59570312 C-0.71761569 5.24455934 -1.10155309 3.30465928 0 0 Z " fill="#A1519D" transform="translate(14,383)"/>
<path d="M0 0 C2.31 0 4.62 0 7 0 C7 1.32 7 2.64 7 4 C8.65 4.33 10.3 4.66 12 5 C12 5.99 12 6.98 12 8 C7.71 6.02 3.42 4.04 -1 2 C-0.67 1.34 -0.34 0.68 0 0 Z " fill="#9F388C" transform="translate(412,1002)"/>
<path d="M0 0 C4.20763224 1.5027258 5.8027758 4.23332995 8 8 C8 8.66 8 9.32 8 10 C8.66 10 9.32 10 10 10 C11.0625 11.8125 11.0625 11.8125 12 14 C11.67 14.99 11.34 15.98 11 17 C9.53840903 14.91888693 8.08066008 12.83525539 6.625 10.75 C6.2125 10.16347656 5.8 9.57695313 5.375 8.97265625 C3.35295912 6.07004918 1.45533455 3.23052285 0 0 Z " fill="#8D3D87" transform="translate(175,757)"/>
<path d="M0 0 C-0.99 0.33 -1.98 0.66 -3 1 C-3 1.66 -3 2.32 -3 3 C-4.65 3.66 -6.3 4.32 -8 5 C-8 5.66 -8 6.32 -8 7 C-9.65 6.67 -11.3 6.34 -13 6 C-8.69305903 1.54454382 -6.32208571 -0.28098159 0 0 Z " fill="#833580" transform="translate(567,735)"/>
<path d="M0 0 C7 8.44827586 7 8.44827586 7 14 C6.01 13.67 5.02 13.34 4 13 C4 12.01 4 11.02 4 10 C3.01 9.67 2.02 9.34 1 9 C0.29925156 5.846632 0 3.27275026 0 0 Z " fill="#923C8D" transform="translate(306,619)"/>
<path d="M0 0 C0 0.66 0 1.32 0 2 C-2.08203125 3.54296875 -2.08203125 3.54296875 -4.8125 5.1875 C-6.15248047 6.01314453 -6.15248047 6.01314453 -7.51953125 6.85546875 C-10 8 -10 8 -13 7 C-11.66666667 5.66666667 -10.33333333 4.33333333 -9 3 C-8.319375 2.13375 -8.319375 2.13375 -7.625 1.25 C-5.17378097 -0.6355531 -2.98922668 -0.19928178 0 0 Z " fill="#98308E" transform="translate(325,340)"/>
<path d="M0 0 C3.68006822 3.38168431 5.9785845 6.42521756 8 11 C7.01 11.495 7.01 11.495 6 12 C6 11.34 6 10.68 6 10 C5.34 10 4.68 10 4 10 C4 9.01 4 8.02 4 7 C2.68 7 1.36 7 0 7 C-1.125 2.25 -1.125 2.25 0 0 Z " fill="#8A3983" transform="translate(317,125)"/>
<path d="M0 0 C1.98 0 3.96 0 6 0 C6 0.66 6 1.32 6 2 C6.66 2 7.32 2 8 2 C8 2.66 8 3.32 8 4 C8.99 4.33 9.98 4.66 11 5 C11 5.99 11 6.98 11 8 C7.6496302 7.42235003 6.31766228 6.41423154 4 4 C1.90010348 2.82425289 1.90010348 2.82425289 0 2 C0 1.34 0 0.68 0 0 Z " fill="#812D79" transform="translate(445,1018)"/>
<path d="M0 0 C0 0.66 0 1.32 0 2 C-0.66 2 -1.32 2 -2 2 C-2 2.66 -2 3.32 -2 4 C-4.90600261 5.25664978 -6.79604584 6 -10 6 C-9.8125 4.125 -9.8125 4.125 -9 2 C-5.70173093 0.21715186 -3.8225249 0 0 0 Z " fill="#874080" transform="translate(358,319)"/>
<path d="M0 0 C0.66 0 1.32 0 2 0 C2 0.99 2 1.98 2 3 C3.1446875 3.37125 3.1446875 3.37125 4.3125 3.75 C7.26988327 5.1255271 8.44791483 6.15451051 10 9 C9.67 9.99 9.34 10.98 9 12 C8.34 12 7.68 12 7 12 C7 11.34 7 10.68 7 10 C6.34 10 5.68 10 5 10 C4.34 8.02 3.68 6.04 3 4 C2.34 4 1.68 4 1 4 C0.67 2.68 0.34 1.36 0 0 Z " fill="#7F2B73" transform="translate(319,132)"/>
<path d="M0 0 C0.763125 0.20625 1.52625 0.4125 2.3125 0.625 C2.3125 1.285 2.3125 1.945 2.3125 2.625 C-1.41715139 4.65935531 -3.35655042 5.625 -7.6875 5.625 C-6.02612914 1.79106724 -4.59035464 -0.6405146 0 0 Z " fill="#8D3F84" transform="translate(792.6875,946.375)"/>
<path d="M0 0 C0.33 0.99 0.66 1.98 1 3 C0.67 3.66 0.34 4.32 0 5 C0.66 5 1.32 5 2 5 C2.66 6.32 3.32 7.64 4 9 C3.34 9 2.68 9 2 9 C2 9.66 2 10.32 2 11 C1.34 11 0.68 11 0 11 C-1.75 8.8125 -1.75 8.8125 -3 6 C-2.33719617 3.56971928 -1.7989028 1.7989028 0 0 Z " fill="#883980" transform="translate(637,907)"/>
<path d="M0 0 C0.33 0.66 0.66 1.32 1 2 C1.66 2 2.32 2 3 2 C3.33 3.32 3.66 4.64 4 6 C4.66 6 5.32 6 6 6 C6.66 7.65 7.32 9.3 8 11 C5.625 10.8125 5.625 10.8125 3 10 C1.24145134 6.83461241 0.60867533 3.55060608 0 0 Z " fill="#793076" transform="translate(221,816)"/>
<path d="M0 0 C0.33 0.99 0.66 1.98 1 3 C-2.22791555 5.1519437 -3.28400809 5.20086443 -7 5 C-7.66 3.68 -8.32 2.36 -9 1 C-4.545 0.505 -4.545 0.505 0 0 Z " fill="#7D2E79" transform="translate(701,1003)"/>
<path d="M0 0 C1.98 0 3.96 0 6 0 C5.67 0.99 5.34 1.98 5 3 C5.66 3.66 6.32 4.32 7 5 C5.35 5.66 3.7 6.32 2 7 C2 6.34 2 5.68 2 5 C0.68 4.67 -0.64 4.34 -2 4 C-2 3.34 -2 2.68 -2 2 C-1.34 2 -0.68 2 0 2 C0 1.34 0 0.68 0 0 Z " fill="#972690" transform="translate(707,994)"/>
<path d="M0 0 C0.66 0 1.32 0 2 0 C0.67494706 6.4596331 -3.59409935 10.38917374 -8 15 C-8.33 13.68 -8.66 12.36 -9 11 C-8.4225 10.814375 -7.845 10.62875 -7.25 10.4375 C-3.41451191 7.98704927 -2.0052174 4.0104348 0 0 Z " fill="#82337D" transform="translate(806,928)"/>
<path d="M0 0 C0 0.99 0 1.98 0 3 C-0.99 3.66 -1.98 4.32 -3 5 C-3 5.99 -3 6.98 -3 8 C-4.65 7.67 -6.3 7.34 -8 7 C-8 4 -8 4 -6.25 1.8125 C-4 0 -4 0 0 0 Z " fill="#A3539A" transform="translate(615,702)"/>
<path d="M0 0 C3 2 3 2 3.51171875 3.9453125 C3.67447917 5.96354167 3.83723958 7.98177083 4 10 C4.66 10 5.32 10 6 10 C6 10.66 6 11.32 6 12 C5.01 11.67 4.02 11.34 3 11 C3 10.01 3 9.02 3 8 C2.34 8 1.68 8 1 8 C-0.42944945 5.64561267 -1.08661261 4.51967567 -0.625 1.75 C-0.41875 1.1725 -0.2125 0.595 0 0 Z " fill="#7E3377" transform="translate(562,904)"/>
<path d="M0 0 C0.99 0.33 1.98 0.66 3 1 C3 2.32 3 3.64 3 5 C1.02 5.99 -0.96 6.98 -3 8 C-3.75 6.25 -3.75 6.25 -4 4 C-2.0625 1.75 -2.0625 1.75 0 0 Z " fill="#823573" transform="translate(333,330)"/>
<path d="M0 0 C2.30874711 2.16614803 4.05290181 4.39206608 5.75 7.0625 C6.19859375 7.75472656 6.6471875 8.44695312 7.109375 9.16015625 C7.40328125 9.76730469 7.6971875 10.37445313 8 11 C7.67 11.66 7.34 12.32 7 13 C6.5978125 12.0409375 6.5978125 12.0409375 6.1875 11.0625 C5.11332248 8.66868314 5.11332248 8.66868314 2 8 C2.33 7.34 2.66 6.68 3 6 C2.01 6 1.02 6 0 6 C-0.66 4.68 -1.32 3.36 -2 2 C-1.34 2 -0.68 2 0 2 C0 1.34 0 0.68 0 0 Z " fill="#943B89" transform="translate(125,210)"/>
<path d="M0 0 C6.66287016 1.92482916 6.66287016 1.92482916 9 5 C9.33 5.99 9.66 6.98 10 8 C9.01 8 8.02 8 7 8 C7 7.34 7 6.68 7 6 C6.34 6 5.68 6 5 6 C5 5.34 5 4.68 5 4 C3.35 4 1.7 4 0 4 C0 2.68 0 1.36 0 0 Z " fill="#7D2B77" transform="translate(397,754)"/>
<path d="M0 0 C2.35729943 2.19138979 4.02057098 4.43931973 5.6875 7.1875 C6.12449219 7.90292969 6.56148437 8.61835937 7.01171875 9.35546875 C7.33785156 9.89816406 7.66398438 10.44085937 8 11 C7.34 11.66 6.68 12.32 6 13 C5.01 12.67 4.02 12.34 3 12 C3.33 10.35 3.66 8.7 4 7 C3.01 6.67 2.02 6.34 1 6 C0.67 4.02 0.34 2.04 0 0 Z " fill="#974894" transform="translate(734,786)"/>
<path d="M0 0 C0.66 0 1.32 0 2 0 C3.65 2.97 5.3 5.94 7 9 C5.35 9 3.7 9 2 9 C1.34 6.03 0.68 3.06 0 0 Z " fill="#8D4088" transform="translate(710,749)"/>
<path d="M0 0 C0.66 0.33 1.32 0.66 2 1 C2 1.66 2 2.32 2 3 C3.32 3.66 4.64 4.32 6 5 C6 6.32 6 7.64 6 9 C5.01 9 4.02 9 3 9 C3 8.34 3 7.68 3 7 C2.34 7 1.68 7 1 7 C-0.0625 4.625 -0.0625 4.625 -1 2 C-0.67 1.34 -0.34 0.68 0 0 Z " fill="#87407E" transform="translate(673,693)"/>
<path d="M0 0 C0.99 0.33 1.98 0.66 3 1 C3.6875 3.0625 3.6875 3.0625 4 5 C5.32 5 6.64 5 8 5 C8 6.65 8 8.3 8 10 C7.01 10 6.02 10 5 10 C3.35 6.7 1.7 3.4 0 0 Z " fill="#8D3588" transform="translate(113,655)"/>
<path d="M0 0 C1.60031344 3.20062687 0.03173691 5.72271806 -1 9 C-2.98 9 -4.96 9 -7 9 C-6.67 8.01 -6.34 7.02 -6 6 C-5.34 6.33 -4.68 6.66 -4 7 C-3.67 6.01 -3.34 5.02 -3 4 C-3.33 3.34 -3.66 2.68 -4 2 C-2.68 1.34 -1.36 0.68 0 0 Z " fill="#8F2A8B" transform="translate(295,354)"/>
<path d="M0 0 C2.97 0.495 2.97 0.495 6 1 C6.66 2.98 7.32 4.96 8 7 C6.68 7.33 5.36 7.66 4 8 C2.68 5.36 1.36 2.72 0 0 Z " fill="#913489" transform="translate(198,219)"/>
<path d="M0 0 C2.31 0.33 4.62 0.66 7 1 C5.38405168 3.04119788 3.7143618 5.04072937 2 7 C1.34 7 0.68 7 0 7 C-1.125 2.25 -1.125 2.25 0 0 Z " fill="#9D5A92" transform="translate(746,972)"/>
<path d="M0 0 C0.99 0 1.98 0 3 0 C2.75 1.875 2.75 1.875 2 4 C0.1875 5.3125 0.1875 5.3125 -2 6 C-4.25 5.625 -4.25 5.625 -6 5 C-5.67 4.01 -5.34 3.02 -5 2 C-3.35 2 -1.7 2 0 2 C0 1.34 0 0.68 0 0 Z " fill="#7B3375" transform="translate(755,968)"/>
<path d="M0 0 C2.90696099 1.06588569 3.84432962 1.70348499 5.3125 4.5 C6 7 6 7 5 9 C4.34 9 3.68 9 3 9 C2.67 7.68 2.34 6.36 2 5 C1.34 5 0.68 5 0 5 C0 3.35 0 1.7 0 0 Z " fill="#7B3276" transform="translate(781,863)"/>
<path d="M0 0 C0.66 0 1.32 0 2 0 C2 0.66 2 1.32 2 2 C2.66 2 3.32 2 4 2 C4 2.66 4 3.32 4 4 C4.66 4 5.32 4 6 4 C6 5.32 6 6.64 6 8 C1.3697479 6.53781513 1.3697479 6.53781513 -0.375 4 C-1 2 -1 2 0 0 Z " fill="#81337B" transform="translate(591,840)"/>
<path d="M0 0 C0.33 1.32 0.66 2.64 1 4 C0.01 4 -0.98 4 -2 4 C-2 3.34 -2 2.68 -2 2 C-7.28 2 -12.56 2 -18 2 C-18 1.67 -18 1.34 -18 1 C-16.12528812 0.83012319 -14.25021305 0.66425224 -12.375 0.5 C-11.33085937 0.4071875 -10.28671875 0.314375 -9.2109375 0.21875 C-6.12853212 0.00875645 -3.08834771 -0.03709727 0 0 Z " fill="#7D2877" transform="translate(482,778)"/>
<path d="M0 0 C2.74277578 3.19990508 4.6302836 6.00499382 6 10 C0.33846154 8.52307692 0.33846154 8.52307692 -1.375 5.875 C-1.58125 5.25625 -1.7875 4.6375 -2 4 C-1.34 4 -0.68 4 0 4 C0 2.68 0 1.36 0 0 Z " fill="#953F88" transform="translate(350,176)"/>
<path d="M0 0 C0.99 0.33 1.98 0.66 3 1 C1.3125 3.5 1.3125 3.5 -1 6 C-3.75 6.3125 -3.75 6.3125 -6 6 C-5.67 4.35 -5.34 2.7 -5 1 C-3.35 1.33 -1.7 1.66 0 2 C0 1.34 0 0.68 0 0 Z " fill="#8A3D86" transform="translate(59,158)"/>
<path d="M0 0 C0.33 0.99 0.66 1.98 1 3 C-0.60379341 3.05416188 -2.20811406 3.09286638 -3.8125 3.125 C-4.70582031 3.14820313 -5.59914063 3.17140625 -6.51953125 3.1953125 C-9 3 -9 3 -12 1 C-7.95858806 0.36605303 -4.0934693 -0.12404452 0 0 Z " fill="#9D4896" transform="translate(605,1053)"/>
<path d="M0 0 C0 0.99 0 1.98 0 3 C-4.17737474 4.59138085 -7.53160785 5.21278058 -12 5 C-10.68 4.67 -9.36 4.34 -8 4 C-8 3.34 -8 2.68 -8 2 C-5.09399739 0.74335022 -3.20395416 0 0 0 Z " fill="#7F317B" transform="translate(618,1050)"/>
<path d="M0 0 C1.32 0 2.64 0 4 0 C4 1.65 4 3.3 4 5 C6.475 5.99 6.475 5.99 9 7 C9 7.66 9 8.32 9 9 C5.05860922 7.33248852 2.2107188 4.77289351 -1 2 C-0.67 1.34 -0.34 0.68 0 0 Z " fill="#992B95" transform="translate(345,952)"/>
<path d="M0 0 C4 4.75 4 4.75 4 7 C3.34 7 2.68 7 2 7 C2 6.34 2 5.68 2 5 C1.34 5 0.68 5 0 5 C0 5.99 0 6.98 0 8 C-0.99 8.33 -1.98 8.66 -3 9 C-3 6.69 -3 4.38 -3 2 C-2.67 2.66 -2.34 3.32 -2 4 C-1.34 4 -0.68 4 0 4 C0 2.68 0 1.36 0 0 Z " fill="#942B8F" transform="translate(158,262)"/>
<path d="M0 0 C0.66 0 1.32 0 2 0 C2 0.66 2 1.32 2 2 C2.66 2 3.32 2 4 2 C4.66 3.65 5.32 5.3 6 7 C5.01 7.495 5.01 7.495 4 8 C1 7 1 7 -0.25 4.5625 C-1 2 -1 2 0 0 Z " fill="#822B74" transform="translate(225,258)"/>
<path d="M0 0 C2.99324263 1.0975223 3.84610901 1.67682892 5.25 4.625 C5.4975 5.40875 5.745 6.1925 6 7 C4.68 7 3.36 7 2 7 C0.1875 5.1875 0.1875 5.1875 -1 3 C-0.67 2.01 -0.34 1.02 0 0 Z " fill="#86327C" transform="translate(353,184)"/>
<path d="M0 0 C3 2 3 2 3.73046875 4.1640625 C3.88128906 4.97617188 4.03210938 5.78828125 4.1875 6.625 C4.34605469 7.44226563 4.50460937 8.25953125 4.66796875 9.1015625 C4.83232422 10.04128906 4.83232422 10.04128906 5 11 C4.34 11 3.68 11 3 11 C3 10.34 3 9.68 3 9 C2.34 9 1.68 9 1 9 C1 7.68 1 6.36 1 5 C0.34 5 -0.32 5 -1 5 C-0.67 3.35 -0.34 1.7 0 0 Z " fill="#7C2E73" transform="translate(311,115)"/>
<path d="M0 0 C0.33 0.66 0.66 1.32 1 2 C1.66 2.33 2.32 2.66 3 3 C2.67 3.66 2.34 4.32 2 5 C0.68 5 -0.64 5 -2 5 C-2.33 5.66 -2.66 6.32 -3 7 C-3.99 6.67 -4.98 6.34 -6 6 C-6 5.34 -6 4.68 -6 4 C-4.03852126 2.61061923 -2.03833424 1.2739589 0 0 Z " fill="#7B2875" transform="translate(205,57)"/>
<path d="M0 0 C2 2 2 2 2.125 5.125 C2.08375 6.07375 2.0425 7.0225 2 8 C2.66 8 3.32 8 4 8 C4 8.99 4 9.98 4 11 C3.34 11 2.68 11 2 11 C2 10.34 2 9.68 2 9 C1.34 9 0.68 9 0 9 C-0.66 6.69 -1.32 4.38 -2 2 C-1.34 2 -0.68 2 0 2 C0 1.34 0 0.68 0 0 Z " fill="#7F2C79" transform="translate(758,823)"/>
<path d="M0 0 C1.58706842 4.1077065 2.10191901 5.59232396 1 10 C-0.65 7.03 -2.3 4.06 -4 1 C-2 0 -2 0 0 0 Z " fill="#963F92" transform="translate(541,758)"/>
<path d="M0 0 C0.33 0.66 0.66 1.32 1 2 C1.99 2 2.98 2 4 2 C4 2.99 4 3.98 4 5 C2.02 5.33 0.04 5.66 -2 6 C-2 6.66 -2 7.32 -2 8 C-2.99 7.67 -3.98 7.34 -5 7 C-4.0409375 6.1028125 -4.0409375 6.1028125 -3.0625 5.1875 C-0.79689611 3.09189663 -0.79689611 3.09189663 0 0 Z " fill="#955491" transform="translate(541,745)"/>
<path d="M0 0 C0.99 0 1.98 0 3 0 C3.06058594 0.60328125 3.12117188 1.2065625 3.18359375 1.828125 C3.26738281 2.62734375 3.35117187 3.4265625 3.4375 4.25 C3.55931641 5.43335938 3.55931641 5.43335938 3.68359375 6.640625 C3.97634993 8.82364639 4.42064419 10.8773182 5 13 C4.34 13 3.68 13 3 13 C1.68 9.04 0.36 5.08 -1 1 C-0.67 0.67 -0.34 0.34 0 0 Z " fill="#923D8D" transform="translate(34,470)"/>
<path d="M0 0 C2.375 0.5625 2.375 0.5625 5 2 C6.3125 5.625 6.3125 5.625 7 9 C6.01 9 5.02 9 4 9 C0 2.25 0 2.25 0 0 Z " fill="#7C2B75" transform="translate(196,327)"/>
<path d="M0 0 C0.66 0 1.32 0 2 0 C3.65 2.97 5.3 5.94 7 9 C6.34 9 5.68 9 5 9 C4.67 9.66 4.34 10.32 4 11 C4 10.34 4 9.68 4 9 C3.34 8.67 2.68 8.34 2 8 C2 7.34 2 6.68 2 6 C1.34 5.34 0.68 4.68 0 4 C0 2.68 0 1.36 0 0 Z " fill="#903C8B" transform="translate(332,149)"/>
<path d="M0 0 C0.99 0 1.98 0 3 0 C2.67 1.32 2.34 2.64 2 4 C1.34 4 0.68 4 0 4 C-0.33 4.99 -0.66 5.98 -1 7 C-2.32 6.01 -3.64 5.02 -5 4 C-4.67 3.34 -4.34 2.68 -4 2 C-3.01 2 -2.02 2 -1 2 C-0.67 1.34 -0.34 0.68 0 0 Z " fill="#812979" transform="translate(553,772)"/>
<path d="M0 0 C2.40072955 2.88087546 4.47291037 5.56404834 6 9 C5.01 9.495 5.01 9.495 4 10 C3.01 9.67 2.02 9.34 1 9 C0.67 6.03 0.34 3.06 0 0 Z " fill="#8B4484" transform="translate(720,763)"/>
<path d="M0 0 C1.65 0 3.3 0 5 0 C4.01 0.495 4.01 0.495 3 1 C3 1.66 3 2.32 3 3 C2.34 3 1.68 3 1 3 C1.33 3.99 1.66 4.98 2 6 C0.68 6.33 -0.64 6.66 -2 7 C-2.33 6.01 -2.66 5.02 -3 4 C-2.34 4 -1.68 4 -1 4 C-0.67 2.68 -0.34 1.36 0 0 Z " fill="#832F7D" transform="translate(626,695)"/>
<path d="M0 0 C0.99 0.33 1.98 0.66 3 1 C3 1.66 3 2.32 3 3 C3.99 3.33 4.98 3.66 6 4 C6 5.65 6 7.3 6 9 C5.34 9 4.68 9 4 9 C2 6 2 6 2 3 C1.34 3 0.68 3 0 3 C0 2.01 0 1.02 0 0 Z " fill="#802B78" transform="translate(152,257)"/>
<path d="M0 0 C2.66735273 2.48952921 4.55746343 4.63408134 6 8 C4.02 8 2.04 8 0 8 C0 5.36 0 2.72 0 0 Z " fill="#90448A" transform="translate(304,104)"/>
<path d="M0 0 C1.65 0 3.3 0 5 0 C5.33 0.99 5.66 1.98 6 3 C7.98723268 3.70381157 9.98777953 4.3711811 12 5 C12.33 5.66 12.66 6.32 13 7 C3.40546697 4.29384966 3.40546697 4.29384966 0 0 Z " fill="#A23F9B" transform="translate(439,1017)"/>
<path d="M0 0 C2.16874252 0.50603992 3.99967627 0.99983813 6 2 C6 2.66 6 3.32 6 4 C6.66 4.33 7.32 4.66 8 5 C7.01 6.485 7.01 6.485 6 8 C4.9970458 6.85675161 3.99770973 5.71032809 3 4.5625 C2.443125 3.92441406 1.88625 3.28632812 1.3125 2.62890625 C0 1 0 1 0 0 Z " fill="#7F347F" transform="translate(359,964)"/>
<path d="M0 0 C0.33 0.66 0.66 1.32 1 2 C1.639375 2.12375 2.27875 2.2475 2.9375 2.375 C5 3 5 3 6.25 5.0625 C6.4975 5.701875 6.745 6.34125 7 7 C6.01 7.495 6.01 7.495 5 8 C2 7 2 7 0 4 C0 2.68 0 1.36 0 0 Z " fill="#71266A" transform="translate(523,845)"/>
<path d="M0 0 C2.97 0.495 2.97 0.495 6 1 C5.67 1.99 5.34 2.98 5 4 C5.95093297 5.69514137 6.95107762 7.36368108 8 9 C8 9.66 8 10.32 8 11 C7.34 11 6.68 11 6 11 C4.02 7.37 2.04 3.74 0 0 Z " fill="#993E92" transform="translate(549,777)"/>
<path d="M0 0 C0.66 0 1.32 0 2 0 C2 0.66 2 1.32 2 2 C2.639375 2.103125 3.27875 2.20625 3.9375 2.3125 C4.618125 2.539375 5.29875 2.76625 6 3 C6.33 3.99 6.66 4.98 7 6 C6.01 7.485 6.01 7.485 5 9 C5 8.34 5 7.68 5 7 C4.34 7 3.68 7 3 7 C2.67 6.01 2.34 5.02 2 4 C1.34 3.67 0.68 3.34 0 3 C0 2.01 0 1.02 0 0 Z " fill="#7E2D79" transform="translate(344,685)"/>
<path d="M0 0 C5.57142857 5.14285714 5.57142857 5.14285714 6 9 C4.68 8.67 3.36 8.34 2 8 C2 7.34 2 6.68 2 6 C1.34 6 0.68 6 0 6 C0 4.02 0 2.04 0 0 Z " fill="#853681" transform="translate(318,640)"/>
<path d="M0 0 C0.66 0 1.32 0 2 0 C5 5.625 5 5.625 5 9 C3.68 8.67 2.36 8.34 1 8 C0 1.125 0 1.125 0 0 Z " fill="#8A2E75" transform="translate(76,576)"/>
<path d="M0 0 C4.67692308 1.47692308 4.67692308 1.47692308 6.3125 4.125 C6.539375 4.74375 6.76625 5.3625 7 6 C5.35 6 3.7 6 2 6 C2 5.34 2 4.68 2 4 C1.34 4 0.68 4 0 4 C0 2.68 0 1.36 0 0 Z " fill="#83377F" transform="translate(208,346)"/>
<path d="M0 0 C2.64 0 5.28 0 8 0 C7.67 0.99 7.34 1.98 7 3 C4.69 3 2.38 3 0 3 C0 2.01 0 1.02 0 0 Z " fill="#A64E9E" transform="translate(552,1053)"/>
<path d="M0 0 C1.4540625 0.0309375 1.4540625 0.0309375 2.9375 0.0625 C2.9375 1.0525 2.9375 2.0425 2.9375 3.0625 C1.2875 3.7225 -0.3625 4.3825 -2.0625 5.0625 C-2.0625 4.0725 -2.0625 3.0825 -2.0625 2.0625 C-2.7225 1.7325 -3.3825 1.4025 -4.0625 1.0625 C-3.0625 0.0625 -3.0625 0.0625 0 0 Z " fill="#9E519C" transform="translate(705.0625,999.9375)"/>
<path d="M0 0 C0.99 0 1.98 0 3 0 C3 1.32 3 2.64 3 4 C3.66 4 4.32 4 5 4 C5 4.99 5 5.98 5 7 C3.68 7 2.36 7 1 7 C0.67 4.69 0.34 2.38 0 0 Z " fill="#7E2E76" transform="translate(606,864)"/>
<path d="M0 0 C3 1 3 1 4.75 3.9375 C5.1625 4.948125 5.575 5.95875 6 7 C5.67 7.66 5.34 8.32 5 9 C4.01 9 3.02 9 2 9 C1.22678118 6.01758453 0.58803797 3.02419525 0 0 Z " fill="#8B3186" transform="translate(338,673)"/>
<path d="M0 0 C0.66 0 1.32 0 2 0 C2 0.66 2 1.32 2 2 C2.99 2 3.98 2 5 2 C5 3.32 5 4.64 5 6 C3.68 6.33 2.36 6.66 1 7 C0.67 4.69 0.34 2.38 0 0 Z " fill="#812B78" transform="translate(254,304)"/>
<path d="M0 0 C3.16717283 1.58358642 4.73268318 2.45263699 6.3125 5.6875 C6.539375 6.450625 6.76625 7.21375 7 8 C5.68 8 4.36 8 3 8 C1.02 4.535 1.02 4.535 -1 1 C-0.67 0.67 -0.34 0.34 0 0 Z " fill="#944091" transform="translate(212,239)"/>
<path d="M0 0 C0.66 0 1.32 0 2 0 C1.25 4.75 1.25 4.75 -1 7 C-1.33 7.66 -1.66 8.32 -2 9 C-2.66 9 -3.32 9 -4 9 C-4.33 7.68 -4.66 6.36 -5 5 C-4.01 4.67 -3.02 4.34 -2 4 C-0.79117904 1.99983534 -0.79117904 1.99983534 0 0 Z " fill="#7B2B75" transform="translate(47,171)"/>
<path d="M0 0 C0.66 0 1.32 0 2 0 C2 0.66 2 1.32 2 2 C2.66 2 3.32 2 4 2 C4 2.66 4 3.32 4 4 C4.66 4 5.32 4 6 4 C6 5.65 6 7.3 6 9 C5.67 8.34 5.34 7.68 5 7 C4.34 7 3.68 7 3 7 C2.896875 6.360625 2.79375 5.72125 2.6875 5.0625 C2.460625 4.381875 2.23375 3.70125 2 3 C1.01 2.67 0.02 2.34 -1 2 C-0.67 1.34 -0.34 0.68 0 0 Z " fill="#812E77" transform="translate(671,966)"/>
<path d="M0 0 C1.32 0 2.64 0 4 0 C6 3 6 3 6 7 C5.34 7 4.68 7 4 7 C4 6.34 4 5.68 4 5 C3.34 5 2.68 5 2 5 C1.34 3.35 0.68 1.7 0 0 Z " fill="#7F2E77" transform="translate(570,921)"/>
<path d="M0 0 C2.40072955 2.88087546 4.47291037 5.56404834 6 9 C4.02 9.99 4.02 9.99 2 11 C0.80712589 7.12315913 0 4.08378077 0 0 Z " fill="#8D3D7F" transform="translate(254,533)"/>
<path d="M0 0 C-1.24976756 3.65316671 -1.67098753 4.78065836 -5 7 C-5 6.34 -5 5.68 -5 5 C-5.66 4.67 -6.32 4.34 -7 4 C-2.25 0 -2.25 0 0 0 Z " fill="#763072" transform="translate(398,290)"/>
<path d="M0 0 C0.66 0 1.32 0 2 0 C4.1875 2.8125 4.1875 2.8125 6 6 C5.67 6.99 5.34 7.98 5 9 C4.67 8.34 4.34 7.68 4 7 C3.34 7 2.68 7 2 7 C2 5.68 2 4.36 2 3 C1.01 3 0.02 3 -1 3 C-0.67 2.01 -0.34 1.02 0 0 Z " fill="#7E2A7A" transform="translate(138,235)"/>
<path d="M0 0 C2 0 2 0 3.5625 1.5 C4.036875 1.995 4.51125 2.49 5 3 C5.33 3 5.66 3 6 3 C6 4.98 6 6.96 6 9 C5.01 9 4.02 9 3 9 C3.33 7.68 3.66 6.36 4 5 C3.34 5 2.68 5 2 5 C1.34 3.35 0.68 1.7 0 0 Z " fill="#772A74" transform="translate(128,219)"/>
<path d="M0 0 C1.32 0.33 2.64 0.66 4 1 C3.01 1 2.02 1 1 1 C1.33 1.99 1.66 2.98 2 4 C1.34 4.66 0.68 5.32 0 6 C-2.625 5.625 -2.625 5.625 -5 5 C-4.01 4.67 -3.02 4.34 -2 4 C-2 3.34 -2 2.68 -2 2 C-1.34 2 -0.68 2 0 2 C0 1.34 0 0.68 0 0 Z " fill="#833777" transform="translate(741,976)"/>
<path d="M0 0 C0.66 0 1.32 0 2 0 C2 0.66 2 1.32 2 2 C2.66 2 3.32 2 4 2 C4.66 3.65 5.32 5.3 6 7 C4.68 7.33 3.36 7.66 2 8 C1.34 5.36 0.68 2.72 0 0 Z " fill="#7D2A74" transform="translate(185,768)"/>
<path d="M0 0 C3 1 3 1 5 4 C5 5.32 5 6.64 5 8 C4.34 8 3.68 8 3 8 C1 5 1 5 1 2 C0.34 1.67 -0.32 1.34 -1 1 C-0.67 0.67 -0.34 0.34 0 0 Z " fill="#7B2C78" transform="translate(130,680)"/>
<path d="M0 0 C2.5 1.3125 2.5 1.3125 5 3 C5 3.99 5 4.98 5 6 C4.01 6 3.02 6 2 6 C1.67 6.99 1.34 7.98 1 9 C0.67 6.03 0.34 3.06 0 0 Z " fill="#7C2872" transform="translate(257,541)"/>
<path d="M0 0 C0.99 1.32 1.98 2.64 3 4 C2.67 4.66 2.34 5.32 2 6 C-0.0625 6.625 -0.0625 6.625 -2 7 C-2 5.02 -2 3.04 -2 1 C-1.34 0.67 -0.68 0.34 0 0 Z " fill="#7A2975" transform="translate(250,526)"/>
<path d="M0 0 C0.66 0 1.32 0 2 0 C3.75 2.25 3.75 2.25 5 5 C4.1875 7.3125 4.1875 7.3125 3 9 C0.70620251 5.55930376 0 4.27709699 0 0 Z " fill="#802E7B" transform="translate(394,251)"/>
<path d="M0 0 C-1 1.5625 -1 1.5625 -3 3 C-5.76614782 2.96726452 -8.26030547 2.49404328 -11 2 C-7.36576791 -0.32590854 -4.22911669 -0.16265833 0 0 Z " fill="#7C367A" transform="translate(541,1050)"/>
<path d="M0 0 C-4.75 3 -4.75 3 -7 3 C-7 3.66 -7 4.32 -7 5 C-7.66 5 -8.32 5 -9 5 C-8.75 3.125 -8.75 3.125 -8 1 C-5.08518252 -1.1107299 -3.34823603 -1.19579858 0 0 Z " fill="#994A97" transform="translate(724,993)"/>
<path d="M0 0 C2.76276177 0.52268466 5.3260876 1.10869587 8 2 C8 2.99 8 3.98 8 5 C5.03 4.505 5.03 4.505 2 4 C2 3.01 2 2.02 2 1 C1.34 0.67 0.68 0.34 0 0 Z " fill="#7D2F79" transform="translate(367,970)"/>
<path d="M0 0 C1.98 0 3.96 0 6 0 C6.33 1.98 6.66 3.96 7 6 C6.34 6 5.68 6 5 6 C5 5.34 5 4.68 5 4 C4.01 4 3.02 4 2 4 C2 3.34 2 2.68 2 2 C1.34 2 0.68 2 0 2 C0 1.34 0 0.68 0 0 Z " fill="#94268E" transform="translate(769,954)"/>
<path d="M0 0 C2.97 0.495 2.97 0.495 6 1 C6.33 1.99 6.66 2.98 7 4 C3.25 5.125 3.25 5.125 1 4 C0.375 1.9375 0.375 1.9375 0 0 Z " fill="#81327A" transform="translate(337,945)"/>
<path d="M0 0 C0.99 1.32 1.98 2.64 3 4 C3.66 3.67 4.32 3.34 5 3 C5 4.65 5 6.3 5 8 C1.63983107 6.87994369 0.30935087 5.62788203 -2 3 C-2 2.34 -2 1.68 -2 1 C-1.34 0.67 -0.68 0.34 0 0 Z " fill="#A05E9C" transform="translate(300,909)"/>
<path d="M0 0 C1.65 0 3.3 0 5 0 C5 2.31 5 4.62 5 7 C3.29115995 5.37660195 1.62553283 3.70680947 0 2 C0 1.34 0 0.68 0 0 Z " fill="#792976" transform="translate(252,858)"/>
<path d="M0 0 C1.875 0.625 1.875 0.625 4 2 C5.25 5.125 5.25 5.125 6 8 C5.01 8.66 4.02 9.32 3 10 C2.87625 9.278125 2.7525 8.55625 2.625 7.8125 C2.0095069 5.04278106 1.11555626 2.6029646 0 0 Z " fill="#7B2C74" transform="translate(553,780)"/>
<path d="M0 0 C1.32 1.32 2.64 2.64 4 4 C3.34 5.32 2.68 6.64 2 8 C2 7.34 2 6.68 2 6 C1.34 6 0.68 6 0 6 C-1.125 2.25 -1.125 2.25 0 0 Z " fill="#81377C" transform="translate(725,772)"/>
<path d="M0 0 C0.66 0 1.32 0 2 0 C2 0.66 2 1.32 2 2 C2.66 2 3.32 2 4 2 C4 3.65 4 5.3 4 7 C2.35 6.01 0.7 5.02 -1 4 C-0.67 2.68 -0.34 1.36 0 0 Z " fill="#803076" transform="translate(113,650)"/>
<path d="M0 0 C4.875 3.625 4.875 3.625 6 7 C5.34 7.66 4.68 8.32 4 9 C3.67 8.01 3.34 7.02 3 6 C2.34 6 1.68 6 1 6 C0.67 4.02 0.34 2.04 0 0 Z " fill="#822877" transform="translate(293,600)"/>
<path d="M0 0 C2.25245881 2.68841859 3.88213958 4.64641875 5 8 C3.35 7.67 1.7 7.34 0 7 C0 4.69 0 2.38 0 0 Z " fill="#894585" transform="translate(202,332)"/>
<path d="M0 0 C0.33 0.99 0.66 1.98 1 3 C-1.97 4.65 -4.94 6.3 -8 8 C-7.67 6.68 -7.34 5.36 -7 4 C-6.01 4 -5.02 4 -4 4 C-4 3.34 -4 2.68 -4 2 C-2.68 2 -1.36 2 0 2 C0 1.34 0 0.68 0 0 Z " fill="#A13090" transform="translate(378,305)"/>
<path d="M0 0 C2.46800047 1.15173355 4.04783565 2.04783565 6 4 C6.125 6.625 6.125 6.625 6 9 C3.03134491 6.45543849 1.6380249 3.51005335 0 0 Z " fill="#9A4290" transform="translate(227,265)"/>
<path d="M0 0 C0.66 0.33 1.32 0.66 2 1 C2 1.99 2 2.98 2 4 C-1 5 -1 5 -5 5 C-4 2 -4 2 -2.0625 0.75 C-1.381875 0.5025 -0.70125 0.255 0 0 Z " fill="#8C3B87" transform="translate(232,41)"/>
<path d="M0 0 C0 0.99 0 1.98 0 3 C0.66 3.33 1.32 3.66 2 4 C2 4.66 2 5.32 2 6 C0.68 6 -0.64 6 -2 6 C-2.66 4.35 -3.32 2.7 -4 1 C-2 0 -2 0 0 0 Z " fill="#7D3173" transform="translate(687,988)"/>
<path d="M0 0 C1.32 0 2.64 0 4 0 C4 0.66 4 1.32 4 2 C4.66 2.33 5.32 2.66 6 3 C5.01 4.485 5.01 4.485 4 6 C2 4.6875 2 4.6875 0 3 C0 2.01 0 1.02 0 0 Z " fill="#782776" transform="translate(389,986)"/>
<path d="M0 0 C2.79872437 2.52788007 4.45773019 4.20411134 5 8 C4.01 8 3.02 8 2 8 C1.87625 7.360625 1.7525 6.72125 1.625 6.0625 C1.315625 5.0415625 1.315625 5.0415625 1 4 C0.34 3.67 -0.32 3.34 -1 3 C-0.67 2.01 -0.34 1.02 0 0 Z " fill="#9A3F93" transform="translate(778,856)"/>
<path d="M0 0 C0.99 0 1.98 0 3 0 C4.0625 1.8125 4.0625 1.8125 5 4 C4.67 4.99 4.34 5.98 4 7 C4 6.34 4 5.68 4 5 C2.68 4.67 1.36 4.34 0 4 C0 2.66666667 0 1.33333333 0 0 Z " fill="#7B2E71" transform="translate(171,748)"/>
<path d="M0 0 C1.485 0.99 1.485 0.99 3 2 C3.1875 4.625 3.1875 4.625 3 7 C2.01 7 1.02 7 0 7 C-1.125 2.25 -1.125 2.25 0 0 Z " fill="#763073" transform="translate(381,733)"/>
<path d="M0 0 C0.33 1.65 0.66 3.3 1 5 C-0.875 4.6875 -0.875 4.6875 -3 4 C-3.66 3.01 -4.32 2.02 -5 1 C-3 0 -3 0 0 0 Z " fill="#792C71" transform="translate(164,732)"/>
<path d="M0 0 C0 3 0 3 -1 6 C-2.65 6 -4.3 6 -6 6 C-4.75453595 2.26360784 -3.36595047 1.81243487 0 0 Z " fill="#9A3F96" transform="translate(591,716)"/>
<path d="M0 0 C0.99 0.33 1.98 0.66 3 1 C3.33 1.99 3.66 2.98 4 4 C3.01 4.495 3.01 4.495 2 5 C2 4.34 2 3.68 2 3 C-0.475 4.485 -0.475 4.485 -3 6 C-3 4.68 -3 3.36 -3 2 C-2.01 2 -1.02 2 0 2 C0 1.34 0 0.68 0 0 Z " fill="#9C4293" transform="translate(684,708)"/>
<path d="M0 0 C0.66 0 1.32 0 2 0 C2.33 0.99 2.66 1.98 3 3 C0.64031256 5.09749995 -0.54616994 5.96905704 -3.75 6.1875 C-4.86375 6.0946875 -4.86375 6.0946875 -6 6 C-5.195625 5.38125 -4.39125 4.7625 -3.5625 4.125 C-0.96125481 2.25835959 -0.96125481 2.25835959 0 0 Z " fill="#792671" transform="translate(637,688)"/>
<path d="M0 0 C1.32 0 2.64 0 4 0 C4 1.65 4 3.3 4 5 C3.01 5.33 2.02 5.66 1 6 C0.67 4.02 0.34 2.04 0 0 Z " fill="#8A3681" transform="translate(41,492)"/>
<path d="M0 0 C0.66 0 1.32 0 2 0 C2 2.64 2 5.28 2 8 C1.01 8.495 1.01 8.495 0 9 C0 7.35 0 5.7 0 4 C-0.66 3.67 -1.32 3.34 -2 3 C-1.34 2.01 -0.68 1.02 0 0 Z " fill="#7F2A76" transform="translate(400,258)"/>
<path d="M0 0 C1.32 0 2.64 0 4 0 C4.33 1.65 4.66 3.3 5 5 C4.01 5 3.02 5 2 5 C1.34 3.35 0.68 1.7 0 0 Z " fill="#7F3379" transform="translate(203,226)"/>
<path d="M0 0 C0.66 0 1.32 0 2 0 C1.37240135 2.92879371 0.41377341 5.36095629 -1 8 C-2.0625 6.125 -2.0625 6.125 -3 4 C-2.67 3.34 -2.34 2.68 -2 2 C-1.34 2 -0.68 2 0 2 C0 1.34 0 0.68 0 0 Z " fill="#832B7B" transform="translate(31,203)"/>
<path d="M0 0 C0.33 0.66 0.66 1.32 1 2 C1.66 2 2.32 2 3 2 C4.0625 3.75 4.0625 3.75 5 6 C4.67 7.32 4.34 8.64 4 10 C2.35 7.03 0.7 4.06 -1 1 C-0.67 0.67 -0.34 0.34 0 0 Z " fill="#9B3495" transform="translate(178,185)"/>
<path d="M0 0 C0.33 0.66 0.66 1.32 1 2 C0.0625 4.625 0.0625 4.625 -1 7 C-2.32 7 -3.64 7 -5 7 C-3.70700306 4.11562221 -2.34058637 2.12780579 0 0 Z " fill="#9B5C96" transform="translate(60,153)"/>
<path d="M0 0 C0.99 0.33 1.98 0.66 3 1 C3 3.64 3 6.28 3 9 C0.98863724 6.44008376 -0.62845496 3.95409701 -2 1 C-1.34 0.67 -0.68 0.34 0 0 Z " fill="#923E8D" transform="translate(150,139)"/>
<path d="M0 0 C-0.33 1.65 -0.66 3.3 -1 5 C-2.32 5 -3.64 5 -5 5 C-4.625 3.0625 -4.625 3.0625 -4 1 C-2 0 -2 0 0 0 Z " fill="#93468C" transform="translate(144,97)"/>
<path d="M0 0 C1.9375 0.6875 1.9375 0.6875 4 2 C4.75 4.625 4.75 4.625 5 7 C2 6 2 6 0 3 C0 2.01 0 1.02 0 0 Z " fill="#7E2B7B" transform="translate(629,1013)"/>
<path d="M0 0 C0.66 0 1.32 0 2 0 C2 0.66 2 1.32 2 2 C2.66 2 3.32 2 4 2 C3.67 3.32 3.34 4.64 3 6 C2.01 5.67 1.02 5.34 0 5 C-0.33 4.01 -0.66 3.02 -1 2 C-0.67 1.34 -0.34 0.68 0 0 Z " fill="#7B2B78" transform="translate(689,996)"/>
<path d="M0 0 C1.32 0 2.64 0 4 0 C4 0.99 4 1.98 4 3 C2.02 3.66 0.04 4.32 -2 5 C-1.34 3.35 -0.68 1.7 0 0 Z " fill="#883485" transform="translate(777,954)"/>
<path d="M0 0 C2 1.75 2 1.75 4 4 C4 5.32 4 6.64 4 8 C3.34 8 2.68 8 2 8 C-0.1519437 4.77208445 -0.20086443 3.71599191 0 0 Z " fill="#8F3185" transform="translate(588,946)"/>
<path d="M0 0 C1.98 0.99 1.98 0.99 4 2 C4 2.99 4 3.98 4 5 C4.66 5 5.32 5 6 5 C6.33 6.32 6.66 7.64 7 9 C4 8 4 8 2.83203125 6.15234375 C2.49558594 5.42144531 2.15914062 4.69054687 1.8125 3.9375 C1.46832031 3.20402344 1.12414062 2.47054687 0.76953125 1.71484375 C0.51558594 1.14894531 0.26164063 0.58304688 0 0 Z " fill="#9A478F" transform="translate(600,858)"/>
<path d="M0 0 C0.99 0 1.98 0 3 0 C3.33 1.65 3.66 3.3 4 5 C2.68 5 1.36 5 0 5 C-0.33 4.01 -0.66 3.02 -1 2 C-0.67 1.34 -0.34 0.68 0 0 Z " fill="#762A72" transform="translate(241,842)"/>
<path d="M0 0 C2.475 0.99 2.475 0.99 5 2 C5 3.65 5 5.3 5 7 C4.34 7 3.68 7 3 7 C2.01 4.69 1.02 2.38 0 0 Z " fill="#7F2F77" transform="translate(699,735)"/>
<path d="M0 0 C1.65 1.65 3.3 3.3 5 5 C3.02 5.99 3.02 5.99 1 7 C-0.0625 4.625 -0.0625 4.625 -1 2 C-0.67 1.34 -0.34 0.68 0 0 Z " fill="#9E4798" transform="translate(375,725)"/>
<path d="M0 0 C0.99 0.33 1.98 0.66 3 1 C3 1.99 3 2.98 3 4 C1.35 4.33 -0.3 4.66 -2 5 C-2 3.68 -2 2.36 -2 1 C-1.34 0.67 -0.68 0.34 0 0 Z " fill="#782975" transform="translate(578,724)"/>
<path d="M0 0 C0.763125 0.20625 1.52625 0.4125 2.3125 0.625 C0.6625 1.945 -0.9875 3.265 -2.6875 4.625 C-3.0175 3.965 -3.3475 3.305 -3.6875 2.625 C-4.3475 2.295 -5.0075 1.965 -5.6875 1.625 C-2.6875 -0.375 -2.6875 -0.375 0 0 Z " fill="#702D6A" transform="translate(347.6875,324.375)"/>
<path d="M0 0 C0.66 0 1.32 0 2 0 C2 0.66 2 1.32 2 2 C2.66 2 3.32 2 4 2 C4 2.99 4 3.98 4 5 C2.68 5.33 1.36 5.66 0 6 C-0.66 4.68 -1.32 3.36 -2 2 C-1.34 2 -0.68 2 0 2 C0 1.34 0 0.68 0 0 Z " fill="#7F2A6C" transform="translate(161,156)"/>
<path d="M0 0 C2.09749995 2.35968744 2.96905704 3.54616994 3.1875 6.75 C3.125625 7.4925 3.06375 8.235 3 9 C0.4277953 7.71389765 -0.00974907 6.66606019 -1 4 C-0.625 1.75 -0.625 1.75 0 0 Z " fill="#7D2B75" transform="translate(293,85)"/>
<path d="M0 0 C2.62386487 3.06117568 3 3.73173127 3 8 C2.34 8 1.68 8 1 8 C1 7.34 1 6.68 1 6 C0.34 6 -0.32 6 -1 6 C-0.67 4.02 -0.34 2.04 0 0 Z " fill="#84307C" transform="translate(281,66)"/>
<path d="M0 0 C3.3 0 6.6 0 10 0 C10 0.33 10 0.66 10 1 C7.03 1.66 4.06 2.32 1 3 C0.67 2.01 0.34 1.02 0 0 Z " fill="#823477" transform="translate(547,1052)"/>
<path d="M0 0 C2.16874252 0.50603992 3.99967627 0.99983813 6 2 C5.67 2.99 5.34 3.98 5 5 C3.02 4.01 1.04 3.02 -1 2 C-0.67 1.34 -0.34 0.68 0 0 Z " fill="#A242A0" transform="translate(468,1029)"/>
<path d="M0 0 C0.99 0 1.98 0 3 0 C3.99 1.98 4.98 3.96 6 6 C4.68 6 3.36 6 2 6 C2 5.01 2 4.02 2 3 C1.34 3 0.68 3 0 3 C0 2.01 0 1.02 0 0 Z " fill="#914B8E" transform="translate(619,997)"/>
<path d="M0 0 C1.32 0 2.64 0 4 0 C4 0.66 4 1.32 4 2 C4.66 2.33 5.32 2.66 6 3 C5.01 3.66 4.02 4.32 3 5 C2.01 4.34 1.02 3.68 0 3 C0 2.01 0 1.02 0 0 Z " fill="#6F2B6B" transform="translate(401,994)"/>
<path d="M0 0 C0.66 0 1.32 0 2 0 C2 0.66 2 1.32 2 2 C2.66 2 3.32 2 4 2 C4 2.66 4 3.32 4 4 C3.34 4 2.68 4 2 4 C1.67 4.99 1.34 5.98 1 7 C-0.0625 4.625 -0.0625 4.625 -1 2 C-0.67 1.34 -0.34 0.68 0 0 Z " fill="#952A8E" transform="translate(667,960)"/>
<path d="M0 0 C1.65 0 3.3 0 5 0 C5 0.99 5 1.98 5 3 C4.34 3 3.68 3 3 3 C2.67 3.66 2.34 4.32 2 5 C1.34 4.34 0.68 3.68 0 3 C0 2.01 0 1.02 0 0 Z " fill="#81317A" transform="translate(287,896)"/>
<path d="M0 0 C1.32 0.33 2.64 0.66 4 1 C4 2.65 4 4.3 4 6 C3.34 6 2.68 6 2 6 C0 3 0 3 0 0 Z " fill="#732370" transform="translate(540,872)"/>
<path d="M0 0 C0.33 0.66 0.66 1.32 1 2 C1.66 2 2.32 2 3 2 C3.33 2.99 3.66 3.98 4 5 C1.625 4.6875 1.625 4.6875 -1 4 C-1.66 3.01 -2.32 2.02 -3 1 C-2.01 0.67 -1.02 0.34 0 0 Z " fill="#863B7A" transform="translate(245,846)"/>
<path d="M0 0 C0.66 0 1.32 0 2 0 C2 0.66 2 1.32 2 2 C2.66 2 3.32 2 4 2 C4.66 3.65 5.32 5.3 6 7 C5.34 7 4.68 7 4 7 C4 6.34 4 5.68 4 5 C2.68 4.67 1.36 4.34 0 4 C0 2.68 0 1.36 0 0 Z " fill="#7E2C78" transform="translate(233,832)"/>
<path d="M0 0 C1.9375 0.8125 1.9375 0.8125 4 2 C4.33 2.99 4.66 3.98 5 5 C3.35 5 1.7 5 0 5 C-0.5625 3.0625 -0.5625 3.0625 -1 1 C-0.67 0.67 -0.34 0.34 0 0 Z " fill="#782973" transform="translate(157,726)"/>
<path d="M0 0 C3 3.625 3 3.625 3 7 C1.68 7 0.36 7 -1 7 C-0.67 4.69 -0.34 2.38 0 0 Z " fill="#782A72" transform="translate(126,672)"/>
<path d="M0 0 C0.99 0.33 1.98 0.66 3 1 C4.6875 4.5625 4.6875 4.5625 6 8 C5.01 8.495 5.01 8.495 4 9 C2.68 6.03 1.36 3.06 0 0 Z " fill="#8E4388" transform="translate(104,638)"/>
<path d="M0 0 C0.66 0 1.32 0 2 0 C1.1875 2.9375 1.1875 2.9375 0 6 C-0.99 6.33 -1.98 6.66 -3 7 C-2.67 5.35 -2.34 3.7 -2 2 C-1.34 2 -0.68 2 0 2 C0 1.34 0 0.68 0 0 Z " fill="#933189" transform="translate(238,411)"/>
<path d="M0 0 C0.99 0 1.98 0 3 0 C3 0.66 3 1.32 3 2 C3.66 2 4.32 2 5 2 C5.33 2.99 5.66 3.98 6 5 C4.35 5.33 2.7 5.66 1 6 C0.67 4.02 0.34 2.04 0 0 Z " fill="#76296D" transform="translate(286,356)"/>
<path d="M0 0 C0.99 0 1.98 0 3 0 C3 1.98 3 3.96 3 6 C2.34 6 1.68 6 1 6 C0.34 4.35 -0.32 2.7 -1 1 C-0.67 0.67 -0.34 0.34 0 0 Z " fill="#752870" transform="translate(213,352)"/>
<path d="M0 0 C0.99 0.33 1.98 0.66 3 1 C3.33333333 2.33333333 3.66666667 3.66666667 4 5 C4.99 5.33 5.98 5.66 7 6 C6.34 6 5.68 6 5 6 C4.67 6.66 4.34 7.32 4 8 C0 2.25 0 2.25 0 0 Z " fill="#792570" transform="translate(186,311)"/>
<path d="M0 0 C0.99 0.33 1.98 0.66 3 1 C0.69 2.65 -1.62 4.3 -4 6 C-4.66 5.34 -5.32 4.68 -6 4 C-5.360625 3.87625 -4.72125 3.7525 -4.0625 3.625 C-3.0415625 3.315625 -3.0415625 3.315625 -2 3 C-1.67 2.34 -1.34 1.68 -1 1 C-0.67 0.67 -0.34 0.34 0 0 Z " fill="#9E4B99" transform="translate(386,300)"/>
<path d="M0 0 C0.66 0.66 1.32 1.32 2 2 C-0.97 4.475 -0.97 4.475 -4 7 C-4 5.68 -4 4.36 -4 3 C-2 1.25 -2 1.25 0 0 Z " fill="#9F569A" transform="translate(800,940)"/>
<path d="M0 0 C0.66 0 1.32 0 2 0 C2 0.66 2 1.32 2 2 C2.66 2 3.32 2 4 2 C4 2.99 4 3.98 4 5 C3.01 5.33 2.02 5.66 1 6 C0.34 5.01 -0.32 4.02 -1 3 C-0.67 2.01 -0.34 1.02 0 0 Z " fill="#793171" transform="translate(653,938)"/>
<path d="M0 0 C0.99 0 1.98 0 3 0 C2.67 3.3 2.34 6.6 2 10 C1.67 10 1.34 10 1 10 C0.67 6.7 0.34 3.4 0 0 Z " fill="#832C7B" transform="translate(807,911)"/>
<path d="M0 0 C3 0 3 0 5.1875 1.8125 C7 4 7 4 7 7 C3.00003714 5.66667905 2.16217663 3.5042173 0 0 Z " fill="#964087" transform="translate(234,837)"/>
<path d="M0 0 C0.66 0 1.32 0 2 0 C2 0.66 2 1.32 2 2 C2.66 2 3.32 2 4 2 C4.66 3.65 5.32 5.3 6 7 C4.125 6.875 4.125 6.875 2 6 C0.75 2.9375 0.75 2.9375 0 0 Z " fill="#812A77" transform="translate(165,738)"/>
<path d="M0 0 C2.475 0.99 2.475 0.99 5 2 C5 3.65 5 5.3 5 7 C2.47411298 4.63707344 1.11179163 3.33537489 0 0 Z " fill="#7E2978" transform="translate(325,655)"/>
<path d="M0 0 C0.99 0.33 1.98 0.66 3 1 C2.67 2.98 2.34 4.96 2 7 C1.67 6.01 1.34 5.02 1 4 C0.34 4 -0.32 4 -1 4 C-0.67 2.68 -0.34 1.36 0 0 Z " fill="#813178" transform="translate(230,426)"/>
<path d="M0 0 C0.99 0 1.98 0 3 0 C3 1.65 3 3.3 3 5 C2.01 5.495 2.01 5.495 1 6 C0.34 4.35 -0.32 2.7 -1 1 C-0.67 0.67 -0.34 0.34 0 0 Z " fill="#76306F" transform="translate(261,316)"/>
<path d="M0 0 C0.99 1.32 1.98 2.64 3 4 C2.67 4.66 2.34 5.32 2 6 C1.34 6 0.68 6 0 6 C0 5.34 0 4.68 0 4 C-0.66 4 -1.32 4 -2 4 C-2 3.01 -2 2.02 -2 1 C-1.34 0.67 -0.68 0.34 0 0 Z " fill="#7D357A" transform="translate(164,272)"/>
<path d="M0 0 C2.2477975 2.05233685 3.0022242 3.00667261 4 6 C3.01 6.495 3.01 6.495 2 7 C0.4375 5.75 0.4375 5.75 -1 4 C-0.6875 1.8125 -0.6875 1.8125 0 0 Z " fill="#9E4A9C" transform="translate(134,224)"/>
<path d="M0 0 C0.66 0 1.32 0 2 0 C1.34 2.64 0.68 5.28 0 8 C-0.66 7.67 -1.32 7.34 -2 7 C-1.125 2.25 -1.125 2.25 0 0 Z " fill="#802C79" transform="translate(35,194)"/>
<path d="M0 0 C1.32 0.66 2.64 1.32 4 2 C3.67 2.99 3.34 3.98 3 5 C2.01 5 1.02 5 0 5 C-0.5625 3.0625 -0.5625 3.0625 -1 1 C-0.67 0.67 -0.34 0.34 0 0 Z " fill="#7B2B77" transform="translate(81,143)"/>
<path d="M0 0 C0.99 0.33 1.98 0.66 3 1 C2.34 2.32 1.68 3.64 1 5 C0.01 5 -0.98 5 -2 5 C-2 3.68 -2 2.36 -2 1 C-1.34 0.67 -0.68 0.34 0 0 Z " fill="#903A7B" transform="translate(75,139)"/>
<path d="M0 0 C2.0625 0.4375 2.0625 0.4375 4 1 C3.67 2.32 3.34 3.64 3 5 C2.01 5 1.02 5 0 5 C-0.5625 3.0625 -0.5625 3.0625 -1 1 C-0.67 0.67 -0.34 0.34 0 0 Z " fill="#7C2C70" transform="translate(307,111)"/>
<path d="M0 0 C0 0.66 0 1.32 0 2 C-0.66 2 -1.32 2 -2 2 C-2.33 3.32 -2.66 4.64 -3 6 C-3.99 6 -4.98 6 -6 6 C-6 5.01 -6 4.02 -6 3 C-2.66666667 0 -2.66666667 0 0 0 Z " fill="#792B75" transform="translate(136,104)"/>
<path d="M0 0 C1.32 0.33 2.64 0.66 4 1 C4 2.32 4 3.64 4 5 C3.01 5.33 2.02 5.66 1 6 C0.67 4.02 0.34 2.04 0 0 Z " fill="#812A79" transform="translate(284,75)"/>
<path d="M0 0 C0 0.99 0 1.98 0 3 C0.66 3.66 1.32 4.32 2 5 C-1.75 6.125 -1.75 6.125 -4 5 C-4 4.34 -4 3.68 -4 3 C-2 1.375 -2 1.375 0 0 Z " fill="#932A89" transform="translate(210,54)"/>
<path d="M0 0 C2 1 2 1 2 1 Z " fill="#FFFFFF" transform="translate(642,1044)"/>
<path d="" fill="#FFFFFF" transform="translate(0,0)"/>
<path d="" fill="#FFFFFF" transform="translate(0,0)"/>
</svg>
