<?xml version="1.0" encoding="UTF-8"?>
<svg version="1.1" xmlns="http://www.w3.org/2000/svg" width="360" height="360">
<path d="M0 0 C1.07189532 -0.00594224 2.14379064 -0.01188449 3.24816763 -0.0180068 C6.84057644 -0.03535208 10.43285172 -0.03839488 14.02529907 -0.04138184 C16.60117883 -0.05064048 19.17705585 -0.06069011 21.75292969 -0.07147217 C28.7534185 -0.0985963 35.75388433 -0.11068279 42.75441694 -0.11949348 C47.13160782 -0.12502792 51.50878994 -0.1335046 55.88597488 -0.14250183 C68.02112713 -0.16688614 80.15627238 -0.18748203 92.29144859 -0.19425201 C93.06766224 -0.19469115 93.84387589 -0.19513028 94.64361117 -0.19558272 C95.81062665 -0.19623755 95.81062665 -0.19623755 97.0012182 -0.19690561 C98.57760454 -0.19779252 100.15399087 -0.19868565 101.7303772 -0.19958496 C102.51230952 -0.20002782 103.29424184 -0.20047068 104.09986909 -0.20092696 C116.75024421 -0.20881122 129.40038809 -0.24368366 142.05067401 -0.29030401 C155.05965311 -0.33785623 168.06851656 -0.36266153 181.07758391 -0.36498785 C188.37307241 -0.36681486 195.66825993 -0.37815332 202.96366501 -0.41462708 C209.83386034 -0.44885511 216.70347832 -0.45184159 223.57373428 -0.43434906 C226.08584879 -0.43281454 228.59799462 -0.44141127 231.11003113 -0.46126556 C250.79660962 -0.6076487 268.05638936 1.63643313 283.04727173 15.81994629 C293.96967648 27.34283986 301.00797433 39.66747473 300.87834167 55.72885132 C300.8852872 56.83965502 300.89223273 57.95045872 300.89938873 59.09492314 C300.91759808 62.7949759 300.90741077 66.49438311 300.89712524 70.19445801 C300.9041868 72.85625174 300.91279682 75.51800054 300.92323303 78.17977905 C300.94481578 84.64620081 300.94476081 91.11244619 300.93660749 97.5788921 C300.93029346 102.83791192 300.93145734 108.09688051 300.93787956 113.35589981 C300.93878122 114.10597849 300.93968287 114.85605718 300.94061185 115.62886552 C300.94246316 117.15292542 300.94432572 118.6769853 300.94619941 120.20104517 C300.96275823 134.47584934 300.95407536 148.75055453 300.93721383 163.02535273 C300.92252187 176.06614732 300.9371415 189.1067114 300.96598399 202.1474763 C300.9954238 215.55886311 301.00633673 228.97014371 300.99680179 242.3815614 C300.99577931 243.90045299 300.9947847 245.41934461 300.99381828 246.93823624 C300.99334189 247.68543581 300.9928655 248.43263538 300.99237468 249.20247736 C300.99021641 254.44985436 300.99998332 259.69713014 301.01458931 264.94448471 C301.03216345 271.34715225 301.0319231 277.74952618 301.00923765 284.15218244 C300.99814043 287.41462593 300.99756258 290.67644998 301.01353836 293.93888855 C301.02952991 297.48606283 301.01445799 301.03183961 300.99186707 304.57894897 C301.00370279 305.59551162 301.01553852 306.61207426 301.02773291 307.65944183 C300.85065816 321.41839008 293.67458468 332.71176742 284.91445923 342.81213379 C283.36367798 344.28088379 283.36367798 344.28088379 281.36367798 344.28088379 C281.36367798 344.94088379 281.36367798 345.60088379 281.36367798 346.28088379 C272.9252207 352.64983348 262.52372578 359.3913171 251.66711235 359.41510487 C250.72131494 359.41956271 249.77551754 359.42402055 248.8010596 359.42861348 C247.76508518 359.42842912 246.72911075 359.42824476 245.66174316 359.42805481 C244.55873843 359.4317315 243.4557337 359.43540819 242.31930459 359.43919629 C238.60996995 359.45024105 234.90066332 359.45407833 231.1913147 359.45788574 C228.53703138 359.46414979 225.88275107 359.47078374 223.22846985 359.47779846 C215.25375405 359.49754906 207.27903701 359.5076274 199.30430287 359.51652625 C195.54694453 359.52091154 191.7895876 359.52627774 188.03223038 359.53151512 C175.53856893 359.54852616 163.04490835 359.56301968 150.55123711 359.57026386 C147.31000645 359.57217369 144.0687758 359.57409403 140.82754517 359.5760498 C140.02197367 359.57653354 139.21640218 359.57701729 138.38641943 359.57751568 C125.34070179 359.58581356 112.29507592 359.61114691 99.24939834 359.64363048 C85.84953453 359.67672339 72.44971732 359.69471465 59.04981244 359.6979081 C51.52875459 359.70007116 44.00783056 359.70878977 36.48681259 359.73436928 C30.0807057 359.75610684 23.67476513 359.76411176 17.26862554 359.7544025 C14.00248045 359.7498665 10.7367489 359.7538977 7.47063637 359.77116394 C3.92264104 359.78886855 0.37551082 359.78178254 -3.17248535 359.76863098 C-4.19507545 359.77960023 -5.21766554 359.79056947 -6.27124321 359.80187112 C-17.14422215 359.70482972 -25.75608705 355.25952223 -34.63632202 349.28088379 C-35.54640015 348.6788916 -36.45647827 348.07689941 -37.39413452 347.45666504 C-43.19823188 343.21272199 -47.05548515 338.71328376 -50.57382202 332.53088379 C-50.92710571 331.91229492 -51.2803894 331.29370605 -51.64437866 330.65637207 C-52.75186597 328.56766428 -53.69636181 326.45052105 -54.63632202 324.28088379 C-54.98227102 323.49320523 -55.32822002 322.70552668 -55.68465233 321.89397907 C-60.00040218 310.25622924 -59.21308927 298.15512488 -59.18563843 285.91638184 C-59.19434314 283.34931854 -59.20471293 280.78226043 -59.21661377 278.21520996 C-59.24198804 271.99050451 -59.24571024 265.76597208 -59.24101324 259.54122361 C-59.23743302 254.47633903 -59.24097573 249.41150656 -59.24946213 244.34662819 C-59.25065251 243.62308912 -59.25184288 242.89955005 -59.25306933 242.15408555 C-59.25549308 240.68374619 -59.25792135 239.21340683 -59.26035409 237.74306748 C-59.28205915 223.98365424 -59.27780202 210.22433926 -59.26558439 196.46492056 C-59.25525075 183.90873793 -59.27775239 171.35286584 -59.31578083 158.79674461 C-59.35463155 145.86888463 -59.37103322 132.94117123 -59.36353433 120.01325256 C-59.35972433 112.76931233 -59.36454711 105.52563626 -59.39296341 98.281744 C-59.41943057 91.46641026 -59.41414472 84.65170513 -59.38814163 77.83637238 C-59.38343114 75.34522856 -59.38880357 72.85404053 -59.40538788 70.36294746 C-59.51576956 52.48387478 -58.01082864 37.86852787 -46.63632202 23.28088379 C-45.89382202 22.27025879 -45.15132202 21.25963379 -44.38632202 20.21838379 C-43.80882202 19.57900879 -43.23132202 18.93963379 -42.63632202 18.28088379 C-41.97632202 18.28088379 -41.31632202 18.28088379 -40.63632202 18.28088379 C-40.63632202 17.62088379 -40.63632202 16.96088379 -40.63632202 16.28088379 C-38.73078868 14.73888622 -36.84529669 13.34398022 -34.82382202 11.96838379 C-34.23721802 11.56611572 -33.65061401 11.16384766 -33.04623413 10.74938965 C-27.85159953 7.27157232 -22.47876936 4.52243908 -16.63632202 2.28088379 C-15.81340857 1.93661598 -14.99049511 1.59234818 -14.14264488 1.23764801 C-9.38510051 -0.06053485 -4.91026635 -0.00851938 0 0 Z " fill="#000000" transform="translate(58.636322021484375,-0.2808837890625)"/>
<path d="M0 0 C1.37718744 0.00560689 2.75438093 0.00987181 4.13157654 0.01286316 C7.72703052 0.02422615 11.32211124 0.0536175 14.91741943 0.0869751 C18.59788882 0.11786229 22.2784213 0.13157333 25.95898438 0.14648438 C33.15918201 0.17689918 40.3583595 0.23563866 47.55859375 0.29296875 C47.55859375 20.09296875 47.55859375 39.89296875 47.55859375 60.29296875 C25.62109375 60.66796875 25.62109375 60.66796875 18.75024414 60.77099609 C16.92723199 60.806244 15.10423276 60.84216981 13.28125 60.87890625 C11.89286926 60.89594604 11.89286926 60.89594604 10.47644043 60.91333008 C4.71941089 61.03989171 -0.95010841 61.42309229 -6.44140625 63.29296875 C-8.2678552 64.97610418 -8.2678552 64.97610418 -8.94140625 67.16796875 C-9.21984375 67.84601563 -9.49828125 68.5240625 -9.78515625 69.22265625 C-13.18893188 79.96075795 -11.88993441 86.50617281 -12.44140625 100.29296875 C7.35859375 100.29296875 27.15859375 100.29296875 47.55859375 100.29296875 C47.55859375 120.09296875 47.55859375 139.89296875 47.55859375 160.29296875 C27.75859375 160.29296875 7.95859375 160.29296875 -12.44140625 160.29296875 C-12.44140625 204.84296875 -12.44140625 249.39296875 -12.44140625 295.29296875 C-30.92140625 295.29296875 -49.40140625 295.29296875 -68.44140625 295.29296875 C-68.44140625 250.74296875 -68.44140625 206.19296875 -68.44140625 160.29296875 C-82.96140625 160.29296875 -97.48140625 160.29296875 -112.44140625 160.29296875 C-112.44140625 140.49296875 -112.44140625 120.69296875 -112.44140625 100.29296875 C-97.92140625 100.29296875 -83.40140625 100.29296875 -68.44140625 100.29296875 C-68.52390625 95.07484375 -68.60640625 89.85671875 -68.69140625 84.48046875 C-68.79601773 57.88646695 -63.72624192 37.11059421 -44.6953125 17.45703125 C-38.32636022 11.16792726 -31.84588623 6.61641331 -23.44140625 3.29296875 C-22.85993835 3.04052902 -22.27847046 2.78808929 -21.67938232 2.52799988 C-14.52368496 -0.26966093 -7.59705206 -0.08981417 0 0 Z " fill="#F7F7F7" transform="translate(248.44140625,63.70703125)"/>
<path d="M0 0 C1.37003265 0.00935978 2.74008237 0.01646085 4.11013794 0.0214386 C7.66474047 0.04026087 11.21827278 0.08913513 14.77246094 0.1449585 C18.41977208 0.19669704 22.06726638 0.21934417 25.71484375 0.24414062 C32.8342693 0.29461868 39.95078091 0.39253142 47.0703125 0.48828125 C47.0703125 20.28828125 47.0703125 40.08828125 47.0703125 60.48828125 C25.0078125 60.92578125 25.0078125 60.92578125 18.08178711 61.05639648 C16.25373641 61.09455164 14.42569228 61.13302347 12.59765625 61.171875 C11.66183716 61.18835083 10.72601807 61.20482666 9.76184082 61.22180176 C4.7765655 61.33202829 -0.01141557 61.65723229 -4.9296875 62.48828125 C-4.9296875 61.82828125 -4.9296875 61.16828125 -4.9296875 60.48828125 C-1.25557965 59.31256674 2.23960433 59.41461379 6.0703125 59.48828125 C6.0703125 58.49828125 6.0703125 57.50828125 6.0703125 56.48828125 C11.0203125 56.48828125 15.9703125 56.48828125 21.0703125 56.48828125 C21.0496875 54.19890625 21.0290625 51.90953125 21.0078125 49.55078125 C20.98660382 47.19661793 20.99759509 44.8414168 21.0703125 42.48828125 C22.0703125 41.48828125 22.0703125 41.48828125 25.23046875 41.390625 C30.65039062 41.43945312 30.65039062 41.43945312 36.0703125 41.48828125 C36.0703125 46.43828125 36.0703125 51.38828125 36.0703125 56.48828125 C31.4503125 56.48828125 26.8303125 56.48828125 22.0703125 56.48828125 C22.0703125 57.14828125 22.0703125 57.80828125 22.0703125 58.48828125 C29.9903125 58.81828125 37.9103125 59.14828125 46.0703125 59.48828125 C46.0703125 53.54828125 46.0703125 47.60828125 46.0703125 41.48828125 C43.1003125 41.48828125 40.1303125 41.48828125 37.0703125 41.48828125 C36.0703125 40.48828125 36.0703125 40.48828125 35.9375 37.58203125 C35.94007813 36.39609375 35.94265625 35.21015625 35.9453125 33.98828125 C35.94273437 32.80234375 35.94015625 31.61640625 35.9375 30.39453125 C36.0703125 27.48828125 36.0703125 27.48828125 37.0703125 26.48828125 C40.07362268 26.34634788 43.06248384 26.44591747 46.0703125 26.48828125 C46.0703125 21.53828125 46.0703125 16.58828125 46.0703125 11.48828125 C42.7703125 11.48828125 39.4703125 11.48828125 36.0703125 11.48828125 C36.0703125 8.18828125 36.0703125 4.88828125 36.0703125 1.48828125 C20.2303125 1.48828125 4.3903125 1.48828125 -11.9296875 1.48828125 C-10.4446875 1.98328125 -10.4446875 1.98328125 -8.9296875 2.48828125 C-8.9296875 5.45828125 -8.9296875 8.42828125 -8.9296875 11.48828125 C-13.8796875 11.48828125 -18.8296875 11.48828125 -23.9296875 11.48828125 C-23.9296875 16.43828125 -23.9296875 21.38828125 -23.9296875 26.48828125 C-28.8796875 26.48828125 -33.8296875 26.48828125 -38.9296875 26.48828125 C-38.9296875 22.85828125 -38.9296875 19.22828125 -38.9296875 15.48828125 C-40.2496875 15.81828125 -41.5696875 16.14828125 -42.9296875 16.48828125 C-31.39248561 3.83457595 -16.69172653 -0.33549992 0 0 Z " fill="#EDEDED" transform="translate(248.9296875,63.51171875)"/>
<path d="M0 0 C19.8 0 39.6 0 60 0 C60 19.8 60 39.6 60 60 C40.2 60 20.4 60 0 60 C0 59.67 0 59.34 0 59 C6.27 58.67 12.54 58.34 19 58 C18.95875 56.39125 18.9175 54.7825 18.875 53.125 C18.8046875 50.3828125 18.8046875 50.3828125 19 48 C21 46 21 46 24.0390625 45.8046875 C29.01953125 45.90234375 29.01953125 45.90234375 34 46 C34 50.29 34 54.58 34 59 C38.95 58.67 43.9 58.34 49 58 C49 54.04 49 50.08 49 46 C52.3 46 55.6 46 59 46 C59 31.15 59 16.3 59 1 C45.8 1 32.6 1 19 1 C19 5.95 19 10.9 19 16 C14.05 16 9.1 16 4 16 C4 11.38 4 6.76 4 2 C2.68 1.34 1.36 0.68 0 0 Z " fill="#EDEDED" transform="translate(236,164)"/>
<path d="M0 0 C1.37003265 0.00935978 2.74008237 0.01646085 4.11013794 0.0214386 C7.66474047 0.04026087 11.21827278 0.08913513 14.77246094 0.1449585 C18.41977471 0.19669708 22.06726648 0.21906738 25.71484375 0.24414062 C32.83376332 0.29728815 39.95196696 0.38228625 47.0703125 0.48828125 C47.0703125 0.81828125 47.0703125 1.14828125 47.0703125 1.48828125 C27.6003125 1.48828125 8.1303125 1.48828125 -11.9296875 1.48828125 C-10.4446875 1.98328125 -10.4446875 1.98328125 -8.9296875 2.48828125 C-8.9296875 5.45828125 -8.9296875 8.42828125 -8.9296875 11.48828125 C-13.8796875 11.48828125 -18.8296875 11.48828125 -23.9296875 11.48828125 C-23.9296875 16.43828125 -23.9296875 21.38828125 -23.9296875 26.48828125 C-28.8796875 26.48828125 -33.8296875 26.48828125 -38.9296875 26.48828125 C-38.9296875 22.85828125 -38.9296875 19.22828125 -38.9296875 15.48828125 C-40.2496875 15.81828125 -41.5696875 16.14828125 -42.9296875 16.48828125 C-31.39248561 3.83457595 -16.69172653 -0.33549992 0 0 Z " fill="#E3E3E3" transform="translate(248.9296875,63.51171875)"/>
<path d="M0 0 C4.98046875 0.09765625 4.98046875 0.09765625 9.9609375 0.1953125 C9.9609375 5.1453125 9.9609375 10.0953125 9.9609375 15.1953125 C5.0109375 15.1953125 0.0609375 15.1953125 -5.0390625 15.1953125 C-5.234375 5.234375 -5.234375 5.234375 -5.0390625 2.1953125 C-3.0390625 0.1953125 -3.0390625 0.1953125 0 0 Z M-15.87890625 15.09765625 C-12.265625 15.13020833 -8.65234375 15.16276042 -5.0390625 15.1953125 C-5.0390625 20.1453125 -5.0390625 25.0953125 -5.0390625 30.1953125 C-9.9890625 30.1953125 -14.9390625 30.1953125 -20.0390625 30.1953125 C-20.13671875 19.35546875 -20.13671875 19.35546875 -20.0390625 16.1953125 C-19.0390625 15.1953125 -19.0390625 15.1953125 -15.87890625 15.09765625 Z " fill="#EFEFEF" transform="translate(260.0390625,179.8046875)"/>
<path d="M0 0 C14.52 0 29.04 0 44 0 C44 0.33 44 0.66 44 1 C39.05 1 34.1 1 29 1 C29.020625 3.289375 29.04125 5.57875 29.0625 7.9375 C29.08370868 10.29166332 29.07271741 12.64686445 29 15 C28 16 28 16 25.09375 16.1328125 C23.9078125 16.13023437 22.721875 16.12765625 21.5 16.125 C20.3140625 16.12757813 19.128125 16.13015625 17.90625 16.1328125 C15 16 15 16 14 15 C13.85606543 10.66469082 13.95787939 6.33842269 14 2 C9.71 1.67 5.42 1.34 1 1 C1 20.14 1 39.28 1 59 C15.19 59 29.38 59 44 59 C44 59.33 44 59.66 44 60 C29.48 60 14.96 60 0 60 C0 40.2 0 20.4 0 0 Z " fill="#E7E7E7" transform="translate(136,164)"/>
<path d="M0 0 C0.99 0.495 0.99 0.495 2 1 C6.33603979 1.1393329 10.66080671 1.04254111 15 1 C15 5.95 15 10.9 15 16 C10.38 16 5.76 16 1 16 C1 55.27 1 94.54 1 135 C0.67 135 0.34 135 0 135 C0 90.45 0 45.9 0 0 Z " fill="#DEDEDE" transform="translate(180,224)"/>
<path d="M0 0 C-0.33 0.66 -0.66 1.32 -1 2 C-1.31255647 4.85207778 -1.51037482 7.70496854 -1.71875 10.56640625 C-2 13 -2 13 -3 14 C-4.97154429 14.28745638 -6.95340874 14.50584123 -8.9375 14.6875 C-10.01902344 14.79449219 -11.10054687 14.90148437 -12.21484375 15.01171875 C-15 15 -15 15 -17 13 C-17.265625 10.25 -17.265625 10.25 -17.25 7 C-17.25515625 5.9275 -17.2603125 4.855 -17.265625 3.75 C-17 1 -17 1 -15 -1 C-12.03125 -1.484375 -12.03125 -1.484375 -8.5 -1.75 C-7.3346875 -1.84796875 -6.169375 -1.9459375 -4.96875 -2.046875 C-2 -2 -2 -2 0 0 Z " fill="#EFEFEF" transform="translate(227,316)"/>
<path d="M0 0 C4.95 0 9.9 0 15 0 C15 4.95 15 9.9 15 15 C10.05 15 5.1 15 0 15 C0 10.05 0 5.1 0 0 Z " fill="#EFEFEF" transform="translate(210,105)"/>
<path d="M0 0 C3.61328125 0.03255208 7.2265625 0.06510417 10.83984375 0.09765625 C10.83984375 5.04765625 10.83984375 9.99765625 10.83984375 15.09765625 C5.88984375 15.09765625 0.93984375 15.09765625 -4.16015625 15.09765625 C-4.2578125 4.2578125 -4.2578125 4.2578125 -4.16015625 1.09765625 C-3.16015625 0.09765625 -3.16015625 0.09765625 0 0 Z " fill="#EFEFEF" transform="translate(229.16015625,179.90234375)"/>
<path d="M0 0 C3.61328125 0.03255208 7.2265625 0.06510417 10.83984375 0.09765625 C10.83984375 5.04765625 10.83984375 9.99765625 10.83984375 15.09765625 C0 15.1953125 0 15.1953125 -3.16015625 15.09765625 C-4.16015625 14.09765625 -4.16015625 14.09765625 -4.29296875 11.19140625 C-4.29039062 10.00546875 -4.2878125 8.81953125 -4.28515625 7.59765625 C-4.28773438 6.41171875 -4.2903125 5.22578125 -4.29296875 4.00390625 C-4.10800919 -0.04344422 -4.09186436 0.12644822 0 0 Z " fill="#EFEFEF" transform="translate(229.16015625,89.90234375)"/>
<path d="M0 0 C1.08152344 0.01417969 2.16304687 0.02835937 3.27734375 0.04296875 C4.90349609 0.05263672 4.90349609 0.05263672 6.5625 0.0625 C9.21484375 0.23046875 9.21484375 0.23046875 10.21484375 1.23046875 C10.31377315 3.39527672 10.34455475 5.5634066 10.33984375 7.73046875 C10.34242188 8.91640625 10.345 10.10234375 10.34765625 11.32421875 C10.21484375 14.23046875 10.21484375 14.23046875 9.21484375 15.23046875 C7.05003578 15.32939815 4.8819059 15.36017975 2.71484375 15.35546875 C1.52890625 15.35804688 0.34296875 15.360625 -0.87890625 15.36328125 C-3.78515625 15.23046875 -3.78515625 15.23046875 -4.78515625 14.23046875 C-4.91030553 12.25427428 -4.96088385 10.27308702 -4.97265625 8.29296875 C-4.98683594 7.21144531 -5.00101563 6.12992187 -5.015625 5.015625 C-4.69619975 1.15545201 -3.86017299 0.31942525 0 0 Z " fill="#EFEFEF" transform="translate(214.78515625,284.76953125)"/>
<path d="M0 0 C1.08152344 0.01417969 2.16304687 0.02835938 3.27734375 0.04296875 C4.90349609 0.05263672 4.90349609 0.05263672 6.5625 0.0625 C9.21484375 0.23046875 9.21484375 0.23046875 10.21484375 1.23046875 C10.31377315 3.39527672 10.34455475 5.5634066 10.33984375 7.73046875 C10.34242188 8.91640625 10.345 10.10234375 10.34765625 11.32421875 C10.21484375 14.23046875 10.21484375 14.23046875 9.21484375 15.23046875 C7.05003578 15.32939815 4.8819059 15.36017975 2.71484375 15.35546875 C1.52890625 15.35804688 0.34296875 15.360625 -0.87890625 15.36328125 C-3.78515625 15.23046875 -3.78515625 15.23046875 -4.78515625 14.23046875 C-4.91030553 12.25427428 -4.96088385 10.27308702 -4.97265625 8.29296875 C-4.98683594 7.21144531 -5.00101563 6.12992188 -5.015625 5.015625 C-4.69619975 1.15545201 -3.86017299 0.31942525 0 0 Z " fill="#EFEFEF" transform="translate(214.78515625,194.76953125)"/>
<path d="M0 0 C3.35286458 0.03255208 6.70572917 0.06510417 10.05859375 0.09765625 C10.05859375 5.04765625 10.05859375 9.99765625 10.05859375 15.09765625 C7.93421875 15.28328125 5.80984375 15.46890625 3.62109375 15.66015625 C1.82865234 15.81677734 1.82865234 15.81677734 0 15.9765625 C-0.97066406 16.01652344 -1.94132813 16.05648438 -2.94140625 16.09765625 C-3.94140625 15.09765625 -3.94140625 15.09765625 -4.07421875 11.97265625 C-4.07164062 10.69390625 -4.0690625 9.41515625 -4.06640625 8.09765625 C-4.06898438 6.81890625 -4.0715625 5.54015625 -4.07421875 4.22265625 C-3.90025921 0.12949068 -3.90025921 0.12949068 0 0 Z " fill="#EFEFEF" transform="translate(184.94140625,284.90234375)"/>
<path d="M0 0 C4.62 0 9.24 0 14 0 C13.67 4.95 13.34 9.9 13 15 C8.71 15 4.42 15 0 15 C0 10.05 0 5.1 0 0 Z " fill="#FEFEFE" transform="translate(137,165)"/>
<path d="M0 0 C3.35286458 0.03255208 6.70572917 0.06510417 10.05859375 0.09765625 C10.05859375 4.71765625 10.05859375 9.33765625 10.05859375 14.09765625 C5.43859375 14.09765625 0.81859375 14.09765625 -3.94140625 14.09765625 C-4.0390625 4.0390625 -4.0390625 4.0390625 -3.94140625 1.09765625 C-2.94140625 0.09765625 -2.94140625 0.09765625 0 0 Z " fill="#EFEFEF" transform="translate(184.94140625,344.90234375)"/>
<path d="M0 0 C1.34222551 2.68445102 1.03265728 4.63098949 0.9140625 7.62890625 C0.87023437 8.74587891 0.82640625 9.86285156 0.78125 11.01367188 C0.7296875 12.18478516 0.678125 13.35589844 0.625 14.5625 C0.58117187 15.73748047 0.53734375 16.91246094 0.4921875 18.12304688 C0.1282917 26.8717083 0.1282917 26.8717083 -1 28 C-2.68608966 28.07205511 -4.37500659 28.08386068 -6.0625 28.0625 C-6.98160156 28.05347656 -7.90070313 28.04445312 -8.84765625 28.03515625 C-9.55792969 28.02355469 -10.26820313 28.01195312 -11 28 C-11.02693575 25.87506859 -11.04636628 23.75004088 -11.0625 21.625 C-11.07410156 20.44164062 -11.08570313 19.25828125 -11.09765625 18.0390625 C-11 15 -11 15 -10 13 C-7.35139573 12.40644386 -4.70802678 12.25790731 -2 12 C-1.93941406 11.21753906 -1.87882813 10.43507812 -1.81640625 9.62890625 C-1.73261719 8.61699219 -1.64882812 7.60507813 -1.5625 6.5625 C-1.48128906 5.55316406 -1.40007812 4.54382813 -1.31640625 3.50390625 C-1 1 -1 1 0 0 Z " fill="#EBEBEB" transform="translate(236,137)"/>
<path d="M0 0 C0.33 0.66 0.66 1.32 1 2 C2.98 2 4.96 2 7 2 C7 6.95 7 11.9 7 17 C3.37 17 -0.26 17 -4 17 C-4 17.66 -4 18.32 -4 19 C-4.66 19 -5.32 19 -6 19 C-5.00944361 11.90970159 -3.53531978 6.24573162 0 0 Z " fill="#E1E1E1" transform="translate(188,103)"/>
<path d="M0 0 C3.3 0 6.6 0 10 0 C10 4.29 10 8.58 10 13 C3.06640625 13.09765625 3.06640625 13.09765625 1 13 C0 12 0 12 -0.09765625 9.27734375 C-0.08605469 8.17519531 -0.07445312 7.07304687 -0.0625 5.9375 C-0.05347656 4.83277344 -0.04445313 3.72804687 -0.03515625 2.58984375 C-0.02355469 1.73519531 -0.01195312 0.88054687 0 0 Z " fill="#EFEFEF" transform="translate(285,210)"/>
<path d="M0 0 C7 2 7 2 14 4 C14 4.66 14 5.32 14 6 C8.33557626 5.63495936 3.99296295 4.9445679 -1 2 C-0.67 1.34 -0.34 0.68 0 0 Z " fill="#131313" transform="translate(35,353)"/>
<path d="M0 0 C0.99 0.33 1.98 0.66 3 1 C3.185625 1.9590625 3.185625 1.9590625 3.375 2.9375 C3.684375 3.9584375 3.684375 3.9584375 4 5 C5.66072849 5.68132451 7.327767 6.34742127 9 7 C10.3125 9.125 10.3125 9.125 11 11 C6.296847 9.6167197 2.89806188 6.91387738 0 3 C0 2.01 0 1.02 0 0 Z " fill="#0B0B0B" transform="translate(15,338)"/>
<path d="M0 0 C0.66 0 1.32 0 2 0 C1.53411505 5.70709064 0.06242216 9.15939723 -3 14 C-4.37095624 10.30962722 -3.60010967 8.29116165 -2.0625 4.75 C-1.68222656 3.85796875 -1.30195313 2.9659375 -0.91015625 2.046875 C-0.60980469 1.37140625 -0.30945313 0.6959375 0 0 Z " fill="#111111" transform="translate(356,315)"/>
<path d="M0 0 C0 0.66 0 1.32 0 2 C-1.60032137 2.84069415 -3.20541171 3.67231505 -4.8125 4.5 C-6.15248047 5.19609375 -6.15248047 5.19609375 -7.51953125 5.90625 C-10 7 -10 7 -13 7 C-13 6.34 -13 5.68 -13 5 C-9.91190305 3.23537317 -8.76687864 3 -5 3 C-5 2.34 -5 1.68 -5 1 C-3 0 -3 0 0 0 Z " fill="#1E1E1E" transform="translate(333,349)"/>
<path d="M0 0 C4.05606165 0.46800711 7.46588679 0.87953208 11 3 C11 3.66 11 4.32 11 5 C7.37 4.01 3.74 3.02 0 2 C0 1.34 0 0.68 0 0 Z " fill="#101010" transform="translate(311,1)"/>
<path d="M0 0 C0.66 0 1.32 0 2 0 C2.66 3.3 3.32 6.6 4 10 C3.01 10 2.02 10 1 10 C0.67 6.7 0.34 3.4 0 0 Z " fill="#181818" transform="translate(0,306)"/>
<path d="M0 0 C0.99 0.33 1.98 0.66 3 1 C3.33 3.64 3.66 6.28 4 9 C3.34 9 2.68 9 2 9 C1.34 6.03 0.68 3.06 0 0 Z " fill="#151515" transform="translate(355,40)"/>
</svg>
